<svg width="28" height="29" viewBox="0 0 28 29" fill="none" xmlns="http://www.w3.org/2000/svg">
<rect x="2" y="4" width="4" height="7" rx="2" stroke="black"/>
<rect x="9" y="1" width="4" height="10" rx="2" stroke="black"/>
<rect x="16" y="4" width="4" height="7" rx="2" stroke="black"/>
<path fill-rule="evenodd" clip-rule="evenodd" d="M6.49648 12.5L6.5 12.5V12.5L6.50352 12.5L7.5 12.5L17.5343 12.5001L18 12.5001H18.0071H20.9987H20.9991L21 12.5001C21.2244 12.5001 21.4461 12.5114 21.6646 12.5336C24.9423 12.8665 27.5 15.6346 27.5 19.0001C27.5 22.2714 25.0834 24.9783 21.938 25.4329L21.9246 25.4348C21.9069 25.529 21.8862 25.6221 21.8626 25.714C21.4073 27.4864 19.8703 28.8249 17.9971 28.9842C17.8732 28.9947 17.7479 29.0001 17.6212 29.0001H4.5C2.01472 29.0001 0 26.9854 0 24.5001V15.0566C0 13.6896 1.09795 12.5761 2.4648 12.5568L3.49296 12.5423L5.5 12.5141L6.48944 12.5001L6.49296 12.5001L6.49648 12.5ZM3.50704 13.5422L6.50352 13.5L14 13.5001L14 13.5H21V13.5001C24.0376 13.5001 26.5 15.9625 26.5 19.0001C26.5 19.1733 26.492 19.3446 26.4763 19.5137C26.3712 20.6489 25.9209 21.6842 25.2315 22.5137C24.2227 23.7274 22.7016 24.5001 21 24.5001V25L20.8906 25.5001H20.8846C20.7899 25.8527 20.6395 26.1826 20.4434 26.4797C20.2375 26.7918 19.9813 27.0676 19.6863 27.2958C19.2108 27.6633 18.6347 27.907 18.0066 27.9783C17.8801 27.9927 17.7515 28.0001 17.6212 28.0001H4.5C2.567 28.0001 1 26.4331 1 24.5001V15.0566C1 14.3389 1.50437 13.7377 2.17987 13.5908C2.27637 13.5699 2.37636 13.5582 2.47888 13.5567L3.50704 13.5422ZM21 22.5C21.3475 22.5 21.6831 22.4494 22 22.3551C22.1235 22.3184 22.2441 22.275 22.3614 22.2254C23.3131 21.8232 24.0498 21.0121 24.3514 20.0123C24.448 19.6919 24.5 19.3521 24.5 19C24.5 18.8204 24.4865 18.644 24.4604 18.4718C24.2759 17.2528 23.4625 16.24 22.3614 15.7747C22.2441 15.7251 22.1235 15.6817 22 15.645C21.6835 15.5508 21.3483 15.5002 21.0013 15.5H21V16.5V16.7081V17.5V20.5V21.292V21.5V22.5ZM22 16.7081C22.3981 16.882 22.7422 17.1567 23 17.4998C23.314 17.9177 23.5 18.4371 23.5 19C23.5 19.563 23.314 20.0824 23 20.5003C22.7845 20.7871 22.5088 21.026 22.1916 21.1983C22.1293 21.2322 22.0654 21.2634 22 21.292V20.1183V17.8817V16.7081Z" fill="black"/>
</svg>
