<svg width="22" height="22" viewBox="0 0 22 22" fill="none" xmlns="http://www.w3.org/2000/svg">
<path d="M19.8561 3.89047C20.7457 3.83191 21.5 3.1107 21.5 2.17647C21.5 1.25838 20.749 0.4795 19.7945 0.534873C9.43238 1.136 1.136 9.43238 0.534873 19.7945C0.4795 20.749 1.25838 21.5 2.17647 21.5C3.1107 21.5 3.83191 20.7457 3.89047 19.8561C4.4539 11.2978 11.2978 4.4539 19.8561 3.89047Z" stroke="black"/>
<path d="M19.8843 9.88834C20.7499 9.80252 21.5 9.0984 21.5 8.16667C21.5 7.25776 20.7531 6.47037 19.7926 6.54958C12.7472 7.13064 7.13064 12.7472 6.54958 19.7926C6.47037 20.7531 7.25776 21.5 8.16667 21.5C9.0984 21.5 9.80252 20.7499 9.88834 19.8843C10.4114 14.6083 14.6083 10.4114 19.8843 9.88834Z" stroke="black"/>
<path d="M19.9633 15.8887C20.7544 15.7292 21.5 15.0692 21.5 14.1429C21.5 13.2581 20.764 12.4466 19.7899 12.5855C16.0635 13.1169 13.1169 16.0635 12.5855 19.79C12.4466 20.764 13.2581 21.5 14.1429 21.5C15.0692 21.5 15.7292 20.7544 15.8887 19.9633C16.3015 17.9157 17.9157 16.3015 19.9633 15.8887Z" stroke="black"/>
<circle cx="21" cy="21" r="0.5" stroke="black"/>
</svg>
