<svg width="30" height="19" viewBox="0 0 30 19" fill="none" xmlns="http://www.w3.org/2000/svg">
<path d="M0.5 9.93143C0.5 5.40926 4.01427 1.66558 8.52741 1.37998L14.5171 1.00094L21.4552 1.41255C25.9733 1.68059 29.5 5.42275 29.5 9.94877V14.5917C29.5 16.7502 27.7502 18.5 25.5917 18.5C23.8432 18.5 22.3074 17.3386 21.8312 15.6562L21.7287 15.2943C21.1155 13.128 19.2238 11.5686 16.9804 11.3799L15.2425 11.2337C14.7565 11.1929 14.2678 11.1969 13.7825 11.2459L13.2043 11.3043C10.8072 11.5462 8.7029 13.0036 7.6334 15.1625L6.91158 16.6196C6.34102 17.7713 5.16682 18.5 3.8815 18.5C2.01395 18.5 0.5 16.986 0.5 15.1185V9.93143Z" stroke="black"/>
<circle cx="5.2578" cy="6.88461" r="1.5" transform="rotate(-22.8545 5.2578 6.88461)" stroke="black"/>
<circle cx="9.96483" cy="6.96481" r="1.5" transform="rotate(-22.8545 9.96483 6.96481)" stroke="black"/>
<circle cx="4.04686" cy="11.7357" r="1.5" transform="rotate(-22.8545 4.04686 11.7357)" stroke="black"/>
<mask id="path-5-outside-1" maskUnits="userSpaceOnUse" x="19" y="4" width="8" height="8" fill="black">
<rect fill="white" x="19" y="4" width="8" height="8"/>
<path fill-rule="evenodd" clip-rule="evenodd" d="M23 5C22.5266 5 22.1429 5.38376 22.1429 5.85714V7.14286H20.8571C20.3838 7.14286 20 7.52661 20 8C20 8.47339 20.3838 8.85714 20.8571 8.85714H22.1429V10.1429C22.1429 10.6162 22.5266 11 23 11C23.4734 11 23.8571 10.6162 23.8571 10.1429V8.85714H25.1429C25.6162 8.85714 26 8.47339 26 8C26 7.52661 25.6162 7.14286 25.1429 7.14286H23.8571V5.85714C23.8571 5.38376 23.4734 5 23 5Z"/>
</mask>
<path d="M22.1429 7.14286V8.14286H23.1429V7.14286H22.1429ZM20.8571 8.85714L20.8571 9.85714H20.8571V8.85714ZM22.1429 8.85714H23.1429V7.85714H22.1429V8.85714ZM23.8571 8.85714V7.85714H22.8571V8.85714H23.8571ZM23.8571 7.14286H22.8571V8.14286H23.8571V7.14286ZM23.1429 5.85714C23.1429 5.93604 23.0789 6 23 6V4C21.9743 4 21.1429 4.83147 21.1429 5.85714H23.1429ZM23.1429 7.14286V5.85714H21.1429V7.14286H23.1429ZM20.8571 8.14286H22.1429V6.14286H20.8571V8.14286ZM21 8C21 8.0789 20.936 8.14286 20.8571 8.14286V6.14286C19.8315 6.14286 19 6.97433 19 8H21ZM20.8571 7.85714C20.936 7.85714 21 7.9211 21 8H19C19 9.02567 19.8315 9.85714 20.8571 9.85714L20.8571 7.85714ZM22.1429 7.85714H20.8571V9.85714H22.1429V7.85714ZM23.1429 10.1429V8.85714H21.1429V10.1429H23.1429ZM23 10C23.0789 10 23.1429 10.064 23.1429 10.1429H21.1429C21.1429 11.1685 21.9743 12 23 12V10ZM22.8571 10.1429C22.8571 10.064 22.9211 10 23 10V12C24.0257 12 24.8571 11.1685 24.8571 10.1429H22.8571ZM22.8571 8.85714V10.1429H24.8571V8.85714H22.8571ZM25.1429 7.85714H23.8571V9.85714H25.1429V7.85714ZM25 8C25 7.9211 25.064 7.85714 25.1429 7.85714V9.85714C26.1685 9.85714 27 9.02567 27 8H25ZM25.1429 8.14286C25.064 8.14286 25 8.0789 25 8H27C27 6.97433 26.1685 6.14286 25.1429 6.14286V8.14286ZM23.8571 8.14286H25.1429V6.14286H23.8571V8.14286ZM22.8571 5.85714V7.14286H24.8571V5.85714H22.8571ZM23 6C22.9211 6 22.8571 5.93604 22.8571 5.85714H24.8571C24.8571 4.83147 24.0257 4 23 4V6Z" fill="black" mask="url(#path-5-outside-1)"/>
</svg>
