<svg width="28" height="29" viewBox="0 0 28 29" fill="none" xmlns="http://www.w3.org/2000/svg">
<path fill-rule="evenodd" clip-rule="evenodd" d="M14 25C19.5228 25 24 20.5228 24 15C24 13.288 23.5698 11.6765 22.8116 10.2677C22.5036 9.69541 22.1415 9.15661 21.7322 8.6581C21.2237 8.03885 20.6422 7.48178 20.001 7C18.3295 5.74418 16.2516 5 14 5C8.47715 5 4 9.47715 4 15C4 20.5228 8.47715 25 14 25ZM14 28C21.1797 28 27 22.1797 27 15C27 7.8203 21.1797 2 14 2C6.8203 2 1 7.8203 1 15C1 22.1797 6.8203 28 14 28Z" stroke="black"/>
<path d="M6.49897 13.0002L13.9993 16.5L26.5 8" stroke="black"/>
<path d="M14 7L14 5" stroke="black"/>
<path d="M13.9238 25L13.9238 23" stroke="black"/>
<path d="M24 14.9158L22 14.9263" stroke="black"/>
<path d="M5.99997 14.9158L4 14.9263" stroke="black"/>
</svg>
