<svg width="28" height="29" viewBox="0 0 28 29" fill="none" xmlns="http://www.w3.org/2000/svg">
<path d="M16.7966 10.8332C16.6384 10.8112 16.4746 10.7946 16.3051 10.7836C16.1469 10.7725 15.983 10.767 15.8136 10.767C15.1695 10.767 14.565 10.9105 14 11.1974C13.435 11.4733 12.9379 11.8541 12.5085 12.3397C12.0904 12.8142 11.7571 13.366 11.5085 13.9951C11.2712 14.6242 11.1525 15.2863 11.1525 15.9816C11.1525 16.6658 11.2938 17.1901 11.5763 17.5543C11.8588 17.9074 12.2712 18.084 12.8136 18.084C13.0847 18.084 13.3559 18.0454 13.6271 17.9681C13.8983 17.8798 14.1582 17.7364 14.4068 17.5377C14.6554 17.328 14.8757 17.0576 15.0678 16.7265C15.2712 16.3844 15.4407 15.954 15.5763 15.4353L16.7966 10.8332ZM19.1695 14.9552C19.0113 15.6064 18.9266 16.1471 18.9153 16.5776C18.9153 16.9969 18.9774 17.328 19.1017 17.5708C19.226 17.8136 19.4011 17.9847 19.6271 18.084C19.8644 18.1723 20.1356 18.2164 20.4407 18.2164C20.8814 18.2164 21.2994 18.073 21.6949 17.786C22.0904 17.4991 22.435 17.1018 22.7288 16.5941C23.0226 16.0754 23.2542 15.4684 23.4237 14.7731C23.5932 14.0668 23.678 13.2998 23.678 12.4721C23.678 11.0705 23.4576 9.83446 23.0169 8.76395C22.5763 7.6824 21.9548 6.78295 21.1525 6.0656C20.3616 5.34825 19.4068 4.80748 18.2881 4.44329C17.1695 4.06806 15.9379 3.88044 14.5932 3.88044C13.6102 3.88044 12.6723 4.00184 11.7797 4.24464C10.8983 4.48743 10.0791 4.83507 9.32203 5.28755C8.56497 5.729 7.88136 6.26425 7.27119 6.89332C6.66102 7.52238 6.14124 8.22317 5.71186 8.99571C5.28249 9.76824 4.94915 10.6015 4.71186 11.4954C4.48588 12.3783 4.37288 13.3053 4.37288 14.2765C4.37288 16.0644 4.65537 17.637 5.22034 18.9945C5.78531 20.3519 6.55932 21.4831 7.54237 22.3881C8.53672 23.2931 9.70621 23.9718 11.0508 24.4243C12.3955 24.8878 13.8531 25.1196 15.4237 25.1196C16.3051 25.1196 17.1186 25.0699 17.8644 24.9706C18.6215 24.8823 19.3107 24.7609 19.9322 24.6064C20.565 24.4519 21.1299 24.2753 21.6271 24.0766C22.1243 23.878 22.5593 23.6738 22.9322 23.4641C23.2599 23.2876 23.5424 23.2379 23.7797 23.3151C24.0282 23.3814 24.209 23.5579 24.322 23.8449L24.9661 25.4506C23.8023 26.2011 22.4294 26.8136 20.8475 27.2882C19.2768 27.7627 17.4689 28 15.4237 28C13.3446 28 11.4237 27.6799 9.66102 27.0399C7.8983 26.4108 6.37288 25.5003 5.08475 24.3084C3.80791 23.1275 2.80791 21.6928 2.08475 20.0043C1.36158 18.3047 1 16.3955 1 14.2765C1 13.1067 1.15819 11.9644 1.47458 10.8498C1.79096 9.73513 2.23729 8.68669 2.81356 7.70447C3.38983 6.72226 4.08475 5.82281 4.8983 5.00613C5.72316 4.17842 6.63842 3.4721 7.64407 2.88719C8.64972 2.29123 9.73446 1.82771 10.8983 1.49663C12.0734 1.16554 13.3051 1 14.5932 1C15.6667 1 16.7175 1.1214 17.7458 1.36419C18.7853 1.59595 19.7627 1.94359 20.678 2.40711C21.6045 2.8596 22.452 3.42244 23.2203 4.09565C24 4.75782 24.6667 5.5138 25.2203 6.36358C25.7853 7.21337 26.2203 8.15144 26.5254 9.17781C26.8418 10.1931 27 11.2912 27 12.4721C27 13.653 26.8192 14.7621 26.4576 15.7995C26.096 16.8259 25.5932 17.7253 24.9491 18.4979C24.3051 19.2704 23.5367 19.8774 22.6441 20.3188C21.7627 20.7603 20.7966 20.981 19.7458 20.981C19 20.981 18.322 20.8154 17.7119 20.4844C17.1017 20.1533 16.661 19.607 16.3898 18.8455C15.7232 19.607 15.0169 20.1533 14.2712 20.4844C13.5367 20.8044 12.7401 20.9644 11.8814 20.9644C11.1582 20.9644 10.5254 20.843 9.98305 20.6002C9.45198 20.3574 9.00565 20.0208 8.64407 19.5904C8.28248 19.149 8.0113 18.6303 7.83051 18.0343C7.64972 17.4384 7.55932 16.7928 7.55932 16.0975C7.55932 15.4684 7.63842 14.8338 7.79661 14.1937C7.9661 13.5426 8.21469 12.9191 8.54237 12.3231C8.87006 11.7161 9.28248 11.1478 9.77966 10.618C10.2768 10.0883 10.8588 9.63029 11.5254 9.24402C12.1921 8.84672 12.9435 8.53771 13.7797 8.31698C14.6271 8.08522 15.565 7.96934 16.5932 7.96934C17.0565 7.96934 17.4802 7.9859 17.8644 8.01901C18.2486 8.05211 18.6102 8.10178 18.9492 8.16799C19.2881 8.23421 19.6045 8.31698 19.8983 8.41631C20.2034 8.51563 20.5085 8.626 20.8136 8.74739L19.1695 14.9552Z" stroke="black"/>
</svg>
