<?xml-stylesheet type="text/css" href="../css/style.css" ?>
<svg id="footer-svg" width="78" height="117" viewBox="0 0 78 117" fill="none" xmlns="http://www.w3.org/2000/svg">
<path d="M37.5424 20.1834V62.5202C37.5424 63.1769 37 63.7193 36.3434 63.7193H1.22923C0.601167 63.7193 0.0587531 63.1769 0.0587531 62.5202L0.00165688 25.1793C-0.0268912 24.6369 0.315686 24.123 0.8581 23.9518C6.53917 22.3245 12.4201 21.097 18.4152 20.2405C24.2961 19.4412 30.2626 19.0129 36.3434 19.0129C37 19.0129 37.5424 19.5268 37.5424 20.1834Z" fill="black"/>
<path fill-rule="evenodd" clip-rule="evenodd" d="M12.5915 52.4713C13.3909 52.2429 13.6192 51.9003 15.0466 51.9289L13.7049 50.4444C13.5907 50.3302 13.5051 50.216 13.3909 50.0732C13.2481 49.9305 13.1339 49.8448 13.0197 49.7021C12.7913 49.4452 12.5915 49.2453 12.3346 48.9599C12.1918 49.5879 12.0776 50.2731 11.9635 50.9011C11.8493 51.6148 11.7351 51.5006 12.5915 52.4713ZM26.9512 48.9313C25.0385 49.4452 25.8093 52.1572 27.6364 51.729C28.293 51.5577 28.8925 50.8155 28.6641 49.959C28.4928 49.3024 27.7791 48.7315 26.9512 48.9313ZM14.4757 55.3546C12.5915 55.897 13.448 58.6091 15.2179 58.1238C15.9031 57.9525 16.5026 57.2103 16.2457 56.3253C16.0458 55.6687 15.3321 55.1262 14.4757 55.3546ZM16.5597 41.623C14.2759 42.1369 15.0466 45.5055 17.302 45.0488C18.1298 44.8489 18.8721 44.021 18.6437 42.9648C18.4439 42.1083 17.616 41.3661 16.5597 41.623ZM31.1763 39.0822C28.8354 39.3962 29.3207 42.822 31.6046 42.5651C33.8884 42.2796 33.4316 38.7682 31.1763 39.0822ZM30.4912 34.9713H21.0703C21.1845 35.7706 21.8126 36.4558 22.6119 36.57C22.8117 36.5985 26.9227 36.6556 27.2652 36.57C27.4651 36.5414 27.7506 36.1988 28.1788 35.9134C28.7212 35.5708 29.2065 35.3424 29.806 35.1711L30.4912 34.9713ZM14.5613 54.3554C11.3354 54.8122 12.0776 59.5512 15.2179 59.0944C16.3884 58.9517 17.4447 57.8098 17.2449 56.3824C17.045 55.2119 15.9602 54.1556 14.5613 54.3554ZM30.9765 38.1401C29.6062 38.3685 28.4357 39.5961 28.6926 41.2519C28.8925 42.5936 30.2057 43.7355 31.8044 43.4786C33.1461 43.2788 34.3166 42.0227 34.0597 40.3954C33.8599 39.0537 32.5752 37.8832 30.9765 38.1401ZM16.3599 40.6809C15.0752 40.9664 13.9047 42.2225 14.2759 43.9068C14.5613 45.1915 15.846 46.3334 17.4732 45.9623C18.7579 45.7054 19.9284 44.4493 19.5858 42.7649C19.3003 41.4802 18.0157 40.3098 16.3599 40.6809ZM16.3599 39.7959C14.5899 40.0814 13.0197 41.7372 13.3909 43.9068C13.6763 45.6483 15.3321 47.1899 17.4732 46.8758C19.2718 46.5904 20.7848 44.9346 20.4708 42.7649C20.1853 40.9949 18.501 39.4533 16.3599 39.7959ZM14.3044 52.928C12.3631 53.2421 10.7073 54.9835 11.0499 57.3244C11.3354 59.2086 13.191 60.893 15.4463 60.5218C17.359 60.2364 18.9863 58.4378 18.6723 56.1825C18.3582 54.2698 16.5882 52.5855 14.3044 52.928ZM13.0483 36.3701C12.9341 36.1988 12.7343 36.0847 12.6772 35.7992C12.7913 35.5708 13.0483 35.4851 13.191 35.2568C13.1339 35.1426 12.3631 34.3147 12.1918 34.2005C11.2498 34.2861 7.85253 37.5406 7.68124 38.34C7.70979 38.4827 8.56623 39.3677 8.68042 39.4533C9.05155 39.1964 9.30848 38.5683 9.82235 39.4819L8.02382 41.1948C6.79625 42.2796 5.9969 43.1931 6.96754 45.2201C7.31011 45.9908 9.82235 49.0455 10.5646 49.9305C10.7359 50.1589 10.9072 50.4158 11.107 50.5871L11.5638 48.0463C11.3354 47.875 11.2212 47.7608 11.0785 47.561C9.99364 46.2478 8.13801 45.0488 8.73752 43.1646C9.023 42.194 10.1364 41.5088 10.8501 40.8236L14.2759 37.7975C15.1037 36.9982 16.2742 35.8848 17.6445 36.2559C18.5866 36.4843 19.2432 37.4835 19.8142 38.0259L21.7555 40.1099H25.5524C25.638 39.5961 25.7236 39.1679 25.8949 38.7396C26.1233 38.1687 26.4088 37.769 26.4944 37.5692L22.2693 37.5406L19.3574 34.3718C18.5866 33.6295 17.5874 33.1157 16.4455 33.5724C15.275 34.0292 13.6763 36.1132 13.0483 36.3701ZM11.7922 46.8758L12.3631 43.5072C12.5059 41.9941 12.6486 41.5373 13.3623 40.5096C13.9047 39.7674 14.8754 39.1679 15.7604 38.9395C17.2163 38.5683 18.5866 38.8824 19.6714 39.7103C20.9276 40.6524 21.6984 42.6222 22.3835 43.9925L25.067 49.331C25.1812 49.2168 25.2383 49.0455 25.3525 48.9028C26.9512 46.8758 29.9488 48.2747 29.6633 50.6156C29.6062 51.0439 29.4634 51.3579 29.2636 51.6719C29.1494 51.8147 29.0638 51.9003 28.9496 52.043C28.7497 52.2429 28.6641 52.2429 28.5214 52.3856C29.0067 52.614 29.5491 52.7853 30.063 52.9566C30.8623 53.2706 31.0907 53.4705 31.6902 53.2992C32.2897 53.0993 34.5165 52.5284 34.9161 52.3C34.7734 51.986 33.8599 51.1866 34.5736 49.8734C34.7734 49.5594 34.8876 49.5308 35.0874 49.2739C34.8305 49.0455 28.8925 46.2478 28.4643 45.9338C28.293 45.8196 28.3501 45.8196 28.1502 45.7054C26.8941 44.8775 25.9806 43.5357 25.638 42.0512C25.5809 41.7372 25.5809 41.3375 25.4953 41.052H21.2987C20.9847 40.5667 19.7571 39.3962 19.2718 38.8538C18.0442 37.5692 17.359 36.3416 15.6462 37.8832C15.3321 38.1687 15.0466 38.3971 14.7326 38.6825C13.6763 39.539 12.1347 41.0806 11.107 41.9085C10.7644 42.1654 10.479 42.4509 10.1649 42.7364C9.42267 43.3644 9.36558 44.3065 10.0793 45.0773L11.5352 46.6475C11.6494 46.7902 11.6209 46.7616 11.7922 46.8758ZM12.9626 45.5626L12.5344 47.7323C12.7628 48.0178 12.9055 48.1605 13.1625 48.4174L16.2457 51.7861C16.417 51.986 16.5882 52.2429 16.9023 52.3856C17.7873 52.8424 18.4153 53.3277 18.9577 54.2413C19.5858 55.2975 19.1576 55.0977 20.2139 56.1254L20.8705 56.8106C21.1274 57.1246 22.1837 58.3807 22.4406 58.5235C23.0116 57.4101 24.4104 56.2396 25.4667 55.5545C27.408 54.2413 29.0638 54.2413 29.806 53.8416L29.4063 53.6417C29.2922 53.6132 29.178 53.5561 29.0067 53.499C28.7212 53.4134 28.4643 53.2992 28.1788 53.2135C25.4953 52.2429 25.638 52.4998 24.4675 50.1018C23.4969 48.1034 22.4406 46.105 21.4129 44.1352C20.899 46.0194 19.8427 47.3612 17.8444 47.7608C16.2742 48.1034 14.8183 47.561 13.762 46.5618C13.4194 46.2763 13.2481 45.9338 12.9626 45.5626ZM16.2171 61.3497H18.6152C18.4153 61.0642 18.2155 60.8073 18.1298 60.5789L18.1869 60.5504C18.4153 60.3791 18.5866 60.322 18.6723 60.008C18.6723 60.0365 18.7008 60.0365 18.7008 60.0365L18.9577 60.322C19.0434 60.4647 19.1005 60.5504 19.2147 60.6931L19.7 61.3497H21.0988C21.1559 61.207 21.1845 61.0928 21.213 60.9786L21.8696 59.3799C21.6698 59.1515 21.5842 59.0373 21.3272 58.7804C21.0132 58.4664 19.8427 57.0675 19.6429 56.9819C19.5858 58.4093 18.815 59.6654 18.1013 60.2649C17.302 60.9501 16.7595 61.207 16.2171 61.3497ZM9.50832 61.3497H12.9055L12.5344 60.9786C11.7636 60.4076 11.3068 60.1222 10.7644 59.2657C9.47977 57.2103 10.3077 55.8114 10.5646 53.5561C9.25138 53.6417 9.50832 55.0406 9.50832 56.2396C9.50832 57.4957 9.50832 58.7519 9.50832 59.9794C9.50832 60.4362 9.47977 60.9215 9.50832 61.3497ZM35.1731 29.2902V25.7502H34.9161H27.6935C25.8378 25.7502 23.3256 26.0928 21.6698 26.8636C21.2416 27.0635 20.7848 27.2918 20.585 27.6059C20.3851 27.9484 20.3851 28.8049 20.4708 29.2617L35.1731 29.2902ZM35.1731 34.0006V30.2037H21.0418V34.0006H35.1731ZM35.1731 36.2559V34.9713H32.2041C32.2897 35.0284 33.6886 35.3139 34.6021 35.8848C34.7448 35.9705 34.8876 36.0561 35.0018 36.1418C35.0589 36.1703 35.116 36.2274 35.1731 36.2559ZM35.1731 43.9068V37.7119C34.231 36.57 32.7179 35.8277 31.0336 35.9419C28.4357 36.1132 26.2946 38.3685 26.4944 41.1948C26.6943 43.7641 28.9496 45.9052 31.7758 45.7054C33.1176 45.5912 34.3452 44.9346 35.1731 43.9068ZM35.1731 48.1891V45.2771C34.8305 45.5341 34.4594 45.8196 34.1168 45.9908C33.5458 46.3049 32.775 46.5618 32.0328 46.6475C32.2612 46.8473 34.6021 47.9321 35.1731 48.1891ZM35.1731 54.7266V53.2706C34.2024 53.5561 33.2032 53.8416 32.775 53.9558C32.9749 54.07 34.231 54.3554 34.9161 54.6409C35.0018 54.6695 35.0874 54.698 35.1731 54.7266ZM35.1731 57.8383V55.7828C33.5744 55.0406 31.6902 54.698 30.0344 54.9264C28.607 55.0977 27.5507 55.4403 26.4659 56.0398C24.3819 57.2103 22.8403 59.123 22.1266 61.3497H24.0108C25.1241 58.7233 27.6078 56.9248 30.4912 56.6678C32.2326 56.5251 33.8599 56.9819 35.1731 57.8383ZM35.1731 61.3497V59.0088C33.8599 57.9811 32.1755 57.4101 30.2628 57.667C27.9218 57.9811 26.0377 59.3799 25.067 61.3497H35.1731Z" fill="white"/>
<path class="hover_red" fill-rule="evenodd" clip-rule="evenodd" d="M6.93684 61.3499C6.90829 60.4935 6.93684 59.6085 6.93684 58.7235C6.93684 57.3817 6.85119 55.6688 6.96538 54.3842C7.07958 52.9568 7.70764 52.3573 8.56408 51.5865L6.62281 49.0742C6.28023 48.646 5.9662 48.2749 5.62362 47.8181C3.91074 45.6199 3.25413 42.8793 5.08121 40.5098C5.39524 40.1101 5.39524 40.2243 5.59508 39.9388C5.36669 39.5677 5.39524 39.739 5.2525 39.1395C4.99557 38.1118 5.13831 37.3981 5.73782 36.5131C6.19459 35.8565 7.30796 34.6574 7.87892 34.1436C8.9352 33.23 10.5339 31.6313 12.1326 31.6313C12.7607 31.6313 13.56 31.8312 13.8455 32.1737C14.5306 31.8597 15.1587 30.7463 17.8708 30.8605C17.8993 29.2047 17.6138 27.3777 18.4703 26.1786C19.8977 24.1517 23.5233 23.5237 26.0355 23.2096C26.5208 23.1526 32.4588 23.1526 35.1709 23.1811V21.3826C29.5755 21.4397 24.0942 21.8393 18.7272 22.6101C13.1603 23.3809 7.70764 24.5229 2.36914 26.0074L2.42624 61.3499H6.93684Z" fill="white"/>
<path d="M39.8301 62.5202V20.1834C39.8301 19.5268 40.3439 19.0129 41.0006 19.0129C47.0813 19.0129 53.0764 19.4412 58.9573 20.2405C64.9524 21.097 70.8048 22.3245 76.4858 23.9518C77.0568 24.123 77.3994 24.6369 77.3423 25.1793L77.3137 62.5202C77.3137 63.1769 76.7713 63.7193 76.1147 63.7193H41.0006C40.3439 63.7193 39.8301 63.1769 39.8301 62.5202Z" fill="black"/>
<path d="M39.8301 115.049V67.1736C39.8301 66.517 40.3439 65.9746 41.0006 65.9746H76.1147C76.7713 65.9746 77.3137 66.517 77.3137 67.1736C77.3137 67.2022 77.3137 67.2307 77.3137 67.2878V68.2585C77.3137 84.3596 73.5454 95.008 67.1506 102.345C60.7558 109.682 51.7632 113.593 41.286 116.191C40.658 116.362 40.0014 115.962 39.8586 115.334C39.8301 115.249 39.8301 115.134 39.8301 115.049Z" fill="black"/>
<path d="M37.4837 67.199V115.074C37.4837 115.16 37.4837 115.274 37.4551 115.36C37.2838 115.988 36.6558 116.387 36.0277 116.216C25.522 113.618 16.5579 109.707 10.1346 102.37C3.7398 95.0334 0 84.385 0 68.2838V67.3132C0 67.2561 0 67.2276 0 67.199C0 66.5424 0.513866 66 1.17047 66H36.2846C36.9412 66 37.4837 66.5424 37.4837 67.199Z" fill="black"/>
<path d="M4.19811 12.9323C3.5415 13.1036 2.91344 12.7325 2.74215 12.1044C2.57087 11.4478 2.94199 10.8197 3.57005 10.6484C9.56515 9.04975 15.4746 7.82218 21.327 6.99429L21.6695 6.93719C21.8408 5.73817 22.0692 4.62479 22.2691 3.65416C16.8449 4.48205 11.3922 5.68107 5.8539 7.22267C5.22584 7.39396 4.56923 7.05138 4.39794 6.39478C4.22666 5.76672 4.59778 5.13866 5.22584 4.93882C10.9355 3.34013 16.588 2.11256 22.1263 1.28466C27.7217 0.45677 33.2315 0 38.6842 0C44.1369 0 49.6467 0.45677 55.2136 1.28466C60.7804 2.11256 66.4044 3.34013 72.114 4.93882C72.7707 5.13866 73.1418 5.76672 72.9419 6.39478C72.7707 7.05138 72.114 7.39396 71.486 7.22267C65.9762 5.68107 60.495 4.48205 55.0994 3.65416C55.2992 4.62479 55.4991 5.73817 55.6989 6.93719L56.0415 6.99429C61.8653 7.82218 67.8033 9.04975 73.7698 10.6484C74.3979 10.8197 74.7976 11.4478 74.6263 12.1044C74.455 12.7325 73.7984 13.1036 73.1703 12.9323C67.4036 11.3907 61.694 10.1917 56.0415 9.39233C56.1842 10.5057 56.2984 11.6191 56.3555 12.6183L56.8979 12.6754C63.0358 13.5318 69.2307 14.7594 75.5113 16.3295C76.1393 16.5008 76.539 17.1574 76.3677 17.7855C76.1964 18.4135 75.5684 18.8132 74.9403 18.6419C68.7168 17.0718 62.6075 15.8442 56.5553 15.0449C50.6459 14.217 44.6508 13.7887 38.6842 13.7887C32.7177 13.7887 26.694 14.217 20.7846 15.0449C14.7609 15.8442 8.62306 17.0718 2.42812 18.6419C1.80007 18.8132 1.14346 18.4135 1.00072 17.7855C0.829431 17.1574 1.2291 16.5008 1.85716 16.3295C8.1092 14.7594 14.3327 13.5318 20.4705 12.6754L21.0129 12.6183C21.07 11.6191 21.1842 10.5057 21.327 9.39233C15.6744 10.1917 9.96482 11.3907 4.19811 12.9323ZM52.5586 3.31158C47.9053 2.68352 43.2519 2.36949 38.6842 2.36949C34.088 2.36949 29.4632 2.68352 24.7813 3.31158C24.5529 4.16802 24.3245 5.30995 24.1247 6.62316C29.035 6.02365 33.8881 5.70962 38.6842 5.70962C43.4803 5.70962 48.3335 6.02365 53.2437 6.62316C53.0154 5.30995 52.787 4.16802 52.5586 3.31158ZM53.6149 9.04975C48.5904 8.42169 43.5945 8.07911 38.6842 8.07911C33.7454 8.07911 28.778 8.42169 23.7536 9.04975C23.6108 10.1917 23.4681 11.3051 23.3824 12.3042C28.5496 11.7047 33.6597 11.4192 38.6842 11.4192C43.7087 11.4192 48.8188 11.7047 53.9575 12.3042C53.8718 11.3051 53.7576 10.1917 53.6149 9.04975Z" fill="black"/>
<path fill-rule="evenodd" clip-rule="evenodd" d="M61.5795 73.2543L61.4367 73.4541C61.6366 73.6825 68.0599 78.3644 68.2883 78.45C68.4596 78.2787 68.5452 78.1645 68.5452 77.9647C68.5167 77.7649 68.431 77.7078 68.2312 77.5365L62.2361 73.1686C61.9791 72.9973 61.7508 72.9973 61.5795 73.2543ZM59.8951 75.3668C59.4098 75.9663 59.4669 75.8236 60.9514 76.9084C62.2075 77.822 63.4636 78.7355 64.7198 79.649C65.2622 80.0487 66.0901 80.791 66.6325 80.9337L66.9465 80.5055C66.7467 80.1344 66.6039 80.1058 66.2043 79.8203L61.6937 76.5373C61.2654 76.2233 60.2948 75.3668 59.8951 75.3668ZM60.7801 74.2535C60.3805 74.7959 60.3519 74.596 61.865 75.7094C62.7499 76.3375 67.1464 79.6205 67.4604 79.6776C68.0599 79.0495 67.5175 78.9068 66.5468 78.1931C65.776 77.6221 61.7793 74.6531 61.2083 74.3105C61.0371 74.1964 60.9514 74.2535 60.7801 74.2535ZM58.2108 98.1768C58.3535 98.1482 58.5248 97.8627 58.639 97.6914L46.1064 88.5275C45.5069 89.2412 45.564 89.0128 46.6774 89.8693C49.161 91.8105 52.3013 94.0087 54.8992 95.9215C55.3274 96.2069 57.9539 98.1768 58.2108 98.1768ZM58.011 92.0389C58.325 92.3815 59.21 92.9525 59.6382 93.2379C60.0093 93.5234 60.723 93.5805 61.1513 93.6947C61.4938 93.2665 62.7499 91.782 62.9212 91.4109L60.0093 89.2983L58.011 92.0389ZM49.104 84.9304C49.3894 85.3016 49.6178 85.9582 50.0175 86.2437C50.3886 86.5291 51.3022 87.2428 51.7018 87.4427L53.2434 85.3301C53.8715 84.4451 54.1284 85.0446 50.7312 82.561C50.4743 82.7893 49.3894 84.5022 49.104 84.9304ZM62.9498 71.5699L62.4645 72.3407C62.6643 72.5691 67.8886 76.3089 68.688 76.9084C68.745 76.937 68.9163 77.0797 68.9449 77.1083C69.0876 77.1654 69.0591 77.3081 69.3446 76.6229C69.4587 76.2518 69.2589 75.9663 69.002 75.3668C68.8878 75.1099 68.8307 74.7959 68.6023 74.596C68.1741 74.2249 65.1194 71.9696 64.7769 71.8554C64.4914 71.7983 63.1496 71.5128 62.9498 71.5699ZM51.6733 82.2755C55.1276 84.8448 58.9245 87.5569 62.4074 90.0977L62.8927 90.4402C62.8641 90.2689 62.8356 90.012 62.7785 89.8407C62.7214 89.6123 62.6929 89.4125 62.6358 89.1841C62.4645 88.499 62.6929 88.7273 61.6651 87.9851C60.5232 87.1572 54.2997 82.5324 53.6146 82.1327C53.3576 81.99 51.9873 82.1898 51.6733 82.2755ZM52.3584 87.928L57.3544 91.5536L59.2956 88.8701L54.3283 85.2159L52.3584 87.928ZM47.2769 86.0724C47.077 86.3578 46.3062 87.4141 46.3062 87.6425C46.3348 87.7567 46.192 87.614 46.4204 87.7853L52.8152 92.4671C55.0134 94.0658 57.2116 95.636 59.3813 97.2632L60.6088 95.8073C60.2663 95.4076 59.9522 94.8652 59.6382 94.3799C59.2671 93.866 58.5534 93.4378 58.011 93.0381L50.7597 87.7567C50.1888 87.3285 49.5893 86.7575 48.9612 86.5862C48.3903 86.4149 47.8193 86.2722 47.2769 86.0724ZM55.0991 82.2184L61.8935 87.1857C62.2361 86.7575 62.6643 86.1295 63.0069 85.6727C63.378 85.1588 63.7491 84.645 64.1203 84.1311L65.8046 81.9043C66.0044 81.5903 65.8617 81.4476 65.6048 81.2477L59.524 76.8228C59.0387 76.4802 58.9245 76.8799 58.3535 77.7078L55.0991 82.2184ZM70.8291 68.344H68.4596C67.546 69.2575 68.431 68.8864 67.5746 70.0569C67.3176 70.4566 67.3747 70.3709 67.0036 70.5137C66.7181 70.5993 66.661 70.5422 66.4327 70.8848C66.2614 71.1417 66.0615 71.3701 65.8902 71.627L68.6594 73.6539C69.2018 72.9402 69.3446 72.8831 69.3446 72.2836C69.3446 71.9982 69.3446 71.9696 69.5729 71.6556C69.8013 71.313 69.8299 71.2274 70.1439 71.0561C70.772 70.7135 70.6863 70.7991 71.0289 70.114C71.1716 69.8285 71.2858 69.0577 71.3144 68.8008C71.2287 68.7151 71.0574 68.5438 70.8291 68.344ZM42.1953 99.0618V99.3758L44.3935 101.032L43.8797 101.974L44.5648 102.744L44.2508 103.23L45.1929 103.915L45.564 103.458C45.8495 103.601 46.2491 103.858 46.5346 103.886L47.2198 103.116L48.4188 103.943C46.3062 106.77 45.1358 105.057 43.6227 104.029L43.1945 104.886C44.7075 105.999 45.5069 106.97 47.1056 106.713C48.3332 106.513 49.3894 105.143 50.3315 103.972L51.2451 104.058L55.8984 97.6344C55.67 97.3774 47.3054 91.2967 46.9914 91.1539L42.2524 97.5202L42.6235 98.3766L42.1953 99.0618Z" fill="white"/>
<path class="hover_red" fill-rule="evenodd" clip-rule="evenodd" d="M42 106.397L43.2847 107.339C44.3409 108.11 45.0546 108.453 46.1395 108.51C47.8524 108.595 49.5652 107.71 51.0783 105.798L52.0775 105.883L56.6737 99.5171L58.5294 100.773L59.2431 99.8026L59.4714 99.9453L63.0114 95.5489C62.8687 95.3776 62.5546 95.0065 62.4975 94.7781L65.124 91.438C65.124 91.3238 65.0669 91.0098 65.0383 90.8956C64.9812 90.6672 64.9527 90.5816 64.9241 90.3246L64.2675 87.2985C64.2104 87.1272 64.1533 87.1272 64.1819 86.9845C64.1819 86.9845 67.1223 82.9307 67.3222 82.7879C67.4649 82.7023 67.3793 82.845 67.5791 82.5881C67.8931 82.1884 68.8638 80.8466 69.0065 80.5612C69.1492 80.2471 70.0342 78.991 70.3483 78.5913C70.8336 77.9062 70.5196 78.2773 70.6623 77.9633C70.7765 77.6778 71.4331 76.8785 71.6615 76.5644C71.5758 76.4788 70.5767 74.0237 70.6337 73.8809C70.805 73.6811 71.1762 73.2243 71.2333 72.9959C71.2904 72.7104 71.0905 72.4821 71.4331 72.2822C72.3181 71.7684 72.1182 71.9111 72.6036 70.9119C73.0603 69.9413 72.9461 70.2268 73.1174 69.1705C73.1745 68.7993 73.2316 68.3997 73.3173 68H74.7447C74.7161 83.416 71.1762 93.5506 65.1811 100.459C59.4429 107.025 51.4209 110.679 42 113.192V106.397ZM42 68V93.7504L44.3695 90.5245L42.5995 89.1541L43.3132 88.1835L43.1134 88.0122C43.4845 87.4127 45.9682 83.4731 46.1966 83.3018L47.0816 83.5587L49.4796 79.9902L53.4192 79.5905C53.7618 79.562 53.9046 79.6476 53.9902 79.562L56.8736 75.5652C57.0734 75.2798 57.0163 75.3083 57.0449 75.1941C57.0449 75.1656 57.0163 75.2227 57.1019 75.0514L60.385 70.7406C60.5277 70.655 60.4706 70.7692 60.6419 70.5979C60.9274 70.2838 61.3271 69.6272 61.6125 69.2561C61.9266 69.3132 63.2683 69.3418 63.7537 69.3703C63.982 69.3703 64.2961 69.3703 64.4674 69.3989C64.6386 69.1705 64.8956 68.7708 65.0669 68.5995C65.2382 68.4282 65.5236 68.3997 65.752 68.2855C65.7806 68.1713 65.8091 68.0856 65.8377 68H42Z" fill="white"/>
<path d="M63.0354 51.6436C62.4359 52.1289 63.1211 53.1281 63.7777 52.5857C64.3772 52.1575 63.6635 51.1298 63.0354 51.6436ZM65.0338 53.956C64.4057 54.4984 65.2336 55.412 65.8331 54.8696C66.3756 54.3842 65.6619 53.4136 65.0338 53.956ZM66.1472 57.0107C65.5762 57.5531 66.4041 58.4666 67.0036 57.8671C67.546 57.3532 66.7467 56.4112 66.1472 57.0107ZM60.7801 57.8671C60.1806 58.4381 60.98 59.3231 61.608 58.7806C62.179 58.2668 61.3796 57.3247 60.7801 57.8671ZM47.6195 39.4821C47.0485 40.1102 47.9906 40.9095 48.533 40.31C49.0183 39.7391 48.1904 38.8826 47.6195 39.4821ZM49.1325 36.7415C48.5044 37.2839 49.3038 38.1975 49.9318 37.6836C50.5314 37.1412 49.732 36.1991 49.1325 36.7415ZM45.7924 46.505C44.993 47.1901 46.0208 48.3606 46.8201 47.704C47.5624 47.1045 46.6203 45.7913 45.7924 46.505ZM57.5542 51.1583C57.3544 51.3296 57.2973 51.4438 57.2402 51.6722C57.0974 52.3288 57.8968 52.9283 58.5248 52.4144C59.2671 51.8149 58.3821 50.5017 57.5542 51.1583ZM45.25 54.4128C44.4792 55.1836 45.6496 56.2399 46.3633 55.5262C47.0485 54.841 46.0208 53.6134 45.25 54.4128ZM53.3291 44.6208C52.5583 45.363 53.6716 46.4479 54.4139 45.7342C55.1561 45.0205 54.0713 43.85 53.3291 44.6208ZM52.5868 57.0963C51.7018 57.7244 52.6439 59.0376 53.5289 58.381C54.2997 57.81 53.4433 56.4968 52.5868 57.0963ZM60.409 57.182C61.0656 56.6966 61.9221 56.9536 62.2932 57.496C62.807 58.1811 62.5501 59.0661 62.0362 59.4373C60.5517 60.5221 58.8389 58.3239 60.409 57.182ZM62.6643 50.9585C63.3495 50.5017 64.1774 50.7872 64.5485 51.3296C65.0338 52.0433 64.7483 52.8997 64.1774 53.2709C62.6643 54.27 61.0942 52.0147 62.6643 50.9585ZM65.7189 56.3541C66.4041 55.8116 67.2891 56.0686 67.6888 56.611C68.2026 57.2676 67.9457 58.124 67.4604 58.5237C66.0044 59.6656 64.263 57.496 65.7189 56.3541ZM47.2198 38.8255C47.8764 38.2546 48.7328 38.5115 49.1325 38.9968C49.7035 39.7105 49.4465 40.567 48.9612 40.9666C47.5909 42.1086 45.7353 40.0531 47.2198 38.8255ZM64.6912 53.2423C65.3764 52.7855 66.2328 53.071 66.6039 53.6705C67.0607 54.4128 66.7467 55.2407 66.1472 55.6118C64.6341 56.5539 63.1211 54.27 64.6912 53.2423ZM48.8185 36.0278C48.1904 36.3989 47.9049 37.1697 48.3046 37.912C49.2181 39.5107 51.6733 38.1118 50.7026 36.4846C50.3601 35.8851 49.5036 35.571 48.8185 36.0278ZM52.073 56.5253C53.7002 55.2121 55.6129 57.6958 54.0142 58.9805C53.2434 59.58 52.2728 59.3231 51.816 58.7521C51.188 57.9528 51.4449 57.0107 52.073 56.5253ZM52.9294 43.9356C53.7002 43.3076 54.6708 43.6216 55.1276 44.2211C55.6986 44.9919 55.4131 45.9625 54.8421 46.3908C53.2434 47.6754 51.2451 45.2774 52.9294 43.9356ZM44.8503 53.7276C45.6211 53.0996 46.5917 53.4136 47.0485 54.0131C47.648 54.7839 47.3625 55.7545 46.763 56.2113C45.1643 57.4674 43.1945 55.0694 44.8503 53.7276ZM45.4212 45.7913C46.192 45.2488 47.1627 45.5629 47.5909 46.1909C48.1619 46.9903 47.8478 47.9324 47.2198 48.3891C45.5354 49.5596 43.6798 47.0474 45.4212 45.7913ZM57.0689 50.5588C57.8682 49.9307 58.8389 50.2448 59.2956 50.9014C60.5232 52.5857 57.9253 54.3842 56.7263 52.6999C56.1839 51.9291 56.4979 50.987 57.0689 50.5588ZM58.639 34.6004C58.9816 34.2578 59.6382 34.5719 59.8666 34.8002C60.2663 35.1714 60.5232 35.6281 60.2092 36.0278C59.6667 36.7415 59.0958 37.3981 58.5248 38.1118C58.3821 38.3117 58.2393 38.5115 57.9539 38.4544C57.8968 38.4258 57.44 38.226 57.4115 38.1689C57.1831 37.9691 56.9832 36.9699 56.9832 36.713C57.0118 36.4846 58.4677 34.7717 58.639 34.6004ZM64.8054 39.5678C65.148 39.2823 65.776 39.6249 66.0044 39.8247C66.1757 39.9674 66.3756 40.2529 66.4326 40.4813C66.5468 40.7668 66.4612 40.881 66.2899 41.0808C65.9759 41.4519 65.7189 41.766 65.4335 42.1371C64.9481 42.7366 64.8625 42.9935 64.4343 42.9935C64.0061 43.0221 63.3495 43.0792 63.1211 42.8508C62.5216 42.3084 62.6358 42.1371 63.0354 41.6518C63.3495 41.2807 64.5199 39.7962 64.8054 39.5678ZM49.3323 50.9014L50.046 52.9854C50.2173 53.0425 52.1015 53.4136 52.1871 53.3851C52.3299 53.3851 53.5004 51.9576 53.6716 51.7293L52.9294 49.6167C52.5297 49.6167 50.9881 49.217 50.7883 49.2741C50.6456 49.3027 49.5607 50.673 49.3323 50.9014ZM48.4759 50.7586C48.8185 50.4731 50.3315 48.5033 50.5314 48.4748C50.617 48.4462 53.272 48.9315 53.4718 49.0172L54.4995 51.9006C54.1855 52.2146 52.6439 54.1559 52.4726 54.1844C52.3013 54.2129 49.9318 53.6705 49.5322 53.6705L48.4759 50.7586ZM49.6464 48.6461C48.3332 49.5882 47.648 51.5009 48.8185 53.2138C49.7035 54.4984 51.6733 55.155 53.3291 54.0417C54.6423 53.1567 55.3274 51.1583 54.1855 49.5025C53.272 48.1893 51.3022 47.4756 49.6464 48.6461ZM49.418 47.8753C51.4734 46.6192 53.9 47.5041 54.9563 49.2741C56.2124 51.3296 55.3274 53.7562 53.586 54.7839C51.502 56.0686 49.0754 55.1836 48.0191 53.4136C46.763 51.3296 47.648 48.9601 49.418 47.8753ZM55.0134 36.4846C55.1847 36.7986 55.0991 36.8272 54.9849 37.4267C54.9278 37.7692 54.8707 38.0547 54.8136 38.3973C54.6423 39.3394 54.3854 39.7962 54.9563 40.31C55.1276 40.4528 55.5558 40.881 55.7271 40.9666C56.4979 41.4234 56.869 41.3663 58.1822 42.394C60.0093 43.7929 60.6659 45.0776 61.0371 45.3345C62.179 46.1624 61.865 46.0767 64.1203 45.1917C64.6341 44.9634 64.7769 44.8777 65.2622 44.8492C65.6333 45.8198 65.3478 45.5343 66.1186 46.1338C66.6325 46.5335 69.4587 48.903 69.5729 48.9315C69.9155 49.0172 70.4294 48.2178 70.6292 47.9609C71.2858 47.133 72.0566 46.4193 71.9995 45.4772C71.9995 44.7921 71.5713 44.7064 71.1431 44.2782C70.4008 44.5637 70.3152 44.2782 70.1154 44.3639C70.0012 44.4209 69.6586 45.0205 69.5158 45.1632L67.2605 43.7072C66.4897 44.2782 67.2891 44.1926 65.7189 44.3639C64.8911 44.478 64.0061 44.5351 63.1782 44.4495C62.807 44.4209 62.7214 44.3639 62.4645 44.1926C61.3796 43.5931 60.723 42.4797 61.294 41.2807C61.4082 41.0808 63.064 39.0825 63.3495 38.7113C63.949 37.9691 63.2924 37.1126 62.4074 36.7986C61.608 36.5417 61.2369 37.341 60.5517 38.1975C60.1806 38.6257 59.8666 39.0254 59.4955 39.4821C59.1243 39.9389 58.325 40.1102 57.7826 40.0245C57.2687 39.9389 56.869 39.7391 56.4123 39.3108C55.8413 38.7399 55.7842 38.4258 55.6415 37.6265C55.5273 37.027 55.4702 36.4275 55.4131 35.8565C55.2418 34.2864 55.4987 35.0001 55.7271 34.3149L53.9 32.3736C54.0428 32.0882 54.3854 31.8598 54.5566 31.5743C54.1284 30.6893 54.8136 30.1469 54.157 30.0327C52.3584 29.6901 51.9873 30.518 50.7883 32.0025C49.9033 33.0874 49.8748 32.8304 51.1023 33.8296C51.502 34.1722 51.9588 34.5148 52.3299 34.8573L54.2141 36.3704C54.4139 36.456 54.785 36.5131 55.0134 36.4846ZM54.9563 32.3166L56.7834 34.2864C56.1268 35.0572 56.0982 35.0572 56.1553 35.6281C56.2124 36.1705 56.2695 36.7415 56.3837 37.3125C56.5265 38.0833 56.5265 38.3973 57.126 38.8826C57.4971 39.1966 58.011 39.4536 58.639 39.1395C58.9816 38.9968 60.3805 37.1697 60.6945 36.7701C61.0656 36.3133 61.4367 35.9422 62.1504 35.9707C63.2924 36.0278 64.3201 37.0841 64.3772 38.0833C64.4057 38.6542 64.1488 38.9968 63.7777 39.4536L62.2932 41.2521C62.0362 41.5947 61.9791 41.5661 61.8935 41.9373C61.7793 42.5368 62.1219 43.0221 62.5787 43.3647C63.1211 43.7643 63.3209 43.7072 64.0346 43.7072C64.577 43.7072 65.1765 43.6501 65.6904 43.5931C66.7752 43.4789 66.2328 43.5074 67.0607 42.7366L67.3462 42.8794C67.803 43.1648 69.002 43.85 69.2875 44.1069C69.7442 43.7358 69.4302 43.7358 70.1725 43.5931C70.5436 43.5074 70.9433 43.4789 71.2858 43.3647C71.2002 42.8223 71.3429 42.9079 71.0574 41.9087C70.6292 40.3957 69.6586 38.9397 68.7165 37.7407C65.8331 34.1436 60.095 29.9185 55.4987 30.1754C55.4416 30.4038 55.4987 31.0604 55.4987 31.3459C55.5273 31.6885 55.2132 32.1167 54.9563 32.3166ZM61.0656 61.35H62.2932C62.2646 60.8932 61.7222 60.465 61.294 60.8932C61.1513 61.0074 61.0942 61.093 61.0656 61.2643C61.0656 61.2929 61.0656 61.3214 61.0656 61.35ZM42.1953 57.8671V58.695C42.4522 58.4666 42.3951 58.0955 42.1953 57.8671ZM42.1953 55.5262V56.925C42.4522 57.0107 42.6806 57.182 42.8234 57.3818C43.3943 58.0955 43.1374 58.9234 42.6235 59.3516C42.4808 59.4658 42.3381 59.5514 42.1953 59.58V61.35H46.9914C47.3625 61.1787 47.7622 61.1787 48.1048 61.35H49.5607C48.8756 61.2072 48.1619 61.0074 47.4482 60.7219C46.7916 60.465 45.6782 59.7513 45.1072 59.2945C44.0795 58.4381 43.223 57.496 42.4808 56.1257C42.3951 55.9258 42.281 55.726 42.1953 55.5262ZM42.1953 49.8736V52.8426C42.3381 53.8418 42.6806 54.8696 43.223 55.8402C45.564 60.151 51.1309 62.235 55.9555 59.6371C60.2663 57.3247 62.4074 51.7007 59.7809 46.8761C57.3258 42.3655 51.6162 40.5384 46.9914 43.0792C44.3079 44.5351 42.6235 47.1045 42.1953 49.8736ZM42.1953 43.3361V44.5637C42.3095 44.5351 42.4237 44.5066 42.5093 44.3924C42.9661 44.0213 42.6235 43.3932 42.1953 43.3361ZM42.1953 40.4813V41.3378C42.4522 41.0808 42.3951 40.7097 42.1953 40.4813ZM42.1953 37.2554V38.2831C42.4237 38.4258 42.7377 38.4258 42.9947 38.1689C43.4514 37.655 42.7377 36.8557 42.1953 37.2554ZM42.1953 36.0564V36.3989C42.7377 36.2562 43.3372 36.5417 43.6227 36.9413C44.1366 37.6265 43.8797 38.4544 43.3943 38.8541C42.9947 39.1681 42.5664 39.2252 42.1953 39.1395V39.5963C42.4808 39.682 42.7092 39.8818 42.8805 40.1102C43.3658 40.7953 43.1089 41.6803 42.5664 42.0515C42.4237 42.1371 42.3095 42.1942 42.1953 42.2513V42.5653C42.595 42.5939 42.9661 42.7937 43.1945 43.0792C43.7369 43.7358 43.5085 44.5922 42.9947 45.0205C42.7377 45.2203 42.4522 45.3345 42.1953 45.3345V47.2187C43.1089 45.1347 44.4506 43.5931 46.6774 42.3655C47.9906 41.6232 49.6178 41.2236 50.9881 41.1665C54.8992 40.9666 58.5819 43.0221 60.4661 46.5335C61.9221 49.1885 61.9506 51.872 61.1798 54.527C61.0942 54.8125 60.9514 55.0979 60.8372 55.3549C60.5803 56.0971 59.9808 57.0678 59.4669 57.6958C57.8397 59.6656 55.7842 60.8932 53.586 61.35H60.2663C60.2663 60.9218 60.4661 60.465 60.9514 60.151C61.6366 59.7227 62.493 60.0082 62.8641 60.6077C63.0069 60.8361 63.064 61.093 63.064 61.35H66.2899C66.6896 60.7505 67.0322 60.151 67.3747 59.5229L67.9457 58.3524C68.7736 56.5824 69.2875 53.9275 69.3446 51.9576L69.316 49.8736C69.2875 49.6167 69.0591 49.5596 68.8592 49.3883L65.1765 46.3908C64.8911 46.1338 64.8911 46.2195 64.7483 45.7627C62.2361 46.7904 62.2075 47.133 60.6088 45.9911C59.6953 45.363 59.3527 43.7072 56.1268 42.0229C55.9555 41.9373 55.8984 41.8802 55.7271 41.8231C55.0991 41.5947 55.0705 41.4519 54.5281 40.9666C53.7858 40.31 53.7573 39.8533 53.9 39.0254C54.0142 38.4258 54.1284 37.7978 54.2426 37.1697C53.7573 37.0555 54.0713 37.2839 53.4718 36.7986C53.2149 36.5988 52.9865 36.3989 52.7867 36.1991C52.2157 36.5131 51.6162 36.5988 51.1023 36.1705C50.4743 35.6852 50.5028 35.0857 50.6456 34.4862C50.5599 34.4006 49.6749 33.6583 49.6178 33.6298C49.4751 33.5441 49.4465 33.5727 49.2752 33.6012C46.6203 34.0009 44.3079 34.7717 42.1953 36.0564Z" fill="white"/>
<path class="hover_orange" d="M42.1953 21.3826V33.6868C43.5371 33.0016 44.9645 32.4307 46.5346 32.031C46.7345 31.9739 47.5624 31.8312 47.648 31.7455C47.7336 31.6884 47.8478 31.403 47.9049 31.3173C47.9906 31.1746 48.1048 31.0604 48.1904 30.9462C48.9041 30.0326 49.9318 28.6338 51.0452 27.9772C51.7875 27.549 52.5583 27.3777 53.3005 27.3491C55.2418 27.292 54.0713 27.6061 55.2989 27.5775C59.4098 27.4919 62.7785 29.2333 66.033 31.6028C68.0028 33.0873 70.2866 35.1998 71.8568 37.5979C73.8837 40.7096 73.8837 42.9935 74.055 43.3361C74.1977 43.593 74.2548 43.4217 74.369 43.8214C74.5974 44.7635 74.7687 45.5057 74.5974 46.4478C74.2834 48.1036 73.1415 49.1884 71.9995 50.5873C71.5142 51.1868 71.4286 50.9299 71.4286 51.3581C71.4571 54.8124 70.4865 58.2953 68.7451 61.3499H74.94L74.9685 26.0074C69.6586 24.5229 64.2059 23.3809 58.639 22.6101C53.272 21.8393 47.7622 21.4397 42.1953 21.3826Z" fill="white"/>
<path fill-rule="evenodd" clip-rule="evenodd" d="M24.4401 69.0291L12.3071 74.7959C12.6783 74.7673 13.4776 74.4818 13.9058 74.3676C14.4768 74.1964 15.0192 74.0536 15.5902 73.8823C16.675 73.5683 17.7884 73.2543 18.8732 72.9117C19.2729 72.7975 22.3275 70.5707 23.0698 70.0283C23.4695 69.7714 24.1832 69.3146 24.4401 69.0291ZM24.6399 99.5185L30.4637 112.137C29.8928 111.937 29.3218 111.766 28.7794 111.566L23.4695 100.061L24.6399 99.5185ZM35.1742 113.536V108.112L30.007 96.9777L27.6375 98.0911L34.7174 113.393L35.1742 113.536ZM35.1742 106.484V98.1197L33.8039 95.1792L30.635 96.6637L35.1742 106.484ZM35.1742 92.1246V89.0699C34.6889 88.9843 34.489 89.1841 33.9181 89.3554C32.976 89.6409 32.0053 89.8978 31.0633 90.1833C29.2076 90.7257 27.2093 91.2396 25.3536 91.8391V91.8105L25.3822 91.782C25.3536 91.6107 25.4678 91.8105 25.3536 91.7249C23.4695 92.3244 21.5567 92.8383 19.6726 93.3807C18.7305 93.6662 17.7313 93.9231 16.8177 94.2086C15.1905 94.751 15.5045 96.8636 16.9034 97.2061C17.4173 97.3203 17.7027 97.2061 18.2737 97.0348L32.4907 92.8954C33.3756 92.6384 34.2892 92.3815 35.1742 92.1246ZM24.0975 68.344H17.2174L9.13831 72.198C8.59589 72.4549 6.74027 73.2543 6.39769 73.5397C5.59834 74.1678 5.62689 75.9092 7.08284 76.1376C7.56816 76.1947 7.82509 76.1091 8.33896 75.8521C9.1954 75.4525 21.2142 69.7714 24.0975 68.344ZM31.3773 112.422C32.1766 112.679 33.0045 112.936 33.8324 113.165L27.0094 98.3766L25.268 99.233L31.3773 112.422ZM22.6416 85.9867C22.4988 85.9011 22.613 86.1009 22.613 85.9582C22.613 85.8154 22.7272 85.9867 22.6416 85.9011C21.6709 86.1295 20.7288 86.4435 19.7582 86.729C18.0168 87.2428 15.79 87.8424 14.0771 88.3848C12.4784 88.8986 12.6212 90.9255 14.1342 91.3538C14.5624 91.4965 14.9336 91.3823 15.476 91.211L24.0119 88.7273C26.7525 87.928 29.8071 87.0716 32.5478 86.2437C34.1179 85.7583 34.1464 83.76 32.5478 83.3317C32.091 83.2176 31.7199 83.3603 31.1774 83.503C30.2354 83.7885 29.2933 84.074 28.3512 84.3309L24.0404 85.587C23.6407 85.7012 23.0412 85.9296 22.6416 85.9867ZM19.7297 80.1915L19.8724 80.0773C17.9597 80.5911 16.0755 81.1621 14.1628 81.7045C13.2207 81.99 12.2501 82.2469 11.3365 82.5324C9.73782 83.0463 9.79491 85.0732 11.3936 85.53C11.8504 85.6727 12.193 85.53 12.7354 85.3872C13.6775 85.1017 14.6195 84.8162 15.5902 84.5593L27.0094 81.2192C27.923 80.9623 28.9221 80.7053 29.8357 80.3913C31.3773 79.906 31.3487 77.822 29.6929 77.4794C29.2362 77.3937 28.8365 77.565 28.3226 77.7078L22.613 79.3636C21.728 79.6205 20.6432 80.0202 19.7297 80.1915ZM17.0461 74.3391L17.0176 74.3105V74.282V74.2535C16.1326 74.4533 15.0763 74.8244 14.1628 75.0813C13.2207 75.3668 12.2786 75.6238 11.3365 75.9092C10.3944 76.1662 9.39524 76.4231 8.4817 76.7371C7.05429 77.2225 6.9972 79.1923 8.59589 79.7061C9.02411 79.8489 9.42379 79.7061 9.93765 79.5634L18.5021 77.0512C20.4148 76.5088 22.299 75.9378 24.2117 75.3954C25.1252 75.1384 26.1244 74.8815 27.038 74.5675C28.6938 74.0536 28.4654 71.9696 26.9809 71.6841C26.467 71.5699 26.1815 71.7127 25.6106 71.8554C22.8699 72.6833 19.7582 73.6254 17.0461 74.3391ZM19.3585 99.7755C23.3553 97.8627 27.4662 95.9786 31.4344 94.0373C31.2916 94.0087 31.1203 94.0944 30.9776 94.1229C30.8349 94.18 30.6636 94.2086 30.5208 94.2657L18.8161 97.6629C18.5021 97.7485 18.2166 97.8627 17.9026 97.9198C17.5314 98.034 17.3316 97.9769 17.0461 98.0055C16.989 98.5764 16.9605 99.2045 17.6171 99.6898C18.0739 100.032 18.6448 100.118 19.3585 99.7755ZM18.3879 92.9525C18.6448 92.9525 24.6399 91.1539 25.4393 90.9255C27.6089 90.2975 26.9238 90.6686 28.7509 89.3839C29.4075 88.9272 31.1774 87.614 31.7199 87.2999C31.4629 87.3285 28.6652 88.1564 28.1799 88.2991L22.8985 89.8407C22.3846 89.9835 21.7851 90.5259 21.3569 90.8114C20.843 91.1539 18.5877 92.667 18.3879 92.9525ZM15.5331 87.1572C15.7615 87.1286 18.5592 86.2722 19.0445 86.1295C20.215 85.8154 21.3854 85.4729 22.5845 85.1017C24.7256 84.5022 24.2117 84.8162 25.896 83.6172C26.3243 83.3317 28.7223 81.676 28.8365 81.5047C28.6081 81.5047 22.5845 83.3032 21.7851 83.5316C19.644 84.1596 20.2721 83.7885 18.4735 85.0446C17.5029 85.7583 16.5037 86.4435 15.5331 87.1572ZM12.7639 81.3334C13.1636 81.2763 20.5861 79.0495 21.5853 78.7641C22.0706 78.6213 22.6701 78.1074 23.1269 77.7934C24.0975 77.1083 25.1252 76.3946 26.0959 75.6809L22.5559 76.68C20.9572 77.1368 18.7876 77.7078 17.246 78.2216C16.8748 78.3358 14.7052 79.9345 14.2199 80.2771C13.7631 80.6197 13.1921 80.9623 12.7639 81.3334Z" fill="white"/>
<path class="hover_orange" fill-rule="evenodd" clip-rule="evenodd" d="M35.1724 82.8179V68.344H27.4644C27.2931 69.0577 26.9506 69.4859 26.8935 69.6287C29.0346 69.6287 31.5182 72.4264 29.6341 75.4239C30.0052 75.5096 30.0052 75.4525 30.5191 75.6238C30.8331 75.738 31.0044 75.7951 31.347 75.9949C32.546 76.7371 33.2311 78.1931 33.0313 79.5919C32.9457 80.3057 32.8029 80.6197 32.4032 81.2477C32.6316 81.3334 33.2882 81.3048 34.0876 81.8187C34.5158 82.1042 34.8869 82.4468 35.1724 82.8179ZM12.5052 68.344H2.42773C2.45628 83.76 5.9677 93.8946 11.9913 100.803C15.7311 105.085 20.4701 108.169 25.9514 110.452L21.5264 101.003C20.7271 101.374 19.785 101.917 18.9856 102.002C16.9587 102.231 15.1602 100.746 14.9889 98.7763C14.9318 98.2053 14.8747 98.5479 14.3894 97.8342C13.8755 97.1205 13.6471 96.2355 13.6757 95.4932C13.7328 94.4655 13.9897 94.2371 14.2752 93.6376L14.3037 93.5805C14.3037 93.552 14.3037 93.552 14.3037 93.552C13.7899 93.3807 13.4759 93.5234 12.6194 92.9525C11.4204 92.2102 10.7638 90.7828 10.9351 89.3839C11.0493 88.4704 11.3347 88.242 11.5631 87.7282C10.9922 87.5569 10.5354 87.5854 9.85024 87.1287C8.223 86.0438 7.68059 83.9313 8.56558 82.2755C8.65122 82.1327 8.73687 82.0185 8.79396 81.9043L8.50848 81.8472C7.02398 81.6189 5.79641 80.4769 5.45383 78.9353C5.254 78.0504 5.62512 78.5071 5.02561 77.9362C4.11207 77.0797 3.59821 75.6238 3.68385 74.4818C3.7124 73.7967 4.02643 73.083 4.51175 72.512C5.11126 71.7983 5.88206 71.5128 6.76705 71.0846L12.5052 68.344Z" fill="white"/>
</svg>
