<svg width="22" height="23" viewBox="0 0 22 23" fill="none" xmlns="http://www.w3.org/2000/svg">
<path d="M14.6658 11.5C14.6658 9.38299 13.0246 7.66636 10.9996 7.66636C8.97451 7.66636 7.33245 9.38299 7.33245 11.5C7.33245 13.617 8.97451 15.3336 10.9996 15.3336C13.0246 15.3336 14.6658 13.617 14.6658 11.5ZM16.6482 11.5C16.6482 14.7614 14.1193 17.4051 10.9996 17.4051C7.87984 17.4051 5.35097 14.7614 5.35097 11.5C5.35097 8.2386 7.87984 5.59489 10.9996 5.59489C14.1193 5.59489 16.6482 8.2386 16.6482 11.5ZM6.4474 5.36075C6.44751 5.63369 6.37019 5.90053 6.22523 6.12753C6.08026 6.35453 5.87417 6.53149 5.633 6.63604C5.39183 6.74059 5.12642 6.76803 4.87034 6.71489C4.61425 6.66175 4.37899 6.53042 4.19431 6.3375C4.00962 6.14458 3.8838 5.89874 3.83277 5.63107C3.78173 5.36339 3.80776 5.08591 3.90758 4.83371C4.00739 4.5815 4.1765 4.36591 4.39353 4.21418C4.61055 4.06245 4.86574 3.98141 5.12682 3.9813C5.47678 3.98147 5.81289 4.12684 6.0604 4.38549C6.30791 4.64413 6.4471 4.9949 6.4474 5.36075ZM15.4437 20.8607C16.5162 20.8097 17.0992 20.6229 17.4866 20.4651C18.0002 20.2561 18.3666 20.0071 18.7519 19.6049C19.1372 19.2027 19.3756 18.82 19.5747 18.2831C19.7257 17.8783 19.9044 17.2687 19.9531 16.1475C20.0065 14.9353 20.0171 14.5711 20.0171 11.5001C20.0171 8.42904 20.0056 8.06592 19.9531 6.85271C19.9043 5.73151 19.7243 5.12311 19.5747 4.71712C19.3748 4.1802 19.1366 3.79712 18.7519 3.39434C18.3671 2.99156 18.001 2.74224 17.4866 2.53414C17.0993 2.37627 16.5162 2.18951 15.4437 2.13854C14.2842 2.08279 13.9359 2.07166 10.9996 2.07166C8.06323 2.07166 7.71456 2.08371 6.55406 2.13854C5.48156 2.1896 4.8996 2.37774 4.51124 2.53414C3.99765 2.74224 3.6312 2.99212 3.24592 3.39434C2.86064 3.79656 2.62303 4.1802 2.42309 4.71712C2.27207 5.12192 2.09343 5.73151 2.04467 6.85271C1.99134 8.06592 1.98069 8.42904 1.98069 11.5001C1.98069 14.5711 1.99134 14.9343 2.04467 16.1475C2.09352 17.2687 2.27304 17.8781 2.42309 18.2831C2.62303 18.82 2.86117 19.2031 3.24592 19.6049C3.63067 20.0068 3.99765 20.2561 4.51124 20.4651C4.89845 20.623 5.48156 20.8098 6.55406 20.8607C7.7136 20.9165 8.06191 20.9276 10.9996 20.9276C13.9372 20.9276 14.2846 20.9165 15.4437 20.8607ZM15.5348 0.069644C16.7059 0.125396 17.5061 0.319516 18.2049 0.603796C18.9287 0.897368 19.5414 1.29122 20.1536 1.93025C20.7658 2.56928 21.1416 3.2108 21.4224 3.96741C21.6944 4.69844 21.8801 5.53454 21.9334 6.75878C21.9876 7.98496 22 8.37697 22 11.5C22 14.623 21.9876 15.015 21.9334 16.2412C21.8801 17.4656 21.6944 18.3016 21.4224 19.0326C21.1416 19.7887 20.7658 20.431 20.1536 21.0697C19.5414 21.7085 18.9287 22.1018 18.2049 22.3962C17.5048 22.6805 16.7059 22.8746 15.5348 22.9304C14.3613 22.9861 13.9869 23 10.9996 23C8.01219 23 7.63721 22.987 6.4643 22.9304C5.29315 22.8746 4.49346 22.6805 3.79418 22.3962C3.07088 22.1018 2.45776 21.7088 1.84552 21.0697C1.23328 20.4307 0.858297 19.7887 0.576687 19.0326C0.304756 18.3016 0.118191 17.4655 0.0657406 16.2412C0.0124092 15.0141 0 14.623 0 11.5C0 8.37697 0.0124092 7.98496 0.0657406 6.75878C0.11907 5.53444 0.304756 4.69798 0.576687 3.96741C0.858297 3.21126 1.23425 2.5703 1.84552 1.93025C2.45679 1.29021 3.07088 0.897368 3.7933 0.603796C4.49346 0.319516 5.29324 0.124476 6.46342 0.069644C7.63633 0.013892 8.01131 0 10.9987 0C13.986 0 14.3613 0.012972 15.5348 0.069644Z" fill="black"/>
</svg>
