<svg width="37" height="55" viewBox="0 0 37 55" fill="none" xmlns="http://www.w3.org/2000/svg">
<path d="M17.7026 9.51725V29.4806C17.7026 29.7902 17.4468 30.046 17.1372 30.046H0.579624C0.283472 30.046 0.0277042 29.7902 0.0277042 29.4806L0.00078128 11.873C-0.0126802 11.6172 0.148857 11.3749 0.404625 11.2942C3.08346 10.5269 5.85652 9.94802 8.68342 9.54417C11.4565 9.16725 14.2699 8.96533 17.1372 8.96533C17.4468 8.96533 17.7026 9.20764 17.7026 9.51725Z" fill="black"/>
<path fill-rule="evenodd" clip-rule="evenodd" d="M5.93782 24.7424C6.31474 24.6347 6.42243 24.4732 7.09551 24.4866L6.46282 23.7866C6.40897 23.7328 6.36859 23.6789 6.31474 23.6116C6.24744 23.5443 6.19359 23.5039 6.13974 23.4366C6.03205 23.3155 5.93782 23.2212 5.81667 23.0866C5.74936 23.3828 5.69552 23.7059 5.64167 24.002C5.58782 24.3385 5.53398 24.2847 5.93782 24.7424ZM12.7089 23.0732C11.807 23.3155 12.1705 24.5943 13.032 24.3924C13.3416 24.3116 13.6243 23.9616 13.5166 23.5578C13.4359 23.2482 13.0993 22.9789 12.7089 23.0732ZM6.82628 26.102C5.93782 26.3578 6.34167 27.6366 7.17628 27.4078C7.49935 27.327 7.78204 26.977 7.66089 26.5597C7.56666 26.2501 7.23012 25.9943 6.82628 26.102ZM7.80897 19.627C6.73205 19.8693 7.09551 21.4578 8.15896 21.2424C8.54935 21.1482 8.89934 20.7578 8.79165 20.2597C8.69742 19.8559 8.30704 19.5059 7.80897 19.627ZM14.7012 18.429C13.5974 18.577 13.8262 20.1924 14.9032 20.0713C15.9801 19.9366 15.7647 18.2809 14.7012 18.429ZM14.3782 16.4905H9.93588C9.98972 16.8674 10.2859 17.1905 10.6628 17.2444C10.757 17.2578 12.6955 17.2847 12.857 17.2444C12.9512 17.2309 13.0859 17.0694 13.2878 16.9347C13.5435 16.7732 13.7724 16.6655 14.0551 16.5847L14.3782 16.4905ZM6.86666 25.6308C5.34552 25.8462 5.69552 28.0808 7.17628 27.8654C7.7282 27.7981 8.22627 27.2597 8.13204 26.5866C8.03781 26.0347 7.52627 25.5366 6.86666 25.6308ZM14.607 17.9847C13.9609 18.0924 13.4089 18.6713 13.5301 19.452C13.6243 20.0847 14.2435 20.6232 14.9974 20.502C15.6301 20.4078 16.182 19.8155 16.0608 19.0482C15.9666 18.4155 15.3608 17.8636 14.607 17.9847ZM7.71474 19.1828C7.10897 19.3174 6.55705 19.9097 6.73205 20.7039C6.86666 21.3097 7.47243 21.8482 8.23973 21.6732C8.8455 21.552 9.39742 20.9597 9.23588 20.1655C9.10127 19.5597 8.4955 19.0078 7.71474 19.1828ZM7.71474 18.7655C6.88012 18.9001 6.13974 19.6809 6.31474 20.7039C6.44936 21.5251 7.23012 22.252 8.23973 22.1039C9.0878 21.9693 9.80126 21.1886 9.65319 20.1655C9.51857 19.3309 8.72435 18.604 7.71474 18.7655ZM6.74551 24.9578C5.83013 25.1058 5.04937 25.927 5.2109 27.0308C5.34552 27.9193 6.22051 28.7135 7.28397 28.5385C8.18589 28.4039 8.95319 27.5558 8.80511 26.4924C8.65704 25.5905 7.82243 24.7962 6.74551 24.9578ZM6.15321 17.1501C6.09936 17.0694 6.00513 17.0155 5.97821 16.8809C6.03205 16.7732 6.15321 16.7328 6.22051 16.6251C6.19359 16.5713 5.83013 16.1809 5.74936 16.127C5.30513 16.1674 3.70322 17.702 3.62245 18.079C3.63591 18.1463 4.03976 18.5636 4.0936 18.604C4.2686 18.4828 4.38975 18.1867 4.63206 18.6174L3.78399 19.4251C3.20515 19.9366 2.82822 20.3674 3.28591 21.3232C3.44745 21.6866 4.63206 23.127 4.98206 23.5443C5.06283 23.652 5.1436 23.7732 5.23783 23.8539L5.45321 22.6559C5.34552 22.5751 5.29167 22.5212 5.22436 22.427C4.71283 21.8078 3.83783 21.2424 4.12052 20.3539C4.25514 19.8963 4.78014 19.5732 5.11667 19.2501L6.73205 17.8232C7.12243 17.4463 7.67435 16.9213 8.3205 17.0963C8.76473 17.204 9.07434 17.6751 9.34357 17.9309L10.259 18.9136H12.0493C12.0897 18.6713 12.1301 18.4693 12.2109 18.2674C12.3186 17.9982 12.4532 17.8097 12.4936 17.7155L10.5013 17.702L9.12819 16.2078C8.76473 15.8578 8.29358 15.6155 7.75512 15.8309C7.2032 16.0463 6.44936 17.029 6.15321 17.1501ZM5.5609 22.1039L5.83013 20.5155C5.89744 19.802 5.96475 19.5866 6.30128 19.102C6.55705 18.752 7.01474 18.4693 7.43204 18.3617C8.11858 18.1867 8.76473 18.3347 9.27627 18.7251C9.86857 19.1693 10.232 20.0982 10.5551 20.7443L11.8205 23.2616C11.8743 23.2078 11.9013 23.127 11.9551 23.0597C12.7089 22.1039 14.1224 22.7635 13.9878 23.8674C13.9609 24.0693 13.8935 24.2174 13.7993 24.3655C13.7455 24.4328 13.7051 24.4732 13.6512 24.5405C13.557 24.6347 13.5166 24.6347 13.4493 24.702C13.6782 24.8097 13.9339 24.8905 14.1762 24.9712C14.5532 25.1193 14.6609 25.2135 14.9435 25.1328C15.2262 25.0385 16.2762 24.7693 16.4647 24.6616C16.3974 24.5135 15.9666 24.1366 16.3031 23.5174C16.3974 23.3693 16.4512 23.3559 16.5455 23.2347C16.4243 23.127 13.6243 21.8078 13.4224 21.6597C13.3416 21.6059 13.3686 21.6059 13.2743 21.552C12.682 21.1616 12.2512 20.5289 12.0897 19.829C12.0628 19.6809 12.0628 19.4924 12.0224 19.3578H10.0436C9.89549 19.129 9.31665 18.577 9.0878 18.3213C8.50896 17.7155 8.18589 17.1367 7.3782 17.8636C7.23012 17.9982 7.09551 18.1059 6.94743 18.2405C6.44936 18.6443 5.72244 19.3713 5.23783 19.7616C5.07629 19.8828 4.94167 20.0174 4.7936 20.152C4.4436 20.4482 4.41668 20.8924 4.75321 21.2559L5.43975 21.9962C5.49359 22.0636 5.48013 22.0501 5.5609 22.1039ZM6.11282 21.4847L5.9109 22.5078C6.01859 22.6424 6.0859 22.7097 6.20705 22.8309L7.66089 24.4193C7.74166 24.5135 7.82243 24.6347 7.9705 24.702C8.38781 24.9174 8.68396 25.1462 8.93973 25.577C9.23588 26.0751 9.03396 25.9808 9.53203 26.4655L9.84165 26.7885C9.9628 26.9366 10.4609 27.5289 10.582 27.5962C10.8513 27.0712 11.5109 26.5193 12.0089 26.1962C12.9243 25.577 13.7051 25.577 14.0551 25.3885L13.8666 25.2943C13.8128 25.2808 13.7589 25.2539 13.6782 25.227C13.5435 25.1866 13.4224 25.1328 13.2878 25.0924C12.0224 24.6347 12.0897 24.7558 11.5378 23.6251C11.0801 22.6828 10.582 21.7405 10.0974 20.8116C9.85511 21.7001 9.35703 22.3328 8.41473 22.5212C7.67435 22.6828 6.98782 22.427 6.48974 21.9559C6.3282 21.8212 6.24744 21.6597 6.11282 21.4847ZM7.64743 28.9289H8.77819C8.68396 28.7943 8.58973 28.6731 8.54935 28.5654L8.57627 28.552C8.68396 28.4712 8.76473 28.4443 8.80511 28.2962C8.80511 28.3097 8.81858 28.3097 8.81858 28.3097L8.93973 28.4443C8.98011 28.5116 9.00704 28.552 9.06088 28.6193L9.28973 28.9289H9.94934C9.97626 28.8616 9.98972 28.8077 10.0032 28.7539L10.3128 28.0001C10.2186 27.8924 10.1782 27.8385 10.057 27.7174C9.90895 27.5693 9.35703 26.9097 9.2628 26.8693C9.23588 27.5424 8.87242 28.1347 8.53588 28.4174C8.15896 28.7404 7.9032 28.8616 7.64743 28.9289ZM4.48398 28.9289H6.0859L5.9109 28.7539C5.54744 28.4847 5.33206 28.3501 5.07629 27.9462C4.47052 26.977 4.86091 26.3174 4.98206 25.2539C4.36283 25.2943 4.48398 25.9539 4.48398 26.5193C4.48398 27.1116 4.48398 27.7039 4.48398 28.2827C4.48398 28.4981 4.47052 28.727 4.48398 28.9289ZM16.5858 13.8117V12.1425H16.4647H13.0589C12.1839 12.1425 10.9993 12.304 10.2186 12.6675C10.0166 12.7617 9.80126 12.8694 9.70703 13.0175C9.6128 13.179 9.6128 13.5828 9.65319 13.7982L16.5858 13.8117ZM16.5858 16.0328V14.2424H9.92242V16.0328H16.5858ZM16.5858 17.0963V16.4905H15.1858C15.2262 16.5174 15.8858 16.652 16.3166 16.9213C16.3839 16.9617 16.4512 17.002 16.5051 17.0424C16.532 17.0559 16.5589 17.0828 16.5858 17.0963ZM16.5858 20.7039V17.7828C16.1416 17.2444 15.4282 16.8944 14.6339 16.9482C13.4089 17.029 12.3993 18.0924 12.4936 19.4251C12.5878 20.6366 13.6512 21.6462 14.9839 21.552C15.6166 21.4982 16.1955 21.1886 16.5858 20.7039ZM16.5858 22.7232V21.3501C16.4243 21.4712 16.2493 21.6059 16.0878 21.6866C15.8185 21.8347 15.4551 21.9559 15.1051 21.9962C15.2128 22.0905 16.3166 22.602 16.5858 22.7232ZM16.5858 25.8058V25.1193C16.1281 25.2539 15.657 25.3885 15.4551 25.4424C15.5493 25.4962 16.1416 25.6308 16.4647 25.7655C16.5051 25.7789 16.5455 25.7924 16.5858 25.8058ZM16.5858 27.2731V26.3039C15.832 25.9539 14.9435 25.7924 14.1628 25.9001C13.4897 25.9808 12.9916 26.1424 12.4801 26.4251C11.4974 26.977 10.7705 27.8789 10.434 28.9289H11.3224C11.8474 27.6904 13.0186 26.8424 14.3782 26.7212C15.1993 26.6539 15.9666 26.8693 16.5858 27.2731ZM16.5858 28.9289V27.8251C15.9666 27.3404 15.1724 27.0712 14.2705 27.1924C13.1666 27.3404 12.2782 28.0001 11.8205 28.9289H16.5858Z" fill="white"/>
<path fill-rule="evenodd" clip-rule="evenodd" d="M3.27102 28.9287C3.25756 28.5248 3.27102 28.1075 3.27102 27.6902C3.27102 27.0575 3.23064 26.2499 3.28448 25.6441C3.33833 24.971 3.63448 24.6883 4.03833 24.3249L3.12295 23.1403C2.96141 22.9383 2.81333 22.7633 2.65179 22.548C1.84411 21.5114 1.53449 20.2191 2.39603 19.1018C2.5441 18.9134 2.5441 18.9672 2.63833 18.8326C2.53064 18.6576 2.5441 18.7384 2.4768 18.4557C2.35564 17.9711 2.42295 17.6345 2.70564 17.2172C2.92102 16.9076 3.44602 16.3422 3.71525 16.0999C4.21332 15.6691 4.96717 14.9153 5.72101 14.9153C6.01716 14.9153 6.39408 15.0095 6.5287 15.1711C6.85177 15.023 7.14792 14.498 8.42676 14.5518C8.44022 13.7711 8.30561 12.9095 8.70945 12.3442C9.38253 11.3884 11.0921 11.0923 12.2767 10.9442C12.5056 10.9173 15.3056 10.9173 16.5844 10.9307V10.0826C13.946 10.1096 11.3614 10.298 8.83061 10.6615C6.20562 11.0249 3.63448 11.5634 1.11719 12.2634L1.14411 28.9287H3.27102Z" fill="#C4C4C4"/>
<path d="M18.7812 29.4806V9.51725C18.7812 9.20764 19.0236 8.96533 19.3332 8.96533C22.2005 8.96533 25.0274 9.16725 27.8004 9.54417C30.6273 9.94802 33.3869 10.5269 36.0658 11.2942C36.335 11.3749 36.4965 11.6172 36.4696 11.873L36.4562 29.4806C36.4562 29.7902 36.2004 30.046 35.8908 30.046H19.3332C19.0236 30.046 18.7812 29.7902 18.7812 29.4806Z" fill="black"/>
<path d="M18.7812 54.2496V31.6748C18.7812 31.3651 19.0236 31.1094 19.3332 31.1094H35.8908C36.2004 31.1094 36.4562 31.3651 36.4562 31.6748C36.4562 31.6882 36.4562 31.7017 36.4562 31.7286V32.1863C36.4562 39.7786 34.6792 44.7997 31.6639 48.2593C28.6485 51.7189 24.4081 53.5631 19.4678 54.7881C19.1716 54.8689 18.862 54.6804 18.7947 54.3842C18.7812 54.3439 18.7812 54.29 18.7812 54.2496Z" fill="black"/>
<path d="M17.7022 31.6748V54.2496C17.7022 54.29 17.7022 54.3439 17.6888 54.3842C17.608 54.6804 17.3119 54.8689 17.0157 54.7881C12.0619 53.5631 7.83499 51.7189 4.80616 48.2593C1.7908 44.7997 0.0273438 39.7786 0.0273438 32.1863V31.7286C0.0273438 31.7017 0.0273438 31.6882 0.0273438 31.6748C0.0273438 31.3651 0.26965 31.1094 0.579264 31.1094H17.1369C17.4465 31.1094 17.7022 31.3651 17.7022 31.6748Z" fill="black"/>
<path d="M1.97957 6.09804C1.66995 6.17881 1.3738 6.00381 1.29303 5.70766C1.21226 5.39805 1.38726 5.1019 1.68342 5.02113C4.51032 4.26728 7.29684 3.68844 10.0564 3.29806L10.218 3.27114C10.2988 2.70575 10.4064 2.18076 10.5007 1.72307C7.943 2.11345 5.37186 2.67883 2.76033 3.40575C2.46418 3.48652 2.15457 3.32498 2.0738 3.01537C1.99303 2.71922 2.16803 2.42306 2.46418 2.32883C5.15647 1.57499 7.82184 0.996148 10.4334 0.605766C13.0718 0.215383 15.6699 0 18.241 0C20.8122 0 23.4102 0.215383 26.0352 0.605766C28.6602 0.996148 31.3121 1.57499 34.0044 2.32883C34.314 2.42306 34.489 2.71922 34.3948 3.01537C34.314 3.32498 34.0044 3.48652 33.7082 3.40575C31.1102 2.67883 28.5256 2.11345 25.9814 1.72307C26.0756 2.18076 26.1698 2.70575 26.264 3.27114L26.4256 3.29806C29.1717 3.68844 31.9717 4.26728 34.7852 5.02113C35.0813 5.1019 35.2698 5.39805 35.189 5.70766C35.1082 6.00381 34.7986 6.17881 34.5025 6.09804C31.7832 5.37112 29.091 4.80574 26.4256 4.42882C26.4929 4.95382 26.5467 5.47882 26.5737 5.94997L26.8294 5.97689C29.7236 6.38073 32.6448 6.95958 35.6063 7.69996C35.9025 7.78073 36.0909 8.09034 36.0101 8.38649C35.9294 8.68264 35.6332 8.87111 35.3371 8.79034C32.4025 8.04996 29.5217 7.47111 26.6679 7.09419C23.8814 6.70381 21.0545 6.50189 18.241 6.50189C15.4276 6.50189 12.5872 6.70381 9.80068 7.09419C6.96031 7.47111 4.06609 8.04996 1.14496 8.79034C0.848805 8.87111 0.539191 8.68264 0.471884 8.38649C0.391115 8.09034 0.579575 7.78073 0.875728 7.69996C3.82379 6.95958 6.75839 6.38073 9.6526 5.97689L9.90837 5.94997C9.93529 5.47882 9.98914 4.95382 10.0564 4.42882C7.39108 4.80574 4.69878 5.37112 1.97957 6.09804ZM24.7833 1.56153C22.5891 1.26538 20.3948 1.1173 18.241 1.1173C16.0737 1.1173 13.893 1.26538 11.6853 1.56153C11.5776 1.96537 11.4699 2.50383 11.3757 3.12306C13.691 2.84037 15.9795 2.69229 18.241 2.69229C20.5025 2.69229 22.791 2.84037 25.1064 3.12306C24.9987 2.50383 24.891 1.96537 24.7833 1.56153ZM25.2814 4.26728C22.9121 3.97113 20.5564 3.80959 18.241 3.80959C15.9122 3.80959 13.5699 3.97113 11.2007 4.26728C11.1334 4.80574 11.0661 5.33074 11.0257 5.80189C13.4622 5.5192 15.8718 5.38459 18.241 5.38459C20.6102 5.38459 23.0198 5.5192 25.4429 5.80189C25.4025 5.33074 25.3487 4.80574 25.2814 4.26728Z" fill="black"/>
<path fill-rule="evenodd" clip-rule="evenodd" d="M29.0368 34.5421L28.9695 34.6363C29.0637 34.744 32.0926 36.9517 32.2003 36.992C32.281 36.9113 32.3214 36.8574 32.3214 36.7632C32.308 36.669 32.2676 36.642 32.1733 36.5613L29.3464 34.5017C29.2253 34.4209 29.1176 34.4209 29.0368 34.5421ZM28.2426 35.5382C28.0137 35.8209 28.0407 35.7536 28.7407 36.2651C29.333 36.6959 29.9253 37.1267 30.5176 37.5574C30.7733 37.7459 31.1637 38.0959 31.4195 38.1632L31.5676 37.9613C31.4733 37.7863 31.406 37.7728 31.2176 37.6382L29.0907 36.0901C28.8887 35.942 28.4311 35.5382 28.2426 35.5382ZM28.6599 35.0132C28.4714 35.269 28.458 35.1747 29.1714 35.6997C29.5887 35.9959 31.6618 37.544 31.8099 37.5709C32.0926 37.2747 31.8368 37.2074 31.3791 36.8709C31.0157 36.6017 29.131 35.2017 28.8618 35.0401C28.781 34.9863 28.7407 35.0132 28.6599 35.0132ZM27.4484 46.2939C27.5157 46.2805 27.5964 46.1458 27.6503 46.0651L21.7407 41.7439C21.458 42.0805 21.4849 41.9728 22.0099 42.3766C23.1811 43.292 24.6618 44.3285 25.8868 45.2305C26.0888 45.3651 27.3272 46.2939 27.4484 46.2939ZM27.3541 43.3997C27.5022 43.5612 27.9195 43.8305 28.1214 43.9651C28.2964 44.0997 28.633 44.1266 28.8349 44.1805C28.9964 43.9785 29.5887 43.2785 29.6695 43.1035L28.2964 42.1074L27.3541 43.3997ZM23.1542 40.0478C23.2888 40.2228 23.3965 40.5324 23.5849 40.667C23.7599 40.8016 24.1907 41.1382 24.3792 41.2324L25.1061 40.2363C25.4022 39.819 25.5234 40.1016 23.9215 38.9305C23.8003 39.0382 23.2888 39.8459 23.1542 40.0478ZM29.683 33.7478L29.4541 34.1113C29.5484 34.219 32.0118 35.9824 32.3887 36.2651C32.4156 36.2786 32.4964 36.3459 32.5099 36.3594C32.5772 36.3863 32.5637 36.4536 32.6983 36.1305C32.7522 35.9555 32.658 35.8209 32.5368 35.5382C32.483 35.4171 32.456 35.269 32.3483 35.1747C32.1464 34.9997 30.706 33.9363 30.5445 33.8824C30.4099 33.8555 29.7772 33.7209 29.683 33.7478ZM24.3657 38.7959C25.9945 40.0074 27.7849 41.2863 29.4272 42.4843L29.656 42.6459C29.6426 42.5651 29.6291 42.4439 29.6022 42.3632C29.5753 42.2555 29.5618 42.1612 29.5349 42.0536C29.4541 41.7305 29.5618 41.8382 29.0772 41.4882C28.5387 41.0978 25.6041 38.917 25.2811 38.7286C25.1599 38.6613 24.5138 38.7555 24.3657 38.7959ZM24.6888 41.4612L27.0445 43.1709L27.9599 41.9055L25.6176 40.1824L24.6888 41.4612ZM22.2926 40.5863C22.1984 40.7209 21.8349 41.2189 21.8349 41.3266C21.8484 41.3805 21.7811 41.3132 21.8888 41.3939L24.9041 43.6016C25.9407 44.3555 26.9772 45.0958 28.0003 45.8631L28.5791 45.1766C28.4176 44.9882 28.2695 44.7324 28.1214 44.5035C27.9464 44.2612 27.6099 44.0593 27.3541 43.8709L23.9349 41.3805C23.6657 41.1786 23.383 40.9093 23.0869 40.8286C22.8176 40.7478 22.5484 40.6805 22.2926 40.5863ZM25.9811 38.769L29.1849 41.1113C29.3464 40.9093 29.5484 40.6132 29.7099 40.3978C29.8849 40.1555 30.0599 39.9132 30.2349 39.6709L31.0291 38.6209C31.1233 38.4728 31.056 38.4055 30.9349 38.3113L28.0676 36.2247C27.8387 36.0632 27.7849 36.2517 27.5157 36.642L25.9811 38.769ZM33.3983 32.2267H32.281C31.8503 32.6575 32.2676 32.4825 31.8637 33.0344C31.7426 33.2228 31.7695 33.1824 31.5945 33.2498C31.4599 33.2901 31.433 33.2632 31.3253 33.4248C31.2445 33.5459 31.1503 33.6536 31.0695 33.7748L32.3753 34.7305C32.631 34.394 32.6983 34.3671 32.6983 34.0844C32.6983 33.9498 32.6983 33.9363 32.806 33.7882C32.9137 33.6267 32.9272 33.5863 33.0753 33.5055C33.3714 33.344 33.331 33.3844 33.4926 33.0613C33.5599 32.9267 33.6137 32.5632 33.6272 32.4421C33.5868 32.4017 33.506 32.3209 33.3983 32.2267ZM19.8965 46.7112V46.8593L20.933 47.6401L20.6907 48.0843L21.0138 48.4478L20.8657 48.6766L21.3099 48.9997L21.4849 48.7843C21.6196 48.8516 21.808 48.9727 21.9426 48.9862L22.2657 48.6227L22.8311 49.0131C21.8349 50.3458 21.283 49.5381 20.5696 49.0535L20.3676 49.4574C21.0811 49.9824 21.458 50.44 22.2119 50.3189C22.7907 50.2247 23.2888 49.5785 23.733 49.0266L24.1638 49.067L26.358 46.0381C26.2503 45.917 22.3061 43.0497 22.158 42.9824L19.9234 45.9843L20.0984 46.3881L19.8965 46.7112Z" fill="white"/>
<path fill-rule="evenodd" clip-rule="evenodd" d="M19.8965 50.3324L20.5023 50.7766C21.0003 51.14 21.3369 51.3016 21.8484 51.3285C22.6561 51.3689 23.4638 50.9516 24.1772 50.0497L24.6484 50.09L26.8157 47.0881L27.6907 47.6804L28.0272 47.2228L28.1349 47.2901L29.8041 45.217C29.7368 45.1362 29.5887 44.9612 29.5618 44.8535L30.8003 43.2785C30.8003 43.2247 30.7733 43.0766 30.7599 43.0228C30.733 42.9151 30.7195 42.8747 30.706 42.7535L30.3964 41.3266C30.3695 41.2459 30.3426 41.2459 30.356 41.1786C30.356 41.1786 31.7426 39.267 31.8368 39.1997C31.9041 39.1593 31.8637 39.2266 31.958 39.1055C32.106 38.917 32.5637 38.2843 32.631 38.1497C32.6983 38.0017 33.1156 37.4093 33.2637 37.2209C33.4926 36.8978 33.3445 37.0728 33.4118 36.9247C33.4656 36.7901 33.7753 36.4132 33.8829 36.2651C33.8426 36.2247 33.3714 35.0671 33.3983 34.9997C33.4791 34.9055 33.6541 34.6901 33.681 34.5824C33.7079 34.4478 33.6137 34.3401 33.7753 34.2459C34.1926 34.0036 34.0983 34.0709 34.3272 33.5998C34.5426 33.1421 34.4887 33.2767 34.5695 32.7786C34.5964 32.6036 34.6233 32.4151 34.6637 32.2267H35.3368C35.3233 39.4959 33.6541 44.2747 30.8272 47.5324C28.1214 50.6285 24.3388 52.3516 19.8965 53.5362V50.3324ZM19.8965 32.2267V44.3689L21.0138 42.8478L20.1792 42.2016L20.5157 41.7439L20.4215 41.6632C20.5965 41.3805 21.7676 39.5228 21.8753 39.442L22.2926 39.5632L23.4234 37.8805L25.2811 37.692C25.4426 37.6786 25.5099 37.719 25.5503 37.6786L26.9099 35.794C27.0041 35.6594 26.9772 35.6728 26.9907 35.619C26.9907 35.6055 26.9772 35.6324 27.0176 35.5517L28.5657 33.519C28.633 33.4786 28.6061 33.5324 28.6868 33.4517C28.8214 33.3036 29.0099 32.994 29.1445 32.819C29.2926 32.8459 29.9253 32.8594 30.1541 32.8728C30.2618 32.8728 30.4099 32.8728 30.4907 32.8863C30.5714 32.7786 30.6926 32.5901 30.7733 32.5094C30.8541 32.4286 30.9887 32.4151 31.0964 32.3613C31.1099 32.3075 31.1233 32.2671 31.1368 32.2267H19.8965Z" fill="#C4C4C4"/>
<path d="M29.7234 24.3518C29.4407 24.5807 29.7637 25.0518 30.0733 24.7961C30.356 24.5941 30.0195 24.1095 29.7234 24.3518ZM30.6657 25.4422C30.3695 25.698 30.7599 26.1287 31.0426 25.873C31.2983 25.6441 30.9618 25.1864 30.6657 25.4422ZM31.1907 26.8826C30.9214 27.1384 31.3118 27.5691 31.5945 27.2864C31.8503 27.0441 31.4733 26.5999 31.1907 26.8826ZM28.6599 27.2864C28.3772 27.5557 28.7541 27.973 29.0503 27.7172C29.3195 27.4749 28.9426 27.0307 28.6599 27.2864ZM22.4542 18.6172C22.1849 18.9134 22.6292 19.2903 22.8849 19.0076C23.1138 18.7384 22.7234 18.3346 22.4542 18.6172ZM23.1676 17.3249C22.8715 17.5807 23.2484 18.0115 23.5445 17.7692C23.8272 17.5134 23.4503 17.0692 23.1676 17.3249ZM21.5926 21.9288C21.2157 22.2518 21.7003 22.8038 22.0772 22.4941C22.4272 22.2115 21.983 21.5922 21.5926 21.9288ZM27.1388 24.123C27.0445 24.2038 27.0176 24.2576 26.9907 24.3653C26.9234 24.6749 27.3003 24.9576 27.5964 24.7153C27.9464 24.4326 27.5291 23.8134 27.1388 24.123ZM21.3369 25.6576C20.9734 26.0211 21.5253 26.5191 21.8619 26.1826C22.1849 25.8595 21.7003 25.2807 21.3369 25.6576ZM25.1465 21.0403C24.783 21.3903 25.308 21.9018 25.658 21.5653C26.008 21.2288 25.4965 20.6769 25.1465 21.0403ZM24.7965 26.923C24.3792 27.2191 24.8234 27.8384 25.2407 27.5287C25.6041 27.2595 25.2003 26.6403 24.7965 26.923ZM28.4849 26.9634C28.7945 26.7345 29.1984 26.8557 29.3734 27.1114C29.6157 27.4345 29.4945 27.8518 29.2522 28.0268C28.5522 28.5383 27.7445 27.5018 28.4849 26.9634ZM29.5484 24.0288C29.8714 23.8134 30.2618 23.948 30.4368 24.2038C30.6657 24.5403 30.531 24.9441 30.2618 25.1191C29.5484 25.5903 28.808 24.5268 29.5484 24.0288ZM30.9887 26.573C31.3118 26.3172 31.7291 26.4384 31.9176 26.6941C32.1599 27.0037 32.0387 27.4076 31.8099 27.596C31.1233 28.1345 30.3022 27.1114 30.9887 26.573ZM22.2657 18.3076C22.5753 18.0384 22.9792 18.1596 23.1676 18.3884C23.4368 18.7249 23.3157 19.1288 23.0869 19.3172C22.4407 19.8557 21.5657 18.8865 22.2657 18.3076ZM30.5041 25.1057C30.8272 24.8903 31.231 25.0249 31.406 25.3076C31.6214 25.6576 31.4733 26.048 31.1907 26.223C30.4772 26.6672 29.7637 25.5903 30.5041 25.1057ZM23.0195 16.9884C22.7234 17.1634 22.5888 17.5269 22.7772 17.8769C23.208 18.6307 24.3657 17.9711 23.908 17.2038C23.7465 16.9211 23.3426 16.773 23.0195 16.9884ZM24.5542 26.6537C25.3215 26.0345 26.2234 27.2057 25.4695 27.8114C25.1061 28.0941 24.6484 27.973 24.433 27.7037C24.1368 27.3268 24.258 26.8826 24.5542 26.6537ZM24.958 20.7172C25.3215 20.4211 25.7791 20.5692 25.9945 20.8518C26.2638 21.2153 26.1291 21.673 25.8599 21.8749C25.1061 22.4807 24.1638 21.3499 24.958 20.7172ZM21.1484 25.3345C21.5119 25.0384 21.9695 25.1864 22.1849 25.4691C22.4676 25.8326 22.333 26.2903 22.0503 26.5057C21.2965 27.098 20.3676 25.9672 21.1484 25.3345ZM21.4176 21.5922C21.7811 21.3365 22.2388 21.4845 22.4407 21.7807C22.7099 22.1576 22.5619 22.6018 22.2657 22.8172C21.4715 23.3691 20.5965 22.1845 21.4176 21.5922ZM26.9099 23.8403C27.2868 23.5441 27.7445 23.6922 27.9599 24.0018C28.5387 24.7961 27.3138 25.6441 26.7484 24.8499C26.4926 24.4864 26.6407 24.0422 26.9099 23.8403ZM27.6503 16.3153C27.8118 16.1538 28.1214 16.3019 28.2291 16.4096C28.4176 16.5846 28.5387 16.7999 28.3907 16.9884C28.1349 17.3249 27.8657 17.6346 27.5964 17.9711C27.5291 18.0653 27.4618 18.1596 27.3272 18.1326C27.3003 18.1192 27.0849 18.0249 27.0714 17.998C26.9638 17.9038 26.8695 17.4326 26.8695 17.3115C26.883 17.2038 27.5695 16.3961 27.6503 16.3153ZM30.558 18.6576C30.7195 18.523 31.0157 18.6846 31.1233 18.7788C31.2041 18.8461 31.2983 18.9807 31.3253 19.0884C31.3791 19.223 31.3387 19.2769 31.258 19.3711C31.1099 19.5461 30.9887 19.6942 30.8541 19.8692C30.6253 20.1519 30.5849 20.273 30.383 20.273C30.181 20.2865 29.8714 20.3134 29.7637 20.2057C29.481 19.9499 29.5349 19.8692 29.7234 19.6403C29.8714 19.4653 30.4233 18.7653 30.558 18.6576ZM23.2618 24.0018L23.5984 24.9845C23.6792 25.0114 24.5676 25.1864 24.608 25.173C24.6753 25.173 25.2272 24.4999 25.308 24.3922L24.958 23.3961C24.7695 23.3961 24.0426 23.2076 23.9484 23.2345C23.8811 23.248 23.3695 23.8941 23.2618 24.0018ZM22.858 23.9345C23.0195 23.7999 23.733 22.8711 23.8272 22.8576C23.8676 22.8441 25.1195 23.073 25.2138 23.1134L25.6984 24.473C25.5503 24.6211 24.8234 25.5364 24.7426 25.5499C24.6618 25.5634 23.5445 25.3076 23.3561 25.3076L22.858 23.9345ZM23.4099 22.9384C22.7907 23.3826 22.4676 24.2845 23.0195 25.0922C23.4368 25.698 24.3657 26.0076 25.1465 25.4826C25.7657 25.0653 26.0888 24.123 25.5503 23.3422C25.1195 22.723 24.1907 22.3865 23.4099 22.9384ZM23.3022 22.5749C24.2715 21.9826 25.4157 22.3999 25.9138 23.2345C26.5061 24.2038 26.0888 25.348 25.2676 25.8326C24.2849 26.4384 23.1407 26.0211 22.6426 25.1864C22.0503 24.2038 22.4676 23.0865 23.3022 22.5749ZM25.9407 17.2038C26.0214 17.3519 25.9811 17.3653 25.9272 17.648C25.9003 17.8096 25.8734 17.9442 25.8465 18.1057C25.7657 18.5499 25.6445 18.7653 25.9138 19.0076C25.9945 19.0749 26.1964 19.2769 26.2772 19.3172C26.6407 19.5326 26.8157 19.5057 27.4349 19.9903C28.2964 20.6499 28.6061 21.2557 28.781 21.3768C29.3195 21.7672 29.1714 21.7268 30.2349 21.3095C30.4772 21.2018 30.5445 21.1615 30.7733 21.148C30.9483 21.6057 30.8137 21.4711 31.1772 21.7538C31.4195 21.9422 32.7522 23.0595 32.806 23.073C32.9676 23.1134 33.2099 22.7365 33.3041 22.6153C33.6137 22.2249 33.9772 21.8884 33.9503 21.4442C33.9503 21.1211 33.7483 21.0807 33.5464 20.8788C33.1964 21.0134 33.156 20.8788 33.0618 20.9192C33.0079 20.9461 32.8464 21.2288 32.7791 21.2961L31.7156 20.6095C31.3522 20.8788 31.7291 20.8384 30.9887 20.9192C30.5983 20.973 30.181 20.9999 29.7907 20.9595C29.6157 20.9461 29.5753 20.9192 29.4541 20.8384C28.9426 20.5557 28.633 20.0307 28.9022 19.4653C28.956 19.3711 29.7368 18.4288 29.8714 18.2538C30.1541 17.9038 29.8445 17.4999 29.4272 17.3519C29.0503 17.2307 28.8753 17.6076 28.5522 18.0115C28.3772 18.2134 28.2291 18.4019 28.0541 18.6172C27.8791 18.8326 27.5022 18.9134 27.2464 18.873C27.0041 18.8326 26.8157 18.7384 26.6003 18.5365C26.3311 18.2672 26.3041 18.1192 26.2368 17.7423C26.183 17.4596 26.1561 17.1769 26.1291 16.9076C26.0484 16.1673 26.1695 16.5038 26.2772 16.1807L25.4157 15.2653C25.483 15.1307 25.6445 15.023 25.7253 14.8884C25.5234 14.4711 25.8465 14.2153 25.5368 14.1615C24.6888 14 24.5138 14.3903 23.9484 15.0903C23.5311 15.6019 23.5176 15.4807 24.0965 15.9519C24.2849 16.1134 24.5003 16.275 24.6753 16.4365L25.5638 17.1499C25.658 17.1903 25.833 17.2173 25.9407 17.2038ZM25.9138 15.2384L26.7753 16.1673C26.4657 16.5307 26.4522 16.5307 26.4791 16.7999C26.5061 17.0557 26.533 17.3249 26.5868 17.5942C26.6541 17.9576 26.6541 18.1057 26.9368 18.3346C27.1118 18.4826 27.3541 18.6038 27.6503 18.4557C27.8118 18.3884 28.4714 17.5269 28.6195 17.3384C28.7945 17.123 28.9695 16.948 29.306 16.9615C29.8445 16.9884 30.3291 17.4865 30.356 17.9576C30.3695 18.2269 30.2483 18.3884 30.0733 18.6038L29.3734 19.4519C29.2522 19.6134 29.2253 19.5999 29.1849 19.7749C29.131 20.0576 29.2926 20.2865 29.508 20.448C29.7637 20.6365 29.858 20.6095 30.1945 20.6095C30.4503 20.6095 30.733 20.5826 30.9753 20.5557C31.4868 20.5019 31.231 20.5153 31.6214 20.1519L31.756 20.2192C31.9714 20.3538 32.5368 20.6769 32.6714 20.798C32.8868 20.623 32.7387 20.623 33.0887 20.5557C33.2637 20.5153 33.4522 20.5019 33.6137 20.448C33.5733 20.1922 33.6406 20.2326 33.506 19.7615C33.3041 19.048 32.8464 18.3615 32.4022 17.7961C31.0426 16.1 28.3368 14.1077 26.1695 14.2288C26.1426 14.3365 26.1695 14.6461 26.1695 14.7807C26.183 14.9423 26.0349 15.1442 25.9138 15.2384ZM28.7945 28.9287H29.3734C29.3599 28.7133 29.1041 28.5114 28.9022 28.7133C28.8349 28.7672 28.808 28.8076 28.7945 28.8883C28.7945 28.9018 28.7945 28.9153 28.7945 28.9287ZM19.8965 27.2864V27.6768C20.0176 27.5691 19.9907 27.3941 19.8965 27.2864ZM19.8965 26.1826V26.8422C20.0176 26.8826 20.1253 26.9634 20.1926 27.0576C20.4619 27.3941 20.3407 27.7845 20.0984 27.9864C20.0311 28.0403 19.9638 28.0807 19.8965 28.0941V28.9287H22.158C22.333 28.848 22.5215 28.848 22.683 28.9287H23.3695C23.0465 28.8614 22.7099 28.7672 22.3734 28.6326C22.0638 28.5114 21.5388 28.1749 21.2696 27.9595C20.7849 27.5557 20.3811 27.1114 20.0311 26.4653C19.9907 26.371 19.9369 26.2768 19.8965 26.1826ZM19.8965 23.5172V24.9172C19.9638 25.3884 20.1253 25.873 20.3811 26.3307C21.4849 28.3633 24.1099 29.346 26.3849 28.121C28.4176 27.0307 29.4272 24.3788 28.1887 22.1038C27.0311 19.9769 24.3388 19.1153 22.158 20.3134C20.8926 20.9999 20.0984 22.2115 19.8965 23.5172ZM19.8965 20.4345V21.0134C19.9503 20.9999 20.0042 20.9865 20.0446 20.9326C20.2599 20.7576 20.0984 20.4615 19.8965 20.4345ZM19.8965 19.0884V19.4922C20.0176 19.3711 19.9907 19.1961 19.8965 19.0884ZM19.8965 17.5673V18.0519C20.0042 18.1192 20.1523 18.1192 20.2734 17.998C20.4888 17.7557 20.1523 17.3788 19.8965 17.5673ZM19.8965 17.0019V17.1634C20.1523 17.0961 20.4349 17.2307 20.5696 17.4192C20.8119 17.7423 20.6907 18.1326 20.4619 18.3211C20.2734 18.4692 20.0715 18.4961 19.8965 18.4557V18.6711C20.0311 18.7115 20.1388 18.8057 20.2196 18.9134C20.4484 19.2365 20.3273 19.6538 20.0715 19.8288C20.0042 19.8692 19.9503 19.8961 19.8965 19.923V20.0711C20.0849 20.0845 20.2599 20.1788 20.3676 20.3134C20.6234 20.623 20.5157 21.0268 20.2734 21.2288C20.1523 21.323 20.0176 21.3768 19.8965 21.3768V22.2653C20.3273 21.2826 20.9599 20.5557 22.0099 19.9769C22.6292 19.6269 23.3965 19.4384 24.0426 19.4115C25.8868 19.3172 27.6234 20.2865 28.5118 21.9422C29.1984 23.1941 29.2118 24.4595 28.8484 25.7114C28.808 25.8461 28.7407 25.9807 28.6868 26.1018C28.5657 26.4518 28.283 26.9095 28.0407 27.2057C27.2734 28.1345 26.3041 28.7133 25.2676 28.9287H28.4176C28.4176 28.7268 28.5118 28.5114 28.7407 28.3633C29.0637 28.1614 29.4676 28.296 29.6426 28.5787C29.7099 28.6864 29.7368 28.8076 29.7368 28.9287H31.258C31.4464 28.646 31.608 28.3633 31.7695 28.0672L32.0387 27.5153C32.4291 26.6807 32.6714 25.4287 32.6983 24.4999L32.6849 23.5172C32.6714 23.3961 32.5637 23.3691 32.4695 23.2884L30.733 21.8749C30.5983 21.7538 30.5983 21.7942 30.531 21.5788C29.3464 22.0634 29.333 22.2249 28.5791 21.6865C28.1484 21.3903 27.9868 20.6095 26.4657 19.8153C26.3849 19.7749 26.358 19.748 26.2772 19.7211C25.9811 19.6134 25.9676 19.5461 25.7118 19.3172C25.3618 19.0076 25.3484 18.7922 25.4157 18.4019C25.4695 18.1192 25.5234 17.823 25.5772 17.5269C25.3484 17.473 25.4965 17.5807 25.2138 17.3519C25.0926 17.2576 24.9849 17.1634 24.8907 17.0692C24.6215 17.2173 24.3388 17.2576 24.0965 17.0557C23.8003 16.8269 23.8138 16.5442 23.8811 16.2615C23.8407 16.2211 23.4234 15.8711 23.3965 15.8576C23.3292 15.8173 23.3157 15.8307 23.2349 15.8442C21.983 16.0326 20.8926 16.3961 19.8965 17.0019Z" fill="#FEFEFE"/>
<path d="M19.8965 10.0826V15.8845C20.5292 15.5615 21.2022 15.2922 21.9426 15.1038C22.0369 15.0768 22.4272 15.0095 22.4676 14.9692C22.508 14.9422 22.5619 14.8076 22.5888 14.7672C22.6292 14.6999 22.683 14.6461 22.7234 14.5922C23.0599 14.1615 23.5445 13.5019 24.0695 13.1922C24.4195 12.9903 24.783 12.9095 25.133 12.8961C26.0484 12.8692 25.4965 13.0172 26.0753 13.0038C28.0137 12.9634 29.6022 13.7845 31.1368 14.9018C32.0656 15.6018 33.1426 16.598 33.8829 17.7288C34.8387 19.1961 34.8387 20.273 34.9195 20.4345C34.9868 20.5557 35.0137 20.4749 35.0676 20.6633C35.1752 21.1076 35.256 21.4576 35.1752 21.9018C35.0272 22.6826 34.4887 23.1941 33.9503 23.8537C33.7214 24.1364 33.681 24.0153 33.681 24.2172C33.6945 25.846 33.2368 27.4883 32.4156 28.9287H35.3368L35.3502 12.2634C32.8464 11.5634 30.2753 11.0249 27.6503 10.6615C25.1195 10.298 22.5215 10.1096 19.8965 10.0826Z" fill="#E5E5E5"/>
<path fill-rule="evenodd" clip-rule="evenodd" d="M11.5246 32.5498L5.80344 35.269C5.97844 35.2555 6.35536 35.1209 6.55728 35.0671C6.82651 34.9863 7.08228 34.919 7.35151 34.8382C7.86305 34.6901 8.38804 34.5421 8.89958 34.3805C9.08804 34.3267 10.5284 33.2767 10.8784 33.0209C11.0669 32.8998 11.4034 32.6844 11.5246 32.5498ZM11.6188 46.9266L14.3649 52.8766C14.0957 52.7823 13.8265 52.7016 13.5707 52.6073L11.0669 47.1824L11.6188 46.9266ZM16.5861 53.5362V50.9785L14.1496 45.7285L13.0322 46.2535L16.3707 53.4689L16.5861 53.5362ZM16.5861 50.2112V46.267L15.9399 44.8805L14.4457 45.5805L16.5861 50.2112ZM16.5861 43.4401V41.9997C16.3572 41.9593 16.263 42.0536 15.9938 42.1343C15.5495 42.2689 15.0919 42.3901 14.6476 42.5247C13.7726 42.7805 12.8303 43.0228 11.9553 43.3055V43.292L11.9688 43.2785C11.9553 43.1978 12.0092 43.292 11.9553 43.2516C11.0669 43.5343 10.165 43.7766 9.2765 44.0324C8.83227 44.167 8.36112 44.2882 7.93035 44.4228C7.16305 44.6785 7.31113 45.6747 7.97074 45.8362C8.21304 45.8901 8.34766 45.8362 8.61689 45.7555L15.3207 43.8035C15.738 43.6824 16.1688 43.5612 16.5861 43.4401ZM11.363 32.2267H8.11881L4.30922 34.044C4.05345 34.1651 3.17846 34.5421 3.01692 34.6767C2.64 34.9728 2.65346 35.794 3.33999 35.9017C3.56884 35.9286 3.68999 35.8882 3.9323 35.767C4.33614 35.5786 10.0034 32.8998 11.363 32.2267ZM14.7957 53.0112C15.1726 53.1323 15.563 53.2535 15.9534 53.3612L12.7361 46.3881L11.9149 46.792L14.7957 53.0112ZM10.6765 40.5459C10.6092 40.5055 10.663 40.5997 10.663 40.5324C10.663 40.4651 10.7169 40.5459 10.6765 40.5055C10.2188 40.6132 9.77457 40.7613 9.31688 40.8959C8.49573 41.1382 7.44574 41.4209 6.63805 41.6766C5.88421 41.9189 5.95152 42.8747 6.66498 43.0766C6.8669 43.1439 7.0419 43.0901 7.29766 43.0093L11.3226 41.8382C12.6149 41.4612 14.0553 41.0574 15.3476 40.667C16.088 40.4382 16.1015 39.4959 15.3476 39.294C15.1322 39.2401 14.9572 39.3074 14.7015 39.3747C14.2572 39.5093 13.813 39.644 13.3688 39.7651L11.3361 40.3574C11.1476 40.4113 10.865 40.5189 10.6765 40.5459ZM9.30342 37.8132L9.37073 37.7593C8.46881 38.0017 7.58036 38.2709 6.67844 38.5266C6.23421 38.6613 5.77652 38.7824 5.34575 38.917C4.59191 39.1593 4.61883 40.1151 5.37267 40.3305C5.58806 40.3978 5.7496 40.3305 6.00536 40.2632C6.44959 40.1286 6.89382 39.9939 7.35151 39.8728L12.7361 38.2978C13.1669 38.1767 13.638 38.0555 14.0688 37.9074C14.7957 37.6786 14.7822 36.6959 14.0015 36.5344C13.7861 36.494 13.5976 36.5747 13.3553 36.642L10.663 37.4228C10.2457 37.544 9.73419 37.7324 9.30342 37.8132ZM8.03804 35.0536L8.02458 35.0401V35.0267V35.0132C7.60728 35.1074 7.1092 35.2824 6.67844 35.4036C6.23421 35.5382 5.78998 35.6594 5.34575 35.794C4.90152 35.9151 4.43037 36.0363 3.99961 36.1844C3.32653 36.4132 3.29961 37.342 4.05345 37.5843C4.25537 37.6517 4.44383 37.5843 4.68614 37.517L8.72458 36.3324C9.6265 36.0767 10.515 35.8074 11.4169 35.5517C11.8476 35.4305 12.3188 35.3094 12.7496 35.1613C13.5303 34.919 13.4226 33.9363 12.7226 33.8017C12.4803 33.7478 12.3457 33.8151 12.0765 33.8824C10.7842 34.2728 9.31688 34.7171 8.03804 35.0536ZM9.12842 47.0478C11.013 46.1458 12.9515 45.2574 14.8226 44.342C14.7553 44.3285 14.6745 44.3689 14.6072 44.3824C14.5399 44.4093 14.4592 44.4228 14.3919 44.4497L8.87266 46.0516C8.72458 46.092 8.58996 46.1458 8.44189 46.1728C8.26689 46.2266 8.17266 46.1997 8.03804 46.2131C8.01112 46.4824 7.99766 46.7785 8.30727 47.0074C8.52266 47.1689 8.79189 47.2093 9.12842 47.0478ZM8.67073 43.8305C8.79189 43.8305 11.6188 42.9824 11.9957 42.8747C13.0188 42.5786 12.6957 42.7535 13.5572 42.1478C13.8669 41.9324 14.7015 41.3132 14.9572 41.1651C14.8361 41.1786 13.5169 41.5689 13.288 41.6362L10.7976 42.3632C10.5553 42.4305 10.2726 42.6862 10.0707 42.8209C9.82842 42.9824 8.76496 43.6959 8.67073 43.8305ZM7.32459 41.0978C7.43228 41.0843 8.7515 40.6805 8.98035 40.6132C9.53227 40.4651 10.0842 40.3036 10.6496 40.1286C11.6592 39.8459 11.4169 39.9939 12.2111 39.4286C12.413 39.294 13.5438 38.5132 13.5976 38.4324C13.4899 38.4324 10.6496 39.2805 10.2726 39.3882C9.26304 39.6843 9.55919 39.5093 8.71112 40.1016C8.25343 40.4382 7.78228 40.7613 7.32459 41.0978ZM6.01883 38.3517C6.20729 38.3247 9.70727 37.2747 10.1784 37.1401C10.4073 37.0728 10.69 36.8305 10.9053 36.6824C11.363 36.3594 11.8476 36.0228 12.3053 35.6863L10.6361 36.1574C9.88227 36.3728 8.85919 36.642 8.13228 36.8844C7.95728 36.9382 6.93421 37.692 6.70536 37.8536C6.48998 38.0151 6.22075 38.1767 6.01883 38.3517Z" fill="#FEFEFE"/>
<path fill-rule="evenodd" clip-rule="evenodd" d="M16.5848 39.0516V32.2267H12.9502C12.8695 32.5632 12.7079 32.7651 12.681 32.8325C13.6906 32.8325 14.8618 34.1517 13.9733 35.5651C14.1483 35.6055 14.1483 35.5786 14.3906 35.6594C14.5387 35.7132 14.6195 35.7401 14.781 35.8344C15.3464 36.1844 15.6694 36.8709 15.5752 37.5305C15.5348 37.867 15.4675 38.0151 15.2791 38.3113C15.3868 38.3517 15.6964 38.3382 16.0733 38.5805C16.2752 38.7151 16.4502 38.8766 16.5848 39.0516ZM5.89643 32.2267H1.14453C1.15799 39.4959 2.81375 44.2747 5.65412 47.5324C7.41757 49.5516 9.65218 51.0054 12.2368 52.0823L10.1502 47.6266C9.77333 47.8016 9.3291 48.0574 8.95218 48.0977C7.99642 48.2054 7.14834 47.5054 7.06757 46.5766C7.04065 46.3074 7.01373 46.4689 6.78488 46.1324C6.54258 45.7958 6.43489 45.3785 6.44835 45.0285C6.47527 44.5439 6.59642 44.4362 6.73104 44.1535L6.7445 44.1266C6.7445 44.1132 6.7445 44.1132 6.7445 44.1132C6.50219 44.0324 6.35412 44.0997 5.95027 43.8305C5.38489 43.4805 5.07528 42.8074 5.15605 42.1478C5.20989 41.717 5.34451 41.6093 5.4522 41.367C5.18297 41.2863 4.96759 41.2997 4.64451 41.0843C3.87721 40.5728 3.62144 39.5766 4.03875 38.7959C4.07913 38.7286 4.11951 38.6747 4.14644 38.6209L4.01182 38.594C3.31183 38.4863 2.73298 37.9478 2.57145 37.2209C2.47722 36.8036 2.65222 37.019 2.36952 36.7497C1.93876 36.3459 1.69645 35.6594 1.73684 35.1209C1.7503 34.7978 1.89837 34.4613 2.12722 34.1921C2.40991 33.8555 2.77337 33.7209 3.19067 33.519L5.89643 32.2267Z" fill="#E5E5E5"/>
</svg>
