<?xml-stylesheet type="text/css" href="../css/style.css" ?>

<svg id="footer-svg-big" width="279" height="140" viewBox="0 0 279 140" fill="none" xmlns="http://www.w3.org/2000/svg">
<path class="test" d="M185.163 79.6207C185.42 79.1925 185.477 78.7928 185.334 78.3361C185.22 77.9079 184.935 77.6795 184.449 77.6795C183.593 78.8785 182.308 80.363 180.595 82.133C178.854 83.9315 176.998 85.7015 175 87.4429C173.944 88.3565 172.859 89.2415 171.745 90.0693C170.632 90.8687 169.547 91.6109 168.491 92.239C167.406 92.8956 166.378 93.3809 165.379 93.752C164.38 94.0946 163.466 94.2945 162.639 94.2945C161.811 94.2945 161.183 93.9804 160.697 93.4095C160.183 92.81 159.955 92.0106 159.955 90.9829C159.955 90.0693 160.126 89.0702 160.497 87.9853C160.84 86.9005 161.325 85.8442 161.868 84.7594C163.067 84.4454 164.494 83.9315 166.207 83.2178C167.92 82.5041 169.576 81.6762 171.146 80.7627C172.687 79.8491 174.029 78.8785 175.171 77.8793C176.285 76.8801 176.855 75.9095 176.855 74.9959C176.855 74.1681 176.513 73.5971 175.856 73.226C175.2 72.8834 174.629 72.5408 174.172 72.2268C173.715 71.9413 173.23 71.5416 172.745 71.0563C172.259 70.571 171.66 70.3141 170.946 70.3141C169.918 70.3141 168.577 70.885 166.921 72.0555C165.236 73.1974 163.581 74.7105 161.953 76.5661C160.326 78.4503 158.899 80.5628 157.728 82.9038C156.558 85.2733 155.958 87.6142 155.958 89.9837C155.958 92.0963 156.558 93.695 157.728 94.7798C158.899 95.8932 160.412 96.4356 162.267 96.4356C163.324 96.4356 164.466 96.2072 165.665 95.779C166.892 95.3507 168.091 94.7512 169.319 94.009C170.546 93.2667 171.774 92.4103 173.002 91.4397C174.258 90.469 175.457 89.4698 176.627 88.4421C178.94 86.3866 180.767 84.5881 182.165 83.018C183.536 81.4764 184.535 80.3344 185.163 79.6207ZM174.001 75.4527C174.001 75.7097 173.658 76.1379 172.973 76.6803C172.288 77.2512 171.431 77.8508 170.432 78.4503C169.433 79.0783 168.348 79.6493 167.178 80.1917C166.007 80.7341 164.922 81.1052 163.952 81.3051C164.608 80.3344 165.322 79.3924 166.064 78.5359C166.807 77.6509 167.549 76.9087 168.291 76.2806C169.033 75.624 169.747 75.1101 170.404 74.739C171.06 74.3393 171.631 74.1681 172.088 74.1681C172.916 74.1681 173.43 74.2822 173.658 74.5392C173.886 74.7961 174.001 75.1101 174.001 75.4527ZM140.514 99.2047C139.4 100.803 137.688 102.859 135.375 105.4C133.063 107.912 130.408 110.624 127.41 113.536C124.413 116.419 121.244 119.331 117.904 122.3C114.535 125.241 111.252 127.896 108.026 130.237C104.8 132.606 101.774 134.519 98.9477 136.003C96.15 137.488 93.7805 138.23 91.8963 138.23C91.0114 138.23 90.3262 137.945 89.8409 137.345C89.3556 136.745 89.1272 136.06 89.1272 135.232C89.1272 133.691 89.6125 132.035 90.5831 130.265C91.5538 128.524 92.8955 126.697 94.6084 124.869C96.3213 123.014 98.3482 121.187 100.632 119.331C102.944 117.476 105.428 115.706 108.083 113.964C110.71 112.223 113.45 110.567 116.305 108.997C119.188 107.427 122.015 106.028 124.841 104.743C127.667 103.458 130.408 102.345 133.063 101.403C135.718 100.432 138.201 99.7186 140.514 99.2047ZM155.502 75.9951C155.502 74.7676 155.159 74.1681 154.502 74.1681C154.445 74.1681 154.274 74.111 153.988 74.0539C153.732 73.9682 153.446 73.9397 153.189 73.9397C152.932 73.9397 152.704 73.9397 152.504 73.9968C152.304 74.0539 152.133 74.1966 152.047 74.4535C151.619 75.3385 150.991 76.4234 150.077 77.7366C149.192 79.0212 148.165 80.4201 147.023 81.9046C145.852 83.3891 144.653 84.8736 143.369 86.3581C142.084 87.8711 140.828 89.1844 139.6 90.3548C138.373 91.5538 137.259 92.4959 136.26 93.2382C135.261 93.9804 134.462 94.3516 133.834 94.3516C133.691 94.3516 133.605 94.0946 133.605 93.5808C133.605 93.0954 133.776 92.3817 134.148 91.5253C134.49 90.6403 134.975 89.6982 135.603 88.6419C136.203 87.5857 136.945 86.5008 137.802 85.3304C138.63 84.1884 139.543 83.018 140.514 81.8475C141.541 80.5628 142.626 79.3353 143.74 78.1648C144.882 76.9658 145.966 75.938 147.023 75.053C148.05 74.1395 149.078 73.4258 150.049 72.8834C151.019 72.341 151.847 72.084 152.59 72.084C153.646 72.084 154.502 72.5694 155.102 73.54C155.216 73.1403 155.273 72.8263 155.273 72.6265C155.273 71.6844 154.902 70.9992 154.16 70.5424C153.418 70.0857 152.533 69.8573 151.505 69.8573C150.077 69.8573 148.593 70.2855 147.051 71.1134C145.51 71.9698 143.997 73.0547 142.484 74.425C140.971 75.7667 139.543 77.3083 138.173 79.0212C137.059 80.4201 136.089 81.8475 135.204 83.2749C134.433 84.0742 133.662 84.845 132.92 85.6158C131.464 86.9291 130.122 88.0995 128.838 89.1273C127.553 90.155 126.639 90.6689 126.068 90.6689C125.669 90.6689 125.383 90.5261 125.269 90.2121C125.126 89.8981 125.069 89.5555 125.069 89.1273C125.069 88.6134 125.183 88.0424 125.383 87.3573C125.583 86.7007 125.811 86.0155 126.068 85.3304C126.325 84.6452 126.554 83.9886 126.754 83.332C126.982 82.7039 127.068 82.133 127.068 81.6762C127.068 80.9625 126.868 80.4486 126.497 80.1632C126.126 79.8491 125.612 79.6778 125.012 79.6778C124.755 79.6778 124.356 79.8206 123.842 80.0775C124.156 79.5636 124.498 78.9641 124.841 78.3075C125.212 77.6509 125.526 76.9943 125.811 76.3377C126.097 75.7097 126.325 75.1101 126.497 74.5677C126.668 74.0539 126.754 73.6256 126.754 73.3116C126.754 72.1411 126.411 71.2561 125.726 70.6852C125.041 70.1428 124.184 69.8573 123.157 69.8573C121.929 69.8573 120.587 70.2855 119.16 71.1134C117.732 71.9698 116.305 73.0547 114.906 74.425C113.479 75.7953 112.137 77.3083 110.824 79.0212C109.511 80.7627 108.369 82.5041 107.369 84.3026C106.941 85.0734 106.542 85.8442 106.17 86.5865C105.485 87.2431 104.772 87.8997 104.001 88.6419C103.201 89.3842 102.402 90.0693 101.631 90.6689C100.147 91.8393 98.7764 92.7529 97.5203 93.3524C96.2642 93.9804 95.3507 94.2945 94.7226 94.2945C94.1231 94.2945 93.8091 93.9233 93.8091 93.2096C93.8091 92.7243 94.2373 92.0106 95.0652 91.0114C95.9216 89.9837 96.8352 88.8989 97.8344 87.7284C98.8335 86.5294 99.7471 85.3589 100.604 84.1599C101.46 82.9894 101.86 82.0188 101.86 81.248C101.86 79.8491 101.374 78.8785 100.404 78.279C99.433 77.6795 98.234 77.394 96.8066 77.394C95.9216 77.394 95.2079 77.3654 94.6084 77.3083C94.0375 77.2512 93.7234 77.1085 93.7234 76.8516C93.7234 76.7374 94.0089 76.3663 94.5799 75.6811C95.1508 75.0245 95.7789 74.2822 96.4926 73.4543C97.3205 72.5979 98.0056 71.7415 98.5195 70.9421C99.0619 70.1142 99.3474 69.5718 99.3474 69.3149C99.3474 68.4584 98.548 68.0017 96.9494 68.0017C96.15 68.0017 95.2079 68.3728 94.2087 69.0865C93.181 69.8002 92.2389 70.6281 91.3254 71.5702C90.4118 72.5408 89.641 73.5114 89.013 74.5106C88.3564 75.5098 88.0424 76.2806 88.0424 76.8516C88.0424 77.7366 88.4135 78.4217 89.1272 78.907C89.4127 79.1069 89.7552 79.2496 90.1264 79.3638C89.6981 79.8777 89.1557 80.4201 88.4991 81.0767C87.8425 81.7333 87.1288 82.4756 86.358 83.2463C85.5872 84.0457 84.8164 84.845 84.0456 85.6158C82.6182 86.9291 81.2479 88.0995 79.9918 89.1273C78.7071 90.155 77.765 90.6689 77.2226 90.6689C76.7944 90.6689 76.5375 90.5261 76.3947 90.2121C76.2805 89.8981 76.2234 89.5555 76.2234 89.1273C76.2234 88.6134 76.3091 88.0424 76.5089 87.3573C76.7373 86.7007 76.9657 86.0155 77.2226 85.3304C77.4796 84.6452 77.7079 83.9886 77.9078 83.332C78.1076 82.7039 78.2218 82.133 78.2218 81.6762C78.2218 80.9625 78.022 80.4486 77.6223 80.1632C77.2512 79.8491 76.7373 79.6778 76.1378 79.6778C75.8809 79.6778 75.5097 79.8206 74.9959 80.0775C75.2813 79.5636 75.6239 78.9641 75.995 78.3075C76.3376 77.6509 76.6517 76.9943 76.9371 76.3377C77.2226 75.7097 77.451 75.1101 77.6223 74.5677C77.8221 74.0539 77.9078 73.6256 77.9078 73.3116C77.9078 72.1411 77.5652 71.2561 76.88 70.6852C76.1663 70.1428 75.3099 69.8573 74.2822 69.8573C73.0546 69.8573 71.7414 70.2855 70.2854 71.1134C68.858 71.9698 67.4306 73.0547 66.0318 74.425C64.6329 75.7953 63.2626 77.3083 61.9494 79.0212C60.6647 80.7627 59.4942 82.5041 58.4951 84.3026C57.4959 86.1012 56.6965 87.8426 56.097 89.5269C55.469 91.2113 55.1549 92.6958 55.1549 93.9804C55.1549 94.7512 55.3262 95.4364 55.6688 96.0644C55.9828 96.664 56.4111 96.978 56.9249 96.978C57.296 96.978 57.8385 96.6925 58.6093 96.1786C59.3801 95.6362 60.2365 94.9796 61.15 94.2374C62.0921 93.4951 63.0057 92.6958 63.9478 91.8679C64.9184 91.0114 65.7177 90.2977 66.3743 89.6697C67.0595 89.0702 67.7732 88.4136 68.5725 87.7284C69.3719 87.0147 70.1141 86.3866 70.7993 85.7871C71.4845 85.2162 72.084 84.7023 72.5693 84.3026C73.0546 83.8744 73.3115 83.6746 73.3686 83.6746C73.4828 83.6746 73.5685 83.7317 73.6541 83.8459C73.7112 83.9315 73.7397 84.0742 73.6827 84.217C73.5685 84.4168 73.4257 85.0163 73.2544 85.987C73.0831 86.9576 72.9975 87.7855 72.9975 88.4421C72.9975 89.7839 73.1973 90.8972 73.597 91.8393C74.0252 92.7529 74.6818 93.2096 75.5954 93.2096C76.2234 93.2096 76.9371 92.9813 77.7365 92.553C78.5644 92.1248 79.3637 91.5824 80.1631 90.9829C80.9624 90.3548 81.7332 89.7268 82.4755 89.0702C83.2177 88.385 83.8743 87.8426 84.4453 87.3573C84.9592 86.9005 85.5872 86.2724 86.358 85.5016C87.1288 84.7023 87.8711 83.903 88.6133 83.1036C89.3556 82.3043 90.0122 81.5906 90.5831 80.9625C91.1541 80.3059 91.4681 79.9062 91.5823 79.7635C91.6109 79.7064 91.6394 79.6493 91.6394 79.6207H91.8392C92.867 79.6207 93.7805 79.5636 94.6084 79.4495C95.4649 79.3638 96.2071 79.3067 96.8923 79.3067C97.6916 79.3067 98.1198 79.478 98.1198 79.8491C98.1198 80.363 97.6916 81.1338 96.8352 82.1901C96.0073 83.2463 95.0652 84.3883 94.0945 85.6444C93.0954 86.9005 92.1818 88.1566 91.3539 89.4413C90.526 90.726 90.1264 91.8393 90.1264 92.8385C90.1264 94.009 90.4689 94.894 91.2112 95.4649C91.9249 96.0644 92.7242 96.3499 93.5807 96.3499C94.951 96.3499 96.4355 95.9217 98.0342 95.0082C99.6329 94.1232 101.117 93.0669 102.573 91.8393C103.401 91.1256 104.143 90.469 104.829 89.841C104.286 91.3826 104.029 92.7814 104.029 93.9804C104.029 94.7512 104.201 95.4364 104.515 96.0644C104.857 96.664 105.285 96.978 105.799 96.978C106.142 96.978 106.713 96.6925 107.484 96.1786C108.254 95.6362 109.082 94.9796 110.024 94.2374C110.938 93.4951 111.88 92.6958 112.822 91.8679C113.764 91.0114 114.564 90.2977 115.249 89.6697C115.905 89.0702 116.648 88.4136 117.418 87.7284C118.218 87.0147 118.96 86.3866 119.645 85.7871C120.359 85.2162 120.93 84.7023 121.415 84.3026C121.9 83.8744 122.186 83.6746 122.243 83.6746C122.329 83.6746 122.414 83.7317 122.5 83.8459C122.586 83.9315 122.586 84.0742 122.528 84.217C122.443 84.4168 122.3 85.0163 122.129 85.987C121.929 86.9576 121.843 87.7855 121.843 88.4421C121.843 89.7839 122.043 90.8972 122.471 91.8393C122.871 92.7529 123.528 93.2096 124.47 93.2096C125.069 93.2096 125.783 92.9813 126.611 92.553C127.439 92.1248 128.238 91.5824 129.037 90.9829C129.837 90.3548 130.608 89.7268 131.35 89.0702C131.892 88.5563 132.406 88.1281 132.834 87.757C132.577 88.3279 132.349 88.9274 132.149 89.4984C131.521 91.1827 131.207 92.6672 131.207 93.9519C131.207 94.7227 131.378 95.4078 131.721 96.0359C132.064 96.6354 132.492 96.9494 133.063 96.9494C133.834 96.9494 134.89 96.4641 136.203 95.522C137.545 94.5799 138.972 93.3524 140.514 91.8393C142.055 90.3263 143.626 88.6705 145.196 86.872C146.794 85.0449 148.25 83.2463 149.592 81.5049C149.221 82.5326 148.707 83.8173 147.993 85.3304C147.308 86.8434 146.566 88.3565 145.767 89.9266C144.996 91.4682 144.196 92.9527 143.426 94.2945C142.655 95.6648 142.055 96.664 141.599 97.3206C138.972 97.8915 136.232 98.6623 133.32 99.5759C130.436 100.546 127.496 101.66 124.498 102.973C121.501 104.286 118.532 105.714 115.591 107.255C112.651 108.825 109.825 110.481 107.084 112.223C104.229 114.05 101.574 115.962 99.119 117.961C96.6353 119.959 94.5228 121.958 92.6957 123.956C90.8686 125.954 89.4412 127.924 88.3849 129.894C87.3286 131.892 86.8148 133.748 86.8148 135.546C86.8148 136.974 87.3001 138.087 88.2707 138.858C89.2414 139.6 90.3262 140 91.4967 140C93.8091 140 96.4069 139.429 99.3474 138.316C102.259 137.174 105.342 135.632 108.597 133.662C111.851 131.692 115.192 129.38 118.617 126.697C122.043 124.013 125.412 121.101 128.695 117.989C131.921 114.935 134.975 111.766 137.859 108.511C140.771 105.257 143.397 101.974 145.738 98.6623C146.052 98.6052 146.338 98.5767 146.623 98.5481C146.909 98.5196 147.165 98.5196 147.422 98.5196C147.679 98.5196 147.993 98.5196 148.307 98.5481C148.65 98.5767 148.964 98.5767 149.278 98.5767C150.106 98.5767 150.506 98.3768 150.506 97.9772C150.506 97.2635 150.134 96.8923 149.421 96.8923C149.164 96.8923 148.793 96.9209 148.307 96.9494C147.822 96.9494 147.365 97.0065 146.88 97.0636C148.165 95.0938 149.364 93.1525 150.42 91.1827C151.505 89.2129 152.418 87.3002 153.161 85.5016C153.903 83.6746 154.474 81.9331 154.873 80.3059C155.302 78.6501 155.502 77.2227 155.502 75.9951ZM125.155 73.226C125.155 73.4258 124.984 73.8826 124.612 74.5392C124.241 75.1958 123.87 75.9095 123.413 76.6517C122.985 77.394 122.557 78.0506 122.157 78.7072C121.758 79.3353 121.501 79.7064 121.387 79.8206C121.187 80.0775 120.987 80.2773 120.787 80.4772C120.559 80.6485 120.473 80.7912 120.473 80.9054C120.473 80.9911 120.587 81.1338 120.844 81.2765C121.101 81.4193 121.415 81.562 121.758 81.6477C121.015 82.3043 120.188 83.0465 119.303 83.8744C118.446 84.7023 117.533 85.5016 116.619 86.3295C115.763 87.1003 114.792 87.9568 113.707 88.8703C112.622 89.841 111.595 90.6974 110.595 91.4967C109.596 92.2961 108.711 92.9527 107.969 93.4666C107.227 94.009 106.798 94.2945 106.627 94.2945C106.484 94.2945 106.399 94.0375 106.399 93.5237C106.399 92.6958 106.827 91.5253 107.626 89.9837C108.454 88.4706 109.596 86.7292 111.081 84.7879C112.223 83.3034 113.45 81.8189 114.792 80.363C116.105 78.8785 117.418 77.5653 118.703 76.4234C119.988 75.2529 121.13 74.3393 122.157 73.6256C123.185 72.9119 123.956 72.5408 124.47 72.5408C124.926 72.5408 125.155 72.7692 125.155 73.226ZM76.2805 73.226C76.2805 73.4258 76.1092 73.8826 75.7667 74.5392C75.3955 75.1958 74.9959 75.9095 74.5676 76.6517C74.1394 77.394 73.7112 78.0506 73.283 78.7072C72.8833 79.3353 72.6264 79.7064 72.5122 79.8206C72.3123 80.0775 72.1125 80.2773 71.9127 80.4772C71.7128 80.6485 71.5986 80.7912 71.5986 80.9054C71.5986 80.9911 71.7414 81.1338 71.9983 81.2765C72.2552 81.4193 72.5407 81.562 72.9119 81.6477C72.1411 82.3043 71.3132 83.0465 70.4567 83.8744C69.5717 84.7023 68.6867 85.5016 67.7732 86.3295C66.8882 87.1003 65.9176 87.9568 64.8327 88.8703C63.7765 89.841 62.7202 90.6974 61.721 91.4967C60.7218 92.2961 59.8654 92.9527 59.1231 93.4666C58.3809 94.009 57.9241 94.2945 57.7814 94.2945C57.6101 94.2945 57.553 94.0375 57.553 93.5237C57.553 92.6958 57.9526 91.5253 58.7805 89.9837C59.5799 88.4706 60.7504 86.7292 62.2349 84.7879C63.3482 83.3034 64.5758 81.8189 65.9176 80.363C67.2593 78.8785 68.544 77.5653 69.8287 76.4234C71.1133 75.2529 72.2838 74.3393 73.283 73.6256C74.3107 72.9119 75.0815 72.5408 75.5954 72.5408C76.0521 72.5408 76.2805 72.7692 76.2805 73.226ZM40.5669 96.3499C39.3964 98.0914 37.9975 100.004 36.4274 102.031C34.8287 104.086 33.0872 106.142 31.2031 108.226C29.2904 110.31 27.292 112.28 25.1509 114.192C23.0383 116.077 20.8687 117.761 18.6419 119.245C16.4152 120.73 14.1884 121.929 11.9902 122.785C9.792 123.67 7.65089 124.099 5.62398 124.099C3.88254 124.099 2.76917 123.67 2.2553 122.871C1.76998 122.043 1.5416 121.187 1.5416 120.245C1.5416 118.246 2.2553 116.248 3.68271 114.25C5.13866 112.251 6.99429 110.367 9.30668 108.54C11.5905 106.713 14.217 105.029 17.1003 103.516C19.9837 101.974 22.867 100.661 25.7504 99.5473C28.6052 98.4339 31.3744 97.606 34.0008 97.0065C36.6272 96.4356 38.8254 96.2072 40.5669 96.3499ZM69.3719 42.7366C69.3719 42.08 69.2862 41.3663 69.115 40.624C68.9151 39.8818 68.5725 39.2252 68.0301 38.6257C67.4877 38.0262 66.7169 37.5408 65.7177 37.1697C64.7186 36.77 63.3768 36.5988 61.6925 36.5988C58.3523 36.5988 54.8124 37.3696 51.044 38.9682C47.2757 40.5669 43.5644 42.651 39.8817 45.2203C36.199 47.8182 32.6305 50.7586 29.2333 54.0702C25.836 57.3818 22.8385 60.7219 20.2406 64.1191C17.6713 67.5449 15.5873 70.8565 14.0742 74.111C12.5326 77.3654 11.7618 80.2202 11.7618 82.6754C11.7618 84.217 11.9902 85.5587 12.4755 86.6721C12.9608 87.814 13.5889 88.7276 14.3597 89.4413C15.1305 90.155 15.9869 90.6974 16.929 91.0114C17.8997 91.354 18.8417 91.5253 19.8124 91.5253C22.5815 91.5253 25.4364 91.0971 28.3768 90.2977C31.3458 89.4698 34.1721 88.4706 36.9127 87.3002C39.6533 86.1297 42.1941 84.8736 44.535 83.5604C46.8474 82.2757 48.7602 81.1338 50.2447 80.1632C49.9021 80.9054 49.3597 81.9617 48.646 83.2463C47.9037 84.5596 47.1329 85.9299 46.2765 87.3287C45.4486 88.7276 44.6207 90.0979 43.7928 91.4397C42.9649 92.7814 42.2797 93.8377 41.7088 94.5799C39.8817 94.323 37.5693 94.4372 34.8001 94.9511C32.031 95.4364 29.1191 96.2072 26.0073 97.3206C22.8956 98.4339 19.8124 99.7757 16.7006 101.346C13.6174 102.945 10.8483 104.686 8.36459 106.627C5.90946 108.54 3.91109 110.624 2.34094 112.851C0.770799 115.077 0 117.333 0 119.645C0 120.701 0.199837 121.615 0.628058 122.357C1.02773 123.099 1.5416 123.728 2.14111 124.213C2.76917 124.698 3.42577 125.041 4.13947 125.241C4.88173 125.44 5.56688 125.555 6.22349 125.555C10.0775 125.555 13.8458 124.698 17.5856 122.985C21.3254 121.272 24.9225 119.017 28.3483 116.248C31.774 113.479 34.9714 110.367 37.8833 106.913C40.7952 103.458 43.3646 100.033 45.5628 96.5783C46.2194 96.8352 46.7332 97.2064 47.1044 97.6631C47.4469 98.1199 47.761 98.5481 48.0179 98.9764C48.3319 99.062 48.6174 99.0334 48.8744 98.8622C49.1313 98.6909 49.2455 98.4625 49.2455 98.2056C48.9885 97.6917 48.646 97.1493 48.2463 96.5783C47.8466 96.0359 47.2471 95.5506 46.4763 95.1224C47.19 94.0946 48.0179 92.8956 48.9029 91.4682C49.7879 90.0693 50.6729 88.5848 51.5579 87.0147C52.4143 85.4731 53.2708 83.903 54.0987 82.3328C54.898 80.7627 55.6117 79.3353 56.2398 77.9935C56.354 77.7937 56.5252 77.6224 56.7822 77.4511C57.0391 77.3083 57.296 77.1371 57.5815 76.9087C57.867 76.7088 58.0954 76.4804 58.3238 76.2235C58.5236 75.9666 58.6093 75.6526 58.6093 75.2243C58.6093 74.9674 58.2381 74.7105 57.4673 74.4535C56.6965 74.1966 55.5832 74.0824 54.0987 74.0824C53.6704 74.0824 53.3279 74.1681 53.0424 74.3964C52.7569 74.5963 52.5 74.8532 52.243 75.1672C51.9861 75.4527 51.7292 75.7953 51.4722 76.1664C51.2153 76.509 50.9013 76.823 50.5587 77.08C49.9021 77.5938 48.5318 78.5074 46.4763 79.8491C44.4208 81.1623 42.0228 82.5326 39.2251 83.903C36.4274 85.3018 33.4584 86.5008 30.261 87.5571C27.0921 88.6134 24.0375 89.1273 21.04 89.1273C18.8417 89.1273 17.2716 88.4992 16.301 87.2431C15.3303 85.987 14.8165 84.4454 14.8165 82.6183C14.8165 80.6199 15.6444 78.1648 17.3001 75.31C18.9274 72.4266 21.097 69.4291 23.7806 66.2317C26.4641 63.0628 29.5473 59.9226 33.0016 56.7823C36.4559 53.6705 40.0244 50.8443 43.7071 48.332C47.4184 45.8198 51.044 43.7929 54.6125 42.2227C58.2096 40.6811 61.4926 39.8818 64.4616 39.8818C66.774 39.8818 67.9159 40.6811 67.9159 42.2798C67.9159 43.3361 67.4592 44.5351 66.5456 45.8198C65.6035 47.0759 64.5758 48.3035 63.4339 49.4169C62.2634 50.5588 61.1786 51.5009 60.1509 52.2717C59.1231 53.0425 58.5236 53.4136 58.3238 53.4136C58.0954 53.4136 57.9526 53.385 57.867 53.2994C57.7528 53.2137 57.6386 53.1281 57.553 52.9854C57.4388 52.8712 57.3246 52.757 57.1533 52.6713C57.0106 52.6142 56.7822 52.5571 56.4681 52.5571C56.097 52.5571 55.4119 52.8997 54.3841 53.5278C53.385 54.1558 52.2145 54.9837 50.9013 55.9544C49.5881 56.925 48.2177 58.0098 46.7903 59.2088C45.3629 60.4079 44.0497 61.5783 42.8222 62.7203C41.6231 63.8336 40.6525 64.8614 39.8817 65.7464C39.1109 66.6314 38.7112 67.2594 38.7112 67.6305C38.7112 68.3442 38.9682 68.9152 39.4535 69.3434C39.9388 69.8002 40.4527 70 41.0236 70C41.4804 70 42.5081 69.5147 44.1068 68.5155C45.677 67.5163 47.5326 66.2317 49.6451 64.633C51.7292 63.0343 53.9559 61.2358 56.2683 59.2659C58.6093 57.2676 60.7218 55.2407 62.6631 53.2137C64.5758 51.1868 66.1745 49.2741 67.4592 47.4185C68.7438 45.5914 69.3719 44.0213 69.3719 42.7366Z" fill="url(#paint0_linear)"/>
<path d="M238.978 20.1834V62.5202C238.978 63.1768 238.436 63.7192 237.779 63.7192H202.665C202.037 63.7192 201.494 63.1768 201.494 62.5202L201.437 25.1793C201.409 24.6369 201.751 24.123 202.294 23.9517C207.975 22.3245 213.856 21.0969 219.851 20.2404C225.732 19.4411 231.698 19.0129 237.779 19.0129C238.436 19.0129 238.978 19.5267 238.978 20.1834Z" fill="#353233"/>
<path fill-rule="evenodd" clip-rule="evenodd" d="M214.027 52.4714C214.826 52.243 215.055 51.9004 216.482 51.929L215.14 50.4445C215.026 50.3303 214.941 50.2161 214.826 50.0733C214.684 49.9306 214.569 49.845 214.455 49.7022C214.227 49.4453 214.027 49.2455 213.77 48.96C213.627 49.588 213.513 50.2732 213.399 50.9012C213.285 51.6149 213.171 51.5008 214.027 52.4714ZM228.387 48.9314C226.474 49.4453 227.245 52.1574 229.072 51.7291C229.729 51.5579 230.328 50.8156 230.1 49.9592C229.928 49.3026 229.215 48.7316 228.387 48.9314ZM215.911 55.3547C214.027 55.8972 214.884 58.6092 216.653 58.1239C217.339 57.9526 217.938 57.2104 217.681 56.3254C217.481 55.6688 216.768 55.1264 215.911 55.3547ZM217.995 41.6231C215.711 42.137 216.482 45.5057 218.737 45.0489C219.565 44.849 220.308 44.0212 220.079 42.9649C219.879 42.1084 219.052 41.3662 217.995 41.6231ZM232.612 39.0823C230.271 39.3964 230.756 42.8221 233.04 42.5652C235.324 42.2797 234.867 38.7683 232.612 39.0823ZM231.927 34.9714H222.506C222.62 35.7708 223.248 36.4559 224.047 36.5701C224.247 36.5986 228.358 36.6557 228.701 36.5701C228.901 36.5415 229.186 36.199 229.614 35.9135C230.157 35.5709 230.642 35.3425 231.242 35.1712L231.927 34.9714ZM215.997 54.3556C212.771 54.8123 213.513 59.5513 216.653 59.0946C217.824 58.9518 218.88 57.8099 218.68 56.3825C218.481 55.212 217.396 54.1557 215.997 54.3556ZM232.412 38.1402C231.042 38.3686 229.871 39.5962 230.128 41.252C230.328 42.5937 231.641 43.7357 233.24 43.4787C234.582 43.2789 235.752 42.0228 235.495 40.3955C235.295 39.0538 234.011 37.8833 232.412 38.1402ZM217.795 40.681C216.511 40.9665 215.34 42.2226 215.711 43.907C215.997 45.1916 217.282 46.3335 218.909 45.9624C220.193 45.7055 221.364 44.4494 221.021 42.765C220.736 41.4804 219.451 40.3099 217.795 40.681ZM217.795 39.796C216.025 40.0815 214.455 41.7373 214.826 43.907C215.112 45.6484 216.768 47.19 218.909 46.876C220.707 46.5905 222.22 44.9347 221.906 42.765C221.621 40.9951 219.937 39.4535 217.795 39.796ZM215.74 52.9282C213.799 53.2422 212.143 54.9836 212.485 57.3246C212.771 59.2087 214.627 60.8931 216.882 60.522C218.795 60.2365 220.422 58.4379 220.108 56.1826C219.794 54.2699 218.024 52.5856 215.74 52.9282ZM214.484 36.3703C214.37 36.199 214.17 36.0848 214.113 35.7993C214.227 35.5709 214.484 35.4853 214.627 35.2569C214.569 35.1427 213.799 34.3148 213.627 34.2006C212.685 34.2862 209.288 37.5407 209.117 38.3401C209.145 38.4828 210.002 39.3678 210.116 39.4535C210.487 39.1965 210.744 38.5685 211.258 39.482L209.459 41.1949C208.232 42.2797 207.432 43.1933 208.403 45.2202C208.746 45.991 211.258 49.0456 212 49.9306C212.171 50.159 212.343 50.4159 212.543 50.5872L212.999 48.0464C212.771 47.8751 212.657 47.761 212.514 47.5611C211.429 46.2479 209.574 45.0489 210.173 43.1647C210.459 42.1941 211.572 41.5089 212.286 40.8238L215.711 37.7977C216.539 36.9983 217.71 35.8849 219.08 36.2561C220.022 36.4845 220.679 37.4836 221.25 38.0261L223.191 40.1101H226.988C227.074 39.5962 227.159 39.168 227.33 38.7398C227.559 38.1688 227.844 37.7691 227.93 37.5693L223.705 37.5407L220.793 34.3719C220.022 33.6296 219.023 33.1158 217.881 33.5725C216.711 34.0293 215.112 36.1133 214.484 36.3703ZM213.228 46.876L213.799 43.5073C213.941 41.9942 214.084 41.5375 214.798 40.5097C215.34 39.7675 216.311 39.168 217.196 38.9396C218.652 38.5685 220.022 38.8825 221.107 39.7104C222.363 40.6525 223.134 42.6223 223.819 43.9926L226.503 49.3311C226.617 49.2169 226.674 49.0456 226.788 48.9029C228.387 46.876 231.384 48.2748 231.099 50.6158C231.042 51.044 230.899 51.358 230.699 51.672C230.585 51.8148 230.499 51.9004 230.385 52.0432C230.185 52.243 230.1 52.243 229.957 52.3857C230.442 52.6141 230.985 52.7854 231.499 52.9567C232.298 53.2707 232.526 53.4706 233.126 53.2993C233.725 53.0994 235.952 52.5285 236.352 52.3001C236.209 51.9861 235.295 51.1867 236.009 49.8735C236.209 49.5595 236.323 49.5309 236.523 49.274C236.266 49.0456 230.328 46.2479 229.9 45.9339C229.729 45.8197 229.786 45.8197 229.586 45.7055C228.33 44.8776 227.416 43.5358 227.074 42.0513C227.016 41.7373 227.016 41.3376 226.931 41.0521H222.734C222.42 40.5668 221.193 39.3964 220.707 38.8539C219.48 37.5693 218.795 36.3417 217.082 37.8833C216.768 38.1688 216.482 38.3972 216.168 38.6827C215.112 39.5391 213.57 41.0807 212.543 41.9086C212.2 42.1655 211.915 42.451 211.6 42.7365C210.858 43.3645 210.801 44.3066 211.515 45.0774L212.971 46.6476C213.085 46.7903 213.056 46.7618 213.228 46.876ZM214.398 45.5627L213.97 47.7324C214.198 48.0179 214.341 48.1606 214.598 48.4176L217.681 51.7862C217.853 51.9861 218.024 52.243 218.338 52.3857C219.223 52.8425 219.851 53.3278 220.393 54.2414C221.021 55.2977 220.593 55.0978 221.649 56.1255L222.306 56.8107C222.563 57.1247 223.619 58.3808 223.876 58.5236C224.447 57.4102 225.846 56.2397 226.902 55.5546C228.844 54.2414 230.499 54.2414 231.242 53.8417L230.842 53.6419C230.728 53.6133 230.614 53.5562 230.442 53.4991C230.157 53.4135 229.9 53.2993 229.614 53.2136C226.931 52.243 227.074 52.4999 225.903 50.1019C224.932 48.1035 223.876 46.1052 222.848 44.1353C222.335 46.0195 221.278 47.3613 219.28 47.761C217.71 48.1035 216.254 47.5611 215.198 46.5619C214.855 46.2765 214.684 45.9339 214.398 45.5627ZM217.653 61.3498H220.051C219.851 61.0644 219.651 60.8074 219.565 60.5791L219.622 60.5505C219.851 60.3792 220.022 60.3221 220.108 60.0081C220.108 60.0366 220.136 60.0366 220.136 60.0366L220.393 60.3221C220.479 60.4649 220.536 60.5505 220.65 60.6932L221.136 61.3498H222.534C222.591 61.2071 222.62 61.0929 222.649 60.9787L223.305 59.38C223.105 59.1516 223.02 59.0375 222.763 58.7805C222.449 58.4665 221.278 57.0676 221.078 56.982C221.021 58.4094 220.251 59.6655 219.537 60.265C218.737 60.9502 218.195 61.2071 217.653 61.3498ZM210.944 61.3498H214.341L213.97 60.9787C213.199 60.4078 212.742 60.1223 212.2 59.2658C210.915 57.2104 211.743 55.8115 212 53.5562C210.687 53.6419 210.944 55.0407 210.944 56.2397C210.944 57.4959 210.944 58.752 210.944 59.9795C210.944 60.4363 210.915 60.9216 210.944 61.3498ZM236.609 29.2903V25.7504H236.352H229.129C227.273 25.7504 224.761 26.0929 223.105 26.8637C222.677 27.0636 222.22 27.292 222.021 27.606C221.821 27.9486 221.821 28.805 221.906 29.2618L236.609 29.2903ZM236.609 34.0008V30.2039H222.477V34.0008H236.609ZM236.609 36.2561V34.9714H233.64C233.725 35.0285 235.124 35.314 236.038 35.8849C236.18 35.9706 236.323 36.0562 236.437 36.1419C236.494 36.1704 236.552 36.2275 236.609 36.2561ZM236.609 43.907V37.712C235.667 36.5701 234.153 35.8278 232.469 35.942C229.871 36.1133 227.73 38.3686 227.93 41.1949C228.13 43.7642 230.385 45.9053 233.211 45.7055C234.553 45.5913 235.781 44.9347 236.609 43.907ZM236.609 48.1892V45.2773C236.266 45.5342 235.895 45.8197 235.552 45.991C234.981 46.305 234.211 46.5619 233.468 46.6476C233.697 46.8474 236.038 47.9322 236.609 48.1892ZM236.609 54.7267V53.2707C235.638 53.5562 234.639 53.8417 234.211 53.9559C234.41 54.0701 235.667 54.3556 236.352 54.641C236.437 54.6696 236.523 54.6981 236.609 54.7267ZM236.609 57.8384V55.783C235.01 55.0407 233.126 54.6981 231.47 54.9265C230.043 55.0978 228.986 55.4404 227.901 56.0399C225.817 57.2104 224.276 59.1231 223.562 61.3498H225.446C226.56 58.7234 229.043 56.9249 231.927 56.668C233.668 56.5252 235.295 56.982 236.609 57.8384ZM236.609 61.3498V59.0089C235.295 57.9812 233.611 57.4102 231.698 57.6671C229.357 57.9812 227.473 59.38 226.503 61.3498H236.609Z" fill="#FEFEFE"/>
<path class="hover_blue" fill-rule="evenodd" clip-rule="evenodd" d="M208.372 61.35C208.344 60.4935 208.372 59.6085 208.372 58.7235C208.372 57.3818 208.287 55.6689 208.401 54.3842C208.515 52.9568 209.143 52.3573 210 51.5865L208.058 49.0743C207.716 48.6461 207.402 48.2749 207.059 47.8182C205.346 45.62 204.69 42.8793 206.517 40.5099C206.831 40.1102 206.831 40.2244 207.031 39.9389C206.802 39.5678 206.831 39.7391 206.688 39.1395C206.431 38.1118 206.574 37.3981 207.173 36.5131C207.63 35.8565 208.744 34.6575 209.314 34.1436C210.371 33.2301 211.969 31.6314 213.568 31.6314C214.196 31.6314 214.996 31.8312 215.281 32.1738C215.966 31.8598 216.594 30.7464 219.306 30.8606C219.335 29.2048 219.049 27.3777 219.906 26.1787C221.333 24.1518 224.959 23.5237 227.471 23.2097C227.956 23.1526 233.894 23.1526 236.606 23.1812V21.3826C231.011 21.4397 225.53 21.8394 220.163 22.6102C214.596 23.381 209.143 24.5229 203.805 26.0074L203.862 61.35H208.372Z" fill="#C4C4C4"/>
<path d="M241.266 62.5202V20.1834C241.266 19.5267 241.779 19.0129 242.436 19.0129C248.517 19.0129 254.512 19.4411 260.393 20.2404C266.388 21.0969 272.24 22.3245 277.921 23.9517C278.492 24.123 278.835 24.6369 278.778 25.1793L278.749 62.5202C278.749 63.1768 278.207 63.7192 277.55 63.7192H242.436C241.779 63.7192 241.266 63.1768 241.266 62.5202Z" fill="#353233"/>
<path d="M241.266 115.049V67.1736C241.266 66.517 241.779 65.9745 242.436 65.9745H277.55C278.207 65.9745 278.749 66.517 278.749 67.1736C278.749 67.2021 278.749 67.2307 278.749 67.2878V68.2584C278.749 84.3595 274.981 95.008 268.586 102.345C262.191 109.682 253.199 113.593 242.722 116.191C242.094 116.362 241.437 115.962 241.294 115.334C241.266 115.249 241.266 115.134 241.266 115.049Z" fill="#353233"/>
<path d="M238.978 67.1736V115.049C238.978 115.134 238.978 115.249 238.949 115.334C238.778 115.962 238.15 116.362 237.522 116.191C227.016 113.593 218.052 109.682 211.629 102.345C205.234 95.008 201.494 84.3595 201.494 68.2584V67.2878C201.494 67.2307 201.494 67.2021 201.494 67.1736C201.494 66.517 202.008 65.9745 202.665 65.9745H237.779C238.435 65.9745 238.978 66.517 238.978 67.1736Z" fill="#353233"/>
<path d="M205.634 12.9323C204.977 13.1036 204.349 12.7325 204.178 12.1044C204.006 11.4478 204.378 10.8197 205.006 10.6484C211.001 9.04975 216.91 7.82218 222.763 6.99429L223.105 6.93719C223.276 5.73817 223.505 4.62479 223.705 3.65416C218.28 4.48205 212.828 5.68107 207.289 7.22267C206.661 7.39396 206.005 7.05138 205.833 6.39478C205.662 5.76672 206.033 5.13866 206.661 4.93882C212.371 3.34013 218.024 2.11256 223.562 1.28466C229.157 0.45677 234.667 0 240.12 0C245.572 0 251.082 0.45677 256.649 1.28466C262.216 2.11256 267.84 3.34013 273.55 4.93882C274.206 5.13866 274.577 5.76672 274.377 6.39478C274.206 7.05138 273.55 7.39396 272.922 7.22267C267.412 5.68107 261.931 4.48205 256.535 3.65416C256.735 4.62479 256.935 5.73817 257.134 6.93719L257.477 6.99429C263.301 7.82218 269.239 9.04975 275.205 10.6484C275.833 10.8197 276.233 11.4478 276.062 12.1044C275.891 12.7325 275.234 13.1036 274.606 12.9323C268.839 11.3907 263.13 10.1917 257.477 9.39233C257.62 10.5057 257.734 11.6191 257.791 12.6183L258.333 12.6754C264.471 13.5318 270.666 14.7594 276.947 16.3295C277.575 16.5008 277.975 17.1574 277.803 17.7855C277.632 18.4135 277.004 18.8132 276.376 18.6419C270.152 17.0718 264.043 15.8442 257.991 15.0449C252.081 14.217 246.086 13.7887 240.12 13.7887C234.153 13.7887 228.13 14.217 222.22 15.0449C216.196 15.8442 210.059 17.0718 203.864 18.6419C203.236 18.8132 202.579 18.4135 202.436 17.7855C202.265 17.1574 202.665 16.5008 203.293 16.3295C209.545 14.7594 215.768 13.5318 221.906 12.6754L222.448 12.6183C222.506 11.6191 222.62 10.5057 222.763 9.39233C217.11 10.1917 211.4 11.3907 205.634 12.9323ZM253.994 3.31158C249.341 2.68352 244.687 2.36949 240.12 2.36949C235.524 2.36949 230.899 2.68352 226.217 3.31158C225.988 4.16802 225.76 5.30995 225.56 6.62316C230.471 6.02365 235.324 5.70962 240.12 5.70962C244.916 5.70962 249.769 6.02365 254.679 6.62316C254.451 5.30995 254.223 4.16802 253.994 3.31158ZM255.05 9.04975C250.026 8.42169 245.03 8.07911 240.12 8.07911C235.181 8.07911 230.214 8.42169 225.189 9.04975C225.046 10.1917 224.904 11.3051 224.818 12.3042C229.985 11.7047 235.095 11.4192 240.12 11.4192C245.144 11.4192 250.254 11.7047 255.393 12.3042C255.307 11.3051 255.193 10.1917 255.05 9.04975Z" fill="#353233"/>
<path fill-rule="evenodd" clip-rule="evenodd" d="M263.015 73.2543L262.872 73.4542C263.072 73.6826 269.495 78.3644 269.724 78.4501C269.895 78.2788 269.981 78.1646 269.981 77.9648C269.952 77.7649 269.867 77.7078 269.667 77.5365L263.672 73.1687C263.415 72.9974 263.186 72.9974 263.015 73.2543ZM261.331 75.3669C260.845 75.9664 260.902 75.8237 262.387 76.9085C263.643 77.822 264.899 78.7356 266.155 79.6491C266.698 80.0488 267.526 80.791 268.068 80.9338L268.382 80.5055C268.182 80.1344 268.039 80.1059 267.64 79.8204L263.129 76.5374C262.701 76.2233 261.73 75.3669 261.331 75.3669ZM262.216 74.2535C261.816 74.7959 261.787 74.5961 263.301 75.7095C264.185 76.3375 268.582 79.6206 268.896 79.6777C269.495 79.0496 268.953 78.9069 267.982 78.1932C267.212 77.6222 263.215 74.6532 262.644 74.3106C262.473 74.1964 262.387 74.2535 262.216 74.2535ZM259.646 98.1768C259.789 98.1483 259.96 97.8628 260.075 97.6915L247.542 88.5276C246.942 89.2413 247 89.0129 248.113 89.8693C250.597 91.8106 253.737 94.0088 256.335 95.9215C256.763 96.207 259.389 98.1768 259.646 98.1768ZM259.447 92.039C259.761 92.3816 260.646 92.9525 261.074 93.238C261.445 93.5235 262.159 93.5806 262.587 93.6948C262.929 93.2666 264.185 91.7821 264.357 91.4109L261.445 89.2984L259.447 92.039ZM250.54 84.9305C250.825 85.3016 251.053 85.9582 251.453 86.2437C251.824 86.5292 252.738 87.2429 253.137 87.4427L254.679 85.3302C255.307 84.4452 255.564 85.0447 252.167 82.561C251.91 82.7894 250.825 84.5023 250.54 84.9305ZM264.385 71.57L263.9 72.3408C264.1 72.5692 269.324 76.309 270.123 76.9085C270.181 76.937 270.352 77.0798 270.38 77.1083C270.523 77.1654 270.495 77.3082 270.78 76.623C270.894 76.2519 270.694 75.9664 270.438 75.3669C270.323 75.11 270.266 74.7959 270.038 74.5961C269.61 74.225 266.555 71.9697 266.212 71.8555C265.927 71.7984 264.585 71.5129 264.385 71.57ZM253.109 82.2755C256.563 84.8449 260.36 87.5569 263.843 90.0977L264.328 90.4403C264.3 90.269 264.271 90.0121 264.214 89.8408C264.157 89.6124 264.128 89.4126 264.071 89.1842C263.9 88.499 264.128 88.7274 263.101 87.9852C261.959 87.1573 255.735 82.5325 255.05 82.1328C254.793 81.9901 253.423 82.1899 253.109 82.2755ZM253.794 87.9281L258.79 91.5537L260.731 88.8701L255.764 85.216L253.794 87.9281ZM248.712 86.0724C248.513 86.3579 247.742 87.4142 247.742 87.6426C247.77 87.7568 247.628 87.614 247.856 87.7853L254.251 92.4672C256.449 94.0659 258.647 95.636 260.817 97.2633L262.044 95.8073C261.702 95.4077 261.388 94.8652 261.074 94.3799C260.703 93.8661 259.989 93.4378 259.447 93.0382L252.195 87.7568C251.624 87.3285 251.025 86.7576 250.397 86.5863C249.826 86.415 249.255 86.2723 248.712 86.0724ZM256.535 82.2184L263.329 87.1858C263.672 86.7576 264.1 86.1295 264.442 85.6728C264.814 85.1589 265.185 84.645 265.556 84.1312L267.24 81.9044C267.44 81.5904 267.297 81.4476 267.04 81.2478L260.96 76.8228C260.474 76.4803 260.36 76.8799 259.789 77.7078L256.535 82.2184ZM272.265 68.3441H269.895C268.982 69.2576 269.867 68.8865 269.01 70.0569C268.753 70.4566 268.81 70.371 268.439 70.5137C268.154 70.5994 268.097 70.5423 267.868 70.8848C267.697 71.1418 267.497 71.3702 267.326 71.6271L270.095 73.654C270.637 72.9403 270.78 72.8832 270.78 72.2837C270.78 71.9982 270.78 71.9697 271.008 71.6556C271.237 71.3131 271.265 71.2274 271.579 71.0561C272.208 70.7135 272.122 70.7992 272.464 70.114C272.607 69.8286 272.721 69.0578 272.75 68.8008C272.664 68.7152 272.493 68.5439 272.265 68.3441ZM243.631 99.0618V99.3758L245.829 101.032L245.315 101.974L246 102.745L245.686 103.23L246.628 103.915L247 103.458C247.285 103.601 247.685 103.858 247.97 103.886L248.655 103.116L249.854 103.944C247.742 106.77 246.571 105.057 245.058 104.029L244.63 104.886C246.143 105.999 246.942 106.97 248.541 106.713C249.769 106.513 250.825 105.143 251.767 103.972L252.681 104.058L257.334 97.6344C257.106 97.3775 248.741 91.2967 248.427 91.154L243.688 97.5202L244.059 98.3767L243.631 99.0618Z" fill="#FEFEFE"/>
<path class="hover_blue" fill-rule="evenodd" clip-rule="evenodd" d="M243.631 106.741L244.916 107.683C245.972 108.454 246.686 108.797 247.77 108.854C249.483 108.939 251.196 108.054 252.709 106.142L253.708 106.227L258.305 99.8612L260.16 101.117L260.874 100.147L261.102 100.289L264.642 95.893C264.5 95.7217 264.185 95.3506 264.128 95.1222L266.755 91.782C266.755 91.6679 266.698 91.3538 266.669 91.2396C266.612 91.0113 266.584 90.9256 266.555 90.6687L265.898 87.6426C265.841 87.4713 265.784 87.4713 265.813 87.3285C265.813 87.3285 268.753 83.2747 268.953 83.132C269.096 83.0463 269.01 83.1891 269.21 82.9321C269.524 82.5325 270.495 81.1907 270.637 80.9052C270.78 80.5912 271.665 79.3351 271.979 78.9354C272.464 78.2502 272.15 78.6214 272.293 78.3073C272.407 78.0219 273.064 77.2225 273.292 76.9085C273.207 76.8228 272.208 74.3677 272.265 74.225C272.436 74.0251 272.807 73.5684 272.864 73.34C272.921 73.0545 272.721 72.8261 273.064 72.6263C273.949 72.1124 273.749 72.2551 274.234 71.256C274.691 70.2853 274.577 70.5708 274.748 69.5145C274.805 69.1434 274.862 68.7437 274.948 68.3441H276.376C276.347 83.76 272.807 93.8946 266.812 100.803C261.074 107.369 253.052 111.023 243.631 113.536V106.741ZM243.631 68.3441V94.0944L246 90.8685L244.23 89.4982L244.944 88.5276L244.744 88.3563C245.115 87.7568 247.599 83.8171 247.827 83.6458L248.712 83.9028L251.11 80.3343L255.05 79.9346C255.393 79.906 255.535 79.9917 255.621 79.906L258.504 75.9093C258.704 75.6238 258.647 75.6524 258.676 75.5382C258.676 75.5096 258.647 75.5667 258.733 75.3954L262.016 71.0847C262.159 70.999 262.101 71.1132 262.273 70.9419C262.558 70.6279 262.958 69.9713 263.243 69.6002C263.557 69.6573 264.899 69.6858 265.385 69.7144C265.613 69.7144 265.927 69.7144 266.098 69.7429C266.27 69.5145 266.526 69.1149 266.698 68.9436C266.869 68.7723 267.154 68.7437 267.383 68.6295C267.411 68.5153 267.44 68.4297 267.469 68.3441H243.631Z" fill="#C4C4C4"/>
<path d="M264.471 51.6436C263.871 52.1289 264.557 53.1281 265.213 52.5856C265.813 52.1574 265.099 51.1297 264.471 51.6436ZM266.469 53.956C265.841 54.4984 266.669 55.4119 267.269 54.8695C267.811 54.3842 267.097 53.4135 266.469 53.956ZM267.583 57.0106C267.012 57.553 267.84 58.4666 268.439 57.867C268.982 57.3532 268.182 56.4111 267.583 57.0106ZM262.216 57.867C261.616 58.438 262.416 59.323 263.044 58.7806C263.615 58.2667 262.815 57.3246 262.216 57.867ZM249.055 39.4821C248.484 40.1101 249.426 40.9095 249.969 40.31C250.454 39.739 249.626 38.8826 249.055 39.4821ZM250.568 36.7414C249.94 37.2839 250.739 38.1974 251.367 37.6835C251.967 37.1411 251.168 36.199 250.568 36.7414ZM247.228 46.5049C246.429 47.1901 247.456 48.3605 248.256 47.7039C248.998 47.1044 248.056 45.7912 247.228 46.5049ZM258.99 51.1582C258.79 51.3295 258.733 51.4437 258.676 51.6721C258.533 52.3287 259.332 52.9282 259.96 52.4144C260.703 51.8148 259.818 50.5016 258.99 51.1582ZM246.686 54.4127C245.915 55.1835 247.085 56.2398 247.799 55.5261C248.484 54.8409 247.456 53.6134 246.686 54.4127ZM254.765 44.6207C253.994 45.363 255.107 46.4478 255.849 45.7341C256.592 45.0204 255.507 43.8499 254.765 44.6207ZM254.022 57.0962C253.137 57.7243 254.079 59.0375 254.964 58.3809C255.735 57.8099 254.879 56.4967 254.022 57.0962ZM261.845 57.1819C262.501 56.6966 263.358 56.9535 263.729 57.4959C264.243 58.1811 263.986 59.0661 263.472 59.4372C261.987 60.522 260.274 58.3238 261.845 57.1819ZM264.1 50.9584C264.785 50.5016 265.613 50.7871 265.984 51.3295C266.469 52.0432 266.184 52.8997 265.613 53.2708C264.1 54.27 262.53 52.0147 264.1 50.9584ZM267.154 56.354C267.84 55.8116 268.725 56.0685 269.124 56.6109C269.638 57.2675 269.381 58.124 268.896 58.5237C267.44 59.6656 265.699 57.4959 267.154 56.354ZM248.655 38.8255C249.312 38.2545 250.168 38.5114 250.568 38.9967C251.139 39.7105 250.882 40.5669 250.397 40.9666C249.026 42.1085 247.171 40.053 248.655 38.8255ZM266.127 53.2423C266.812 52.7855 267.668 53.071 268.039 53.6705C268.496 54.4127 268.182 55.2406 267.583 55.6117C266.07 56.5538 264.557 54.27 266.127 53.2423ZM250.254 36.0277C249.626 36.3989 249.34 37.1697 249.74 37.9119C250.654 39.5106 253.109 38.1118 252.138 36.4845C251.796 35.885 250.939 35.571 250.254 36.0277ZM253.509 56.5253C255.136 55.2121 257.048 57.6958 255.45 58.9804C254.679 59.5799 253.708 59.323 253.252 58.752C252.624 57.9527 252.88 57.0106 253.509 56.5253ZM254.365 43.9356C255.136 43.3075 256.106 43.6215 256.563 44.2211C257.134 44.9918 256.849 45.9625 256.278 46.3907C254.679 47.6754 252.681 45.2773 254.365 43.9356ZM246.286 53.7276C247.057 53.0995 248.027 53.4135 248.484 54.0131C249.084 54.7838 248.798 55.7545 248.199 56.2113C246.6 57.4674 244.63 55.0693 246.286 53.7276ZM246.857 45.7912C247.628 45.2488 248.598 45.5628 249.026 46.1909C249.597 46.9902 249.283 47.9323 248.655 48.3891C246.971 49.5595 245.115 47.0473 246.857 45.7912ZM258.504 50.5587C259.304 49.9307 260.274 50.2447 260.731 50.9013C261.959 52.5856 259.361 54.3842 258.162 52.6998C257.619 51.929 257.933 50.987 258.504 50.5587ZM260.075 34.6003C260.417 34.2578 261.074 34.5718 261.302 34.8002C261.702 35.1713 261.959 35.6281 261.645 36.0277C261.102 36.7414 260.531 37.3981 259.96 38.1118C259.818 38.3116 259.675 38.5114 259.389 38.4543C259.332 38.4258 258.876 38.2259 258.847 38.1689C258.619 37.969 258.419 36.9698 258.419 36.7129C258.447 36.4845 259.903 34.7716 260.075 34.6003ZM266.241 39.5677C266.584 39.2822 267.212 39.6248 267.44 39.8246C267.611 39.9674 267.811 40.2529 267.868 40.4812C267.982 40.7667 267.897 40.8809 267.725 41.0808C267.411 41.4519 267.154 41.7659 266.869 42.137C266.384 42.7365 266.298 42.9935 265.87 42.9935C265.442 43.022 264.785 43.0791 264.557 42.8507C263.957 42.3083 264.071 42.137 264.471 41.6517C264.785 41.2806 265.955 39.7961 266.241 39.5677ZM250.768 50.9013L251.482 52.9853C251.653 53.0424 253.537 53.4135 253.623 53.385C253.765 53.385 254.936 51.9576 255.107 51.7292L254.365 49.6166C253.965 49.6166 252.424 49.217 252.224 49.2741C252.081 49.3026 250.996 50.6729 250.768 50.9013ZM249.911 50.7586C250.254 50.4731 251.767 48.5033 251.967 48.4747C252.053 48.4462 254.708 48.9315 254.907 49.0171L255.935 51.9005C255.621 52.2145 254.079 54.1558 253.908 54.1843C253.737 54.2129 251.367 53.6705 250.968 53.6705L249.911 50.7586ZM251.082 48.646C249.769 49.5881 249.084 51.5008 250.254 53.2137C251.139 54.4984 253.109 55.155 254.765 54.0416C256.078 53.1566 256.763 51.1582 255.621 49.5025C254.708 48.1892 252.738 47.4755 251.082 48.646ZM250.854 47.8752C252.909 46.6191 255.336 47.5041 256.392 49.2741C257.648 51.3295 256.763 53.7561 255.022 54.7838C252.938 56.0685 250.511 55.1835 249.455 53.4135C248.199 51.3295 249.084 48.96 250.854 47.8752ZM256.449 36.4845C256.62 36.7985 256.535 36.8271 256.42 37.4266C256.363 37.7692 256.306 38.0547 256.249 38.3972C256.078 39.3393 255.821 39.7961 256.392 40.31C256.563 40.4527 256.991 40.8809 257.163 40.9666C257.933 41.4233 258.305 41.3662 259.618 42.394C261.445 43.7928 262.101 45.0775 262.473 45.3344C263.615 46.1623 263.301 46.0767 265.556 45.1917C266.07 44.9633 266.212 44.8777 266.698 44.8491C267.069 45.8197 266.783 45.5343 267.554 46.1338C268.068 46.5334 270.894 48.9029 271.008 48.9315C271.351 49.0171 271.865 48.2178 272.065 47.9609C272.721 47.133 273.492 46.4193 273.435 45.4772C273.435 44.792 273.007 44.7064 272.579 44.2781C271.836 44.5636 271.751 44.2781 271.551 44.3638C271.437 44.4209 271.094 45.0204 270.951 45.1631L268.696 43.7072C267.925 44.2781 268.725 44.1925 267.154 44.3638C266.327 44.478 265.442 44.5351 264.614 44.4494C264.243 44.4209 264.157 44.3638 263.9 44.1925C262.815 43.593 262.159 42.4796 262.73 41.2806C262.844 41.0808 264.5 39.0824 264.785 38.7113C265.385 37.969 264.728 37.1126 263.843 36.7985C263.044 36.5416 262.672 37.341 261.987 38.1974C261.616 38.6256 261.302 39.0253 260.931 39.4821C260.56 39.9388 259.761 40.1101 259.218 40.0245C258.704 39.9388 258.305 39.739 257.848 39.3108C257.277 38.7398 257.22 38.4258 257.077 37.6264C256.963 37.0269 256.906 36.4274 256.849 35.8565C256.677 34.2863 256.934 35 257.163 34.3149L255.336 32.3736C255.478 32.0881 255.821 31.8597 255.992 31.5742C255.564 30.6892 256.249 30.1468 255.593 30.0326C253.794 29.6901 253.423 30.518 252.224 32.0025C251.339 33.0873 251.31 32.8304 252.538 33.8295C252.938 34.1721 253.394 34.5147 253.765 34.8573L255.65 36.3703C255.849 36.456 256.221 36.5131 256.449 36.4845ZM256.392 32.3165L258.219 34.2863C257.562 35.0571 257.534 35.0571 257.591 35.6281C257.648 36.1705 257.705 36.7414 257.819 37.3124C257.962 38.0832 257.962 38.3972 258.562 38.8826C258.933 39.1966 259.447 39.4535 260.075 39.1395C260.417 38.9967 261.816 37.1697 262.13 36.77C262.501 36.3132 262.872 35.9421 263.586 35.9706C264.728 36.0277 265.756 37.084 265.813 38.0832C265.841 38.6542 265.584 38.9967 265.213 39.4535L263.729 41.252C263.472 41.5946 263.415 41.5661 263.329 41.9372C263.215 42.5367 263.557 43.022 264.014 43.3646C264.557 43.7643 264.756 43.7072 265.47 43.7072C266.013 43.7072 266.612 43.6501 267.126 43.593C268.211 43.4788 267.668 43.5073 268.496 42.7365L268.782 42.8793C269.239 43.1648 270.438 43.8499 270.723 44.1069C271.18 43.7357 270.866 43.7357 271.608 43.593C271.979 43.5073 272.379 43.4788 272.721 43.3646C272.636 42.8222 272.778 42.9078 272.493 41.9087C272.065 40.3956 271.094 38.9397 270.152 37.7406C267.269 34.1436 261.531 29.9185 256.934 30.1754C256.877 30.4038 256.934 31.0604 256.934 31.3459C256.963 31.6884 256.649 32.1167 256.392 32.3165ZM262.501 61.3499H263.729C263.7 60.8931 263.158 60.4649 262.73 60.8931C262.587 61.0073 262.53 61.093 262.501 61.2643C262.501 61.2928 262.501 61.3214 262.501 61.3499ZM243.631 57.867V58.6949C243.888 58.4666 243.831 58.0954 243.631 57.867ZM243.631 55.5261V56.925C243.888 57.0106 244.116 57.1819 244.259 57.3817C244.83 58.0954 244.573 58.9233 244.059 59.3515C243.916 59.4657 243.774 59.5514 243.631 59.5799V61.3499H248.427C248.798 61.1786 249.198 61.1786 249.54 61.3499H250.996C250.311 61.2072 249.597 61.0073 248.884 60.7219C248.227 60.4649 247.114 59.7512 246.543 59.2945C245.515 58.438 244.659 57.4959 243.916 56.1256C243.831 55.9258 243.717 55.7259 243.631 55.5261ZM243.631 49.8736V52.8426C243.774 53.8418 244.116 54.8695 244.659 55.8401C247 60.1509 252.566 62.2349 257.391 59.637C261.702 57.3246 263.843 51.7007 261.216 46.876C258.761 42.3654 253.052 40.5383 248.427 43.0791C245.743 44.5351 244.059 47.1044 243.631 49.8736ZM243.631 43.3361V44.5636C243.745 44.5351 243.859 44.5065 243.945 44.3923C244.402 44.0212 244.059 43.3932 243.631 43.3361ZM243.631 40.4812V41.3377C243.888 41.0808 243.831 40.7096 243.631 40.4812ZM243.631 37.2553V38.283C243.859 38.4258 244.173 38.4258 244.43 38.1689C244.887 37.655 244.173 36.8556 243.631 37.2553ZM243.631 36.0563V36.3989C244.173 36.2561 244.773 36.5416 245.058 36.9413C245.572 37.6264 245.315 38.4543 244.83 38.854C244.43 39.168 244.002 39.2251 243.631 39.1395V39.5963C243.916 39.6819 244.145 39.8817 244.316 40.1101C244.801 40.7953 244.544 41.6803 244.002 42.0514C243.859 42.137 243.745 42.1941 243.631 42.2512V42.5653C244.031 42.5938 244.402 42.7936 244.63 43.0791C245.172 43.7357 244.944 44.5922 244.43 45.0204C244.173 45.2202 243.888 45.3344 243.631 45.3344V47.2186C244.544 45.1346 245.886 43.593 248.113 42.3654C249.426 41.6232 251.053 41.2235 252.424 41.1664C256.335 40.9666 260.017 43.022 261.902 46.5334C263.358 49.1884 263.386 51.8719 262.615 54.5269C262.53 54.8124 262.387 55.0979 262.273 55.3548C262.016 56.0971 261.416 57.0677 260.902 57.6958C259.275 59.6656 257.22 60.8931 255.022 61.3499H261.702C261.702 60.9217 261.902 60.4649 262.387 60.1509C263.072 59.7227 263.929 60.0082 264.3 60.6077C264.442 60.836 264.5 61.093 264.5 61.3499H267.725C268.125 60.7504 268.468 60.1509 268.81 59.5228L269.381 58.3524C270.209 56.5824 270.723 53.9274 270.78 51.9576L270.752 49.8736C270.723 49.6166 270.495 49.5595 270.295 49.3883L266.612 46.3907C266.327 46.1338 266.327 46.2194 266.184 45.7626C263.672 46.7904 263.643 47.133 262.044 45.991C261.131 45.363 260.788 43.7072 257.562 42.0228C257.391 41.9372 257.334 41.8801 257.163 41.823C256.535 41.5946 256.506 41.4519 255.964 40.9666C255.221 40.31 255.193 39.8532 255.336 39.0253C255.45 38.4258 255.564 37.7977 255.678 37.1697C255.193 37.0555 255.507 37.2839 254.907 36.7985C254.65 36.5987 254.422 36.3989 254.222 36.199C253.651 36.5131 253.052 36.5987 252.538 36.1705C251.91 35.6852 251.938 35.0857 252.081 34.4861C251.995 34.4005 251.11 33.6583 251.053 33.6297C250.911 33.5441 250.882 33.5726 250.711 33.6012C248.056 34.0008 245.743 34.7716 243.631 36.0563Z" fill="#FEFEFE"/>
<path class="hover_green" d="M243.631 21.3826V33.6869C244.973 33.0017 246.4 32.4307 247.97 32.0311C248.17 31.974 248.998 31.8312 249.084 31.7456C249.169 31.6885 249.283 31.403 249.34 31.3174C249.426 31.1746 249.54 31.0604 249.626 30.9462C250.34 30.0327 251.367 28.6338 252.481 27.9772C253.223 27.549 253.994 27.3777 254.736 27.3492C256.677 27.2921 255.507 27.6061 256.734 27.5776C260.845 27.4919 264.214 29.2334 267.469 31.6028C269.438 33.0873 271.722 35.1999 273.292 37.5979C275.319 40.7097 275.319 42.9935 275.491 43.3361C275.633 43.5931 275.69 43.4218 275.805 43.8214C276.033 44.7635 276.204 45.5058 276.033 46.4479C275.719 48.1037 274.577 49.1885 273.435 50.5873C272.95 51.1868 272.864 50.9299 272.864 51.3581C272.893 54.8125 271.922 58.2953 270.181 61.35H276.376L276.404 26.0074C271.094 24.5229 265.641 23.381 260.075 22.6102C254.708 21.8394 249.198 21.4397 243.631 21.3826Z" fill="white"/>
<path fill-rule="evenodd" clip-rule="evenodd" d="M225.876 69.0292L213.743 74.7959C214.114 74.7674 214.913 74.4819 215.341 74.3677C215.912 74.1964 216.455 74.0537 217.026 73.8824C218.111 73.5684 219.224 73.2543 220.309 72.9118C220.708 72.7976 223.763 70.5708 224.505 70.0284C224.905 69.7715 225.619 69.3147 225.876 69.0292ZM226.075 99.5186L231.899 112.137C231.328 111.937 230.757 111.766 230.215 111.566L224.905 100.061L226.075 99.5186ZM236.61 113.536V108.112L231.443 96.9778L229.073 98.0912L236.153 113.393L236.61 113.536ZM236.61 106.484V98.1197L235.239 95.1793L232.071 96.6638L236.61 106.484ZM236.61 92.1246V89.07C236.124 88.9843 235.925 89.1842 235.354 89.3555C234.412 89.6409 233.441 89.8979 232.499 90.1834C230.643 90.7258 228.645 91.2396 226.789 91.8391V91.8106L226.818 91.782C226.789 91.6108 226.903 91.8106 226.789 91.725C224.905 92.3245 222.992 92.8383 221.108 93.3807C220.166 93.6662 219.167 93.9232 218.253 94.2086C216.626 94.7511 216.94 96.8636 218.339 97.2062C218.853 97.3204 219.138 97.2062 219.709 97.0349L233.926 92.8954C234.811 92.6385 235.725 92.3816 236.61 92.1246ZM225.533 68.3441H218.653L210.574 72.198C210.031 72.455 208.176 73.2543 207.833 73.5398C207.034 74.1679 207.062 75.9093 208.518 76.1377C209.004 76.1948 209.261 76.1091 209.775 75.8522C210.631 75.4525 222.65 69.7715 225.533 68.3441ZM232.813 112.422C233.612 112.679 234.44 112.936 235.268 113.165L228.445 98.3767L226.704 99.2331L232.813 112.422ZM224.077 85.9868C223.934 85.9011 224.049 86.101 224.049 85.9582C224.049 85.8155 224.163 85.9868 224.077 85.9011C223.106 86.1295 222.164 86.4436 221.194 86.729C219.452 87.2429 217.226 87.8424 215.513 88.3848C213.914 88.8987 214.057 90.9256 215.57 91.3538C215.998 91.4966 216.369 91.3824 216.912 91.2111L225.447 88.7274C228.188 87.9281 231.243 87.0716 233.983 86.2437C235.553 85.7584 235.582 83.76 233.983 83.3318C233.527 83.2176 233.155 83.3604 232.613 83.5031C231.671 83.7886 230.729 84.0741 229.787 84.331L225.476 85.5871C225.076 85.7013 224.477 85.9297 224.077 85.9868ZM221.165 80.1915L221.308 80.0773C219.395 80.5912 217.511 81.1622 215.598 81.7046C214.656 81.99 213.686 82.247 212.772 82.5325C211.173 83.0463 211.23 85.0732 212.829 85.53C213.286 85.6728 213.629 85.53 214.171 85.3873C215.113 85.1018 216.055 84.8163 217.026 84.5594L228.445 81.2193C229.359 80.9623 230.358 80.7054 231.271 80.3914C232.813 79.906 232.784 77.822 231.128 77.4794C230.672 77.3938 230.272 77.5651 229.758 77.7078L224.049 79.3636C223.164 79.6206 222.079 80.0202 221.165 80.1915ZM218.482 74.3392L218.453 74.3106V74.2821V74.2535C217.568 74.4533 216.512 74.8245 215.598 75.0814C214.656 75.3669 213.714 75.6238 212.772 75.9093C211.83 76.1662 210.831 76.4232 209.917 76.7372C208.49 77.2225 208.433 79.1923 210.031 79.7062C210.46 79.8489 210.859 79.7062 211.373 79.5635L219.938 77.0512C221.85 76.5088 223.735 75.9379 225.647 75.3954C226.561 75.1385 227.56 74.8816 228.474 74.5675C230.129 74.0537 229.901 71.9697 228.416 71.6842C227.903 71.57 227.617 71.7127 227.046 71.8555C224.305 72.6834 221.194 73.6255 218.482 74.3392ZM220.794 99.7755C224.791 97.8628 228.902 95.9786 232.87 94.0373C232.727 94.0088 232.556 94.0944 232.413 94.123C232.27 94.1801 232.099 94.2086 231.956 94.2657L220.252 97.663C219.938 97.7486 219.652 97.8628 219.338 97.9199C218.967 98.0341 218.767 97.977 218.482 98.0055C218.425 98.5765 218.396 99.2046 219.053 99.6899C219.509 100.032 220.08 100.118 220.794 99.7755ZM219.823 92.9525C220.08 92.9525 226.075 91.154 226.875 90.9256C229.044 90.2975 228.359 90.6687 230.186 89.384C230.843 88.9272 232.613 87.614 233.155 87.3C232.898 87.3285 230.101 88.1564 229.615 88.2992L224.334 89.8408C223.82 89.9835 223.221 90.5259 222.792 90.8114C222.279 91.154 220.023 92.667 219.823 92.9525ZM216.969 87.1573C217.197 87.1287 219.995 86.2723 220.48 86.1295C221.651 85.8155 222.821 85.4729 224.02 85.1018C226.161 84.5023 225.647 84.8163 227.332 83.6173C227.76 83.3318 230.158 81.676 230.272 81.5047C230.044 81.5047 224.02 83.3033 223.221 83.5316C221.08 84.1597 221.708 83.7886 219.909 85.0447C218.938 85.7584 217.939 86.4436 216.969 87.1573ZM214.199 81.3334C214.599 81.2763 222.022 79.0496 223.021 78.7641C223.506 78.6214 224.106 78.1075 224.562 77.7935C225.533 77.1083 226.561 76.3946 227.531 75.6809L223.991 76.6801C222.393 77.1369 220.223 77.7078 218.682 78.2217C218.31 78.3359 216.141 79.9346 215.655 80.2772C215.199 80.6197 214.628 80.9623 214.199 81.3334Z" fill="#FEFEFE"/>
<path class="hover_green" fill-rule="evenodd" clip-rule="evenodd" d="M236.608 82.8179V68.3441H228.9C228.729 69.0578 228.386 69.486 228.329 69.6287C230.47 69.6287 232.954 72.4264 231.07 75.424C231.441 75.5096 231.441 75.4525 231.955 75.6238C232.269 75.738 232.44 75.7951 232.783 75.9949C233.982 76.7372 234.667 78.1932 234.467 79.592C234.381 80.3057 234.238 80.6197 233.839 81.2478C234.067 81.3334 234.724 81.3049 235.523 81.8188C235.951 82.1042 236.322 82.4468 236.608 82.8179ZM213.941 68.3441H203.863C203.892 83.76 207.403 93.8946 213.427 100.803C217.167 105.085 221.906 108.169 227.387 110.453L222.962 101.003C222.163 101.374 221.221 101.917 220.421 102.002C218.394 102.231 216.596 100.746 216.424 98.7763C216.367 98.2054 216.31 98.548 215.825 97.8343C215.311 97.1205 215.083 96.2356 215.111 95.4933C215.168 94.4656 215.425 94.2372 215.711 93.6377L215.739 93.5806C215.739 93.552 215.739 93.552 215.739 93.552C215.225 93.3807 214.911 93.5235 214.055 92.9525C212.856 92.2103 212.199 90.7829 212.371 89.384C212.485 88.4705 212.77 88.2421 212.999 87.7282C212.428 87.5569 211.971 87.5855 211.286 87.1287C209.659 86.0439 209.116 83.9313 210.001 82.2755C210.087 82.1328 210.172 82.0186 210.23 81.9044L209.944 81.8473C208.46 81.6189 207.232 80.477 206.889 78.9354C206.69 78.0504 207.061 78.5072 206.461 77.9362C205.548 77.0798 205.034 75.6238 205.119 74.4819C205.148 73.7967 205.462 73.083 205.947 72.5121C206.547 71.7984 207.318 71.5129 208.203 71.0847L213.941 68.3441Z" fill="white"/>
<path d="M89.3018 38.7114L83.535 20.0695C83.3067 19.4129 83.0497 19.0703 82.0505 19.0703H75.4559C74.7708 19.0703 74.628 19.5271 74.7708 20.0124L86.504 54.6698C87.389 57.2106 88.4453 57.6388 90.5864 57.6388H93.9836C96.0962 57.5817 97.1239 57.3248 97.9518 54.7269L109.799 20.0124C109.885 19.6128 109.885 19.0703 109.171 19.0703H102.462C101.635 19.0703 101.206 19.1845 100.978 19.8982L95.097 38.8256L92.4991 48.4463H92.128L89.3018 38.7114ZM136.406 56.7824C136.635 57.5532 137.177 57.6388 138.005 57.6388H144.571C145.342 57.6388 145.456 56.9822 145.285 56.554L133.837 22.0964C132.952 19.4129 132.01 19.0703 129.555 19.0703H126.243C123.988 19.1274 122.989 19.5557 122.218 22.0964L110.77 56.554C110.599 57.0964 110.77 57.6388 111.541 57.6388H117.993C119.02 57.6388 119.306 57.3248 119.534 56.6111L121.675 49.6168H134.265L136.406 56.7824ZM125.758 35.8281L127.842 27.9773H128.156L130.211 35.8281L132.295 42.7938H123.645L125.758 35.8281ZM168.294 50.7302C161.129 50.7302 158.988 45.877 158.988 38.5972C158.988 31.4602 161.842 26.2359 168.351 26.2359C171.149 26.2359 173.462 26.6641 176.088 27.6062C177.144 27.9773 177.373 27.8346 177.744 26.7783L179.457 22.8672C179.999 21.6682 179.885 21.3827 179.057 20.9545C175.66 19.0703 171.806 18.585 168.009 18.585C156.504 18.585 150.166 26.5499 150.166 38.5687C150.166 50.8158 155.505 58.2669 167.524 58.2669C170.036 58.2669 176.431 57.9814 180.827 55.3835C181.997 54.6698 182.14 53.7848 182.14 52.8142V41.2522C182.14 37.9406 181.712 35.7995 178.515 35.0858C177.316 34.8003 175.603 34.7147 173.718 34.7147C170.264 34.7147 166.467 35.6853 163.926 36.9129C163.156 37.284 163.156 37.6837 163.384 38.2832L164.811 42.7367C165.154 43.5646 165.468 43.4504 166.467 43.0793C168.894 42.0801 171.52 41.6233 174.061 41.7375L174.004 49.9023C172.034 50.616 169.665 50.7302 168.294 50.7302Z" fill="#353233"/>
<defs>
<linearGradient id="paint0_linear" x1="92.7054" y1="36.5989" x2="92.7054" y2="140" gradientUnits="userSpaceOnUse">
  <stop id="svg-color-one" class="hover_blue-gradient" stop-color="#C4C4C4"/>
  <stop id="svg-color-two" class="hover_green-gradient" offset="1" stop-color="#C4C4C4"/>
</linearGradient>
</defs>
</svg>