<svg width="132" height="67" viewBox="0 0 132 67" fill="none" xmlns="http://www.w3.org/2000/svg">
<path d="M87.3111 37.6153C87.4322 37.4134 87.4591 37.2249 87.3918 37.0095C87.338 36.8076 87.2034 36.6999 86.9745 36.6999C86.5707 37.2653 85.9649 37.9653 85.1572 38.7999C84.3361 39.648 83.4611 40.4826 82.5188 41.3037C82.0207 41.7345 81.5092 42.1518 80.9842 42.5422C80.4592 42.9191 79.9476 43.2691 79.4496 43.5652C78.938 43.8749 78.4534 44.1037 77.9823 44.2787C77.5111 44.4402 77.0803 44.5345 76.69 44.5345C76.2996 44.5345 76.0034 44.3864 75.7746 44.1172C75.5323 43.8345 75.4246 43.4576 75.4246 42.9729C75.4246 42.5422 75.5053 42.071 75.6803 41.5595C75.8419 41.048 76.0707 40.5499 76.3265 40.0383C76.8919 39.8903 77.5649 39.648 78.3726 39.3114C79.1803 38.9749 79.9611 38.5845 80.7015 38.1537C81.4284 37.723 82.0611 37.2653 82.5995 36.7941C83.1245 36.323 83.3938 35.8653 83.3938 35.4345C83.3938 35.0441 83.2322 34.7749 82.9226 34.5999C82.613 34.4384 82.3438 34.2768 82.1284 34.1288C81.913 33.9941 81.6842 33.8057 81.4553 33.5768C81.2265 33.348 80.9438 33.2268 80.6072 33.2268C80.1226 33.2268 79.4899 33.4961 78.7092 34.048C77.9149 34.5865 77.1342 35.2999 76.3669 36.1749C75.5996 37.0634 74.9265 38.0595 74.3746 39.1633C73.8227 40.2806 73.54 41.3845 73.54 42.5018C73.54 43.4979 73.8227 44.2518 74.3746 44.7633C74.9265 45.2883 75.64 45.5441 76.515 45.5441C77.013 45.5441 77.5515 45.4364 78.1169 45.2345C78.6957 45.0325 79.2611 44.7499 79.8399 44.3999C80.4188 44.0499 80.9976 43.646 81.5765 43.1883C82.1688 42.7306 82.7342 42.2595 83.2861 41.7749C84.3764 40.8056 85.238 39.9576 85.8976 39.2172C86.5437 38.4903 87.0149 37.9518 87.3111 37.6153ZM82.0476 35.6499C82.0476 35.7711 81.8861 35.973 81.563 36.2287C81.2399 36.498 80.8361 36.7807 80.3649 37.0634C79.8938 37.3595 79.3822 37.6287 78.8303 37.8845C78.2784 38.1403 77.7669 38.3153 77.3092 38.4095C77.6188 37.9518 77.9553 37.5076 78.3053 37.1037C78.6553 36.6864 79.0053 36.3364 79.3553 36.0403C79.7053 35.7307 80.0419 35.4884 80.3515 35.3134C80.6611 35.1249 80.9303 35.0441 81.1457 35.0441C81.5361 35.0441 81.7784 35.098 81.8861 35.2191C81.9938 35.3403 82.0476 35.4884 82.0476 35.6499ZM66.2573 46.8498C65.7323 47.6037 64.9246 48.5729 63.8343 49.771C62.7439 50.9556 61.492 52.2344 60.0785 53.6075C58.6651 54.9671 57.1708 56.3402 55.5958 57.7402C54.0074 59.1267 52.4593 60.3786 50.9382 61.4824C49.417 62.5998 47.9901 63.5017 46.6574 64.2017C45.3382 64.9017 44.2209 65.2517 43.3325 65.2517C42.9151 65.2517 42.5921 65.117 42.3632 64.8344C42.1344 64.5517 42.0267 64.2286 42.0267 63.8382C42.0267 63.1113 42.2555 62.3305 42.7132 61.4959C43.1709 60.6748 43.8036 59.8132 44.6113 58.9517C45.419 58.0767 46.3747 57.2152 47.4517 56.3402C48.542 55.4652 49.7132 54.6306 50.9651 53.8094C52.2036 52.9883 53.4959 52.2075 54.842 51.4671C56.2016 50.7267 57.5343 50.0671 58.867 49.4614C60.1997 48.8556 61.492 48.3306 62.7439 47.8864C63.9958 47.4287 65.1669 47.0921 66.2573 46.8498ZM73.3246 35.9057C73.3246 35.3268 73.1631 35.0441 72.8534 35.0441C72.8265 35.0441 72.7458 35.0172 72.6111 34.9903C72.49 34.9499 72.3554 34.9364 72.2342 34.9364C72.1131 34.9364 72.0054 34.9364 71.9111 34.9634C71.8169 34.9903 71.7361 35.0576 71.6958 35.1788C71.4938 35.5961 71.1977 36.1076 70.7669 36.7268C70.3496 37.3326 69.865 37.9922 69.3265 38.6922C68.7746 39.3922 68.2092 40.0922 67.6035 40.7922C66.9977 41.5056 66.4054 42.1249 65.8266 42.6768C65.2477 43.2422 64.7227 43.6864 64.2516 44.0364C63.7804 44.3864 63.4035 44.5614 63.1073 44.5614C63.04 44.5614 62.9996 44.4402 62.9996 44.1979C62.9996 43.9691 63.0804 43.6326 63.2554 43.2287C63.417 42.8114 63.6458 42.3672 63.942 41.8691C64.2246 41.371 64.5746 40.8595 64.9785 40.3076C65.3689 39.7691 65.7996 39.2172 66.2573 38.6653C66.7419 38.0595 67.2535 37.4807 67.7785 36.9287C68.3169 36.3634 68.8285 35.8788 69.3265 35.4614C69.8111 35.0307 70.2958 34.6941 70.7534 34.4384C71.2111 34.1826 71.6015 34.0615 71.9515 34.0615C72.4496 34.0615 72.8534 34.2903 73.1361 34.748C73.19 34.5595 73.2169 34.4115 73.2169 34.3172C73.2169 33.873 73.0419 33.5499 72.6919 33.3345C72.3419 33.1192 71.9246 33.0115 71.44 33.0115C70.7669 33.0115 70.0669 33.2134 69.34 33.6038C68.6131 34.0076 67.8996 34.5191 67.1862 35.1653C66.4727 35.798 65.7996 36.5249 65.1535 37.3326C64.6285 37.9922 64.1708 38.6653 63.7535 39.3383C63.39 39.7153 63.0266 40.0787 62.6766 40.4422C61.99 41.0614 61.3573 41.6133 60.7516 42.0979C60.1458 42.5826 59.715 42.8249 59.4458 42.8249C59.2574 42.8249 59.1227 42.7576 59.0689 42.6095C59.0016 42.4614 58.9747 42.2999 58.9747 42.0979C58.9747 41.8556 59.0285 41.5864 59.1227 41.2633C59.217 40.9537 59.3247 40.6306 59.4458 40.3076C59.567 39.9845 59.6747 39.6749 59.7689 39.3653C59.8766 39.0691 59.917 38.7999 59.917 38.5845C59.917 38.248 59.8227 38.0057 59.6477 37.871C59.4727 37.723 59.2304 37.6422 58.9477 37.6422C58.8266 37.6422 58.6381 37.7095 58.3958 37.8307C58.5439 37.5884 58.7054 37.3057 58.867 36.9961C59.042 36.6864 59.1901 36.3768 59.3247 36.0672C59.4593 35.7711 59.567 35.4884 59.6477 35.2326C59.7285 34.9903 59.7689 34.7884 59.7689 34.6403C59.7689 34.0884 59.6074 33.6711 59.2843 33.4018C58.9612 33.1461 58.5574 33.0115 58.0728 33.0115C57.4939 33.0115 56.8612 33.2134 56.1881 33.6038C55.5151 34.0076 54.842 34.5191 54.1824 35.1653C53.5093 35.8114 52.8766 36.5249 52.2574 37.3326C51.6382 38.1537 51.0997 38.9749 50.6286 39.823C50.4266 40.1864 50.2382 40.5499 50.0632 40.8999C49.7401 41.2095 49.4036 41.5191 49.0401 41.8691C48.6632 42.2191 48.2863 42.5422 47.9228 42.8249C47.2228 43.3768 46.5767 43.8076 45.9844 44.0902C45.3921 44.3864 44.9613 44.5345 44.6651 44.5345C44.3824 44.5345 44.2344 44.3595 44.2344 44.0229C44.2344 43.7941 44.4363 43.4576 44.8267 42.9864C45.2305 42.5018 45.6613 41.9903 46.1324 41.4383C46.6036 40.873 47.0344 40.321 47.4382 39.7557C47.842 39.2037 48.0305 38.746 48.0305 38.3826C48.0305 37.723 47.8017 37.2653 47.344 36.9826C46.8863 36.6999 46.3209 36.5653 45.6478 36.5653C45.2305 36.5653 44.894 36.5518 44.6113 36.5249C44.3421 36.498 44.194 36.4307 44.194 36.3095C44.194 36.2557 44.3286 36.0807 44.5978 35.7576C44.8671 35.448 45.1632 35.098 45.4997 34.7076C45.8901 34.3038 46.2132 33.8999 46.4555 33.523C46.7113 33.1326 46.8459 32.8768 46.8459 32.7557C46.8459 32.3518 46.469 32.1365 45.7151 32.1365C45.3382 32.1365 44.894 32.3115 44.4228 32.648C43.9382 32.9845 43.494 33.3749 43.0632 33.8191C42.6325 34.2768 42.269 34.7345 41.9728 35.2057C41.6632 35.6768 41.5152 36.0403 41.5152 36.3095C41.5152 36.7268 41.6902 37.0499 42.0267 37.2787C42.1613 37.373 42.3228 37.4403 42.4978 37.4941C42.2959 37.7364 42.0401 37.9922 41.7305 38.3018C41.4209 38.6114 41.0844 38.9614 40.7209 39.3249C40.3575 39.7018 39.994 40.0787 39.6305 40.4422C38.9575 41.0614 38.3113 41.6133 37.719 42.0979C37.1133 42.5826 36.669 42.8249 36.4133 42.8249C36.2113 42.8249 36.0902 42.7576 36.0229 42.6095C35.969 42.4614 35.9421 42.2999 35.9421 42.0979C35.9421 41.8556 35.9825 41.5864 36.0767 41.2633C36.1844 40.9537 36.2921 40.6306 36.4133 40.3076C36.5344 39.9845 36.6421 39.6749 36.7363 39.3653C36.8306 39.0691 36.8844 38.7999 36.8844 38.5845C36.8844 38.248 36.7902 38.0057 36.6017 37.871C36.4267 37.723 36.1844 37.6422 35.9017 37.6422C35.7806 37.6422 35.6056 37.7095 35.3633 37.8307C35.4979 37.5884 35.6594 37.3057 35.8344 36.9961C35.996 36.6864 36.144 36.3768 36.2786 36.0672C36.4133 35.7711 36.521 35.4884 36.6017 35.2326C36.6959 34.9903 36.7363 34.7884 36.7363 34.6403C36.7363 34.0884 36.5748 33.6711 36.2517 33.4018C35.9152 33.1461 35.5113 33.0115 35.0267 33.0115C34.4479 33.0115 33.8287 33.2134 33.1421 33.6038C32.469 34.0076 31.796 34.5191 31.1364 35.1653C30.4768 35.8114 29.8306 36.5249 29.2114 37.3326C28.6056 38.1537 28.0537 38.9749 27.5825 39.823C27.1114 40.671 26.7345 41.4922 26.4518 42.2864C26.1556 43.0806 26.0075 43.7806 26.0075 44.3864C26.0075 44.7499 26.0883 45.0729 26.2499 45.3691C26.3979 45.6518 26.5999 45.7998 26.8422 45.7998C27.0172 45.7998 27.2729 45.6652 27.6364 45.4229C27.9998 45.1672 28.4037 44.8575 28.8345 44.5075C29.2787 44.1575 29.7094 43.7806 30.1537 43.3902C30.6114 42.9864 30.9883 42.6499 31.2979 42.3537C31.621 42.071 31.9575 41.7614 32.3344 41.4383C32.7114 41.1018 33.0614 40.8056 33.3844 40.523C33.7075 40.2537 33.9902 40.0114 34.219 39.823C34.4479 39.621 34.569 39.5268 34.596 39.5268C34.6498 39.5268 34.6902 39.5537 34.7306 39.6076C34.7575 39.648 34.771 39.7153 34.744 39.7826C34.6902 39.8768 34.6229 40.1595 34.5421 40.6172C34.4613 41.0749 34.421 41.4653 34.421 41.7749C34.421 42.4076 34.5152 42.9326 34.7037 43.3768C34.9056 43.8076 35.2152 44.0229 35.646 44.0229C35.9421 44.0229 36.2786 43.9152 36.6556 43.7133C37.0459 43.5114 37.4229 43.2556 37.7998 42.9729C38.1767 42.6768 38.5402 42.3806 38.8902 42.071C39.2402 41.7479 39.5498 41.4922 39.819 41.2633C40.0613 41.048 40.3575 40.7518 40.7209 40.3883C41.0844 40.0114 41.4344 39.6345 41.7844 39.2576C42.1344 38.8807 42.444 38.5441 42.7132 38.248C42.9825 37.9384 43.1305 37.7499 43.1844 37.6826C43.1978 37.6557 43.2113 37.6287 43.2113 37.6153H43.3055C43.7901 37.6153 44.2209 37.5884 44.6113 37.5345C45.0151 37.4941 45.3651 37.4672 45.6882 37.4672C46.0651 37.4672 46.267 37.548 46.267 37.723C46.267 37.9653 46.0651 38.3287 45.6613 38.8268C45.2709 39.3249 44.8267 39.8633 44.369 40.4556C43.8978 41.048 43.4671 41.6403 43.0767 42.246C42.6863 42.8518 42.4978 43.3768 42.4978 43.8479C42.4978 44.3999 42.6594 44.8172 43.0094 45.0864C43.3459 45.3691 43.7228 45.5037 44.1267 45.5037C44.7728 45.5037 45.4728 45.3018 46.2267 44.871C46.9805 44.4537 47.6805 43.9556 48.367 43.3768C48.7574 43.0402 49.1074 42.7306 49.4305 42.4345C49.1747 43.1614 49.0536 43.821 49.0536 44.3864C49.0536 44.7499 49.1343 45.0729 49.2824 45.3691C49.444 45.6518 49.6459 45.7998 49.8882 45.7998C50.0497 45.7998 50.319 45.6652 50.6824 45.4229C51.0459 45.1672 51.4363 44.8575 51.8805 44.5075C52.3112 44.1575 52.7555 43.7806 53.1997 43.3902C53.6439 42.9864 54.0209 42.6499 54.3439 42.3537C54.6535 42.071 55.0035 41.7614 55.367 41.4383C55.7439 41.1018 56.0939 40.8056 56.417 40.523C56.7535 40.2537 57.0228 40.0114 57.2516 39.823C57.4804 39.621 57.6151 39.5268 57.642 39.5268C57.6824 39.5268 57.7228 39.5537 57.7631 39.6076C57.8035 39.648 57.8035 39.7153 57.7766 39.7826C57.7362 39.8768 57.6689 40.1595 57.5881 40.6172C57.4939 41.0749 57.4535 41.4653 57.4535 41.7749C57.4535 42.4076 57.5478 42.9326 57.7497 43.3768C57.9381 43.8076 58.2477 44.0229 58.692 44.0229C58.9747 44.0229 59.3112 43.9152 59.7016 43.7133C60.092 43.5114 60.4689 43.2556 60.8458 42.9729C61.2227 42.6768 61.5862 42.3806 61.9362 42.071C62.192 41.8287 62.4343 41.6268 62.6362 41.4518C62.515 41.721 62.4073 42.0037 62.3131 42.2729C62.017 43.0672 61.8689 43.7672 61.8689 44.3729C61.8689 44.7364 61.9497 45.0595 62.1112 45.3556C62.2727 45.6383 62.4747 45.7864 62.7439 45.7864C63.1073 45.7864 63.6054 45.5575 64.2246 45.1133C64.8573 44.6691 65.5304 44.0902 66.2573 43.3768C66.9842 42.6633 67.7246 41.8826 68.465 41.0345C69.2188 40.173 69.9054 39.3249 70.5381 38.5037C70.3631 38.9883 70.1208 39.5941 69.7842 40.3076C69.4612 41.021 69.1112 41.7345 68.7342 42.4749C68.3708 43.2018 67.9939 43.9018 67.6304 44.5345C67.2669 45.1806 66.9842 45.6518 66.7689 45.9614C65.5304 46.2306 64.2381 46.5941 62.865 47.0248C61.5054 47.4825 60.1189 48.0075 58.7054 48.6268C57.292 49.246 55.892 49.9191 54.5055 50.646C53.1189 51.3864 51.7862 52.1671 50.4939 52.9883C49.1478 53.8498 47.8959 54.7517 46.7382 55.694C45.5671 56.6363 44.5709 57.5786 43.7094 58.5209C42.8478 59.4632 42.1748 60.3921 41.6767 61.3209C41.1786 62.2632 40.9363 63.1382 40.9363 63.9863C40.9363 64.6594 41.1652 65.1844 41.6228 65.5478C42.0805 65.8978 42.5921 66.0863 43.144 66.0863C44.2344 66.0863 45.4594 65.817 46.8459 65.292C48.219 64.7536 49.6728 64.0267 51.2074 63.0978C52.742 62.169 54.317 61.0786 55.9324 59.8132C57.5478 58.5479 59.1362 57.1748 60.6843 55.7075C62.2054 54.2671 63.6458 52.7729 65.0054 51.2383C66.3785 49.7037 67.6169 48.1556 68.7208 46.5941C68.8688 46.5672 69.0035 46.5537 69.1381 46.5402C69.2727 46.5268 69.3938 46.5268 69.515 46.5268C69.6361 46.5268 69.7842 46.5268 69.9323 46.5402C70.0938 46.5537 70.2419 46.5537 70.39 46.5537C70.7804 46.5537 70.9688 46.4595 70.9688 46.271C70.9688 45.9345 70.7938 45.7595 70.4573 45.7595C70.3361 45.7595 70.1611 45.7729 69.9323 45.7864C69.7035 45.7864 69.4881 45.8133 69.2592 45.8402C69.865 44.9114 70.4304 43.996 70.9285 43.0672C71.44 42.1383 71.8708 41.2364 72.2207 40.3883C72.5707 39.5268 72.84 38.7057 73.0284 37.9384C73.2304 37.1576 73.3246 36.4845 73.3246 35.9057ZM59.0151 34.5999C59.0151 34.6941 58.9343 34.9095 58.7593 35.2191C58.5843 35.5288 58.4093 35.8653 58.1939 36.2153C57.992 36.5653 57.7901 36.8749 57.6016 37.1845C57.4131 37.4807 57.292 37.6557 57.2381 37.7095C57.1439 37.8307 57.0497 37.9249 56.9555 38.0191C56.8478 38.0999 56.8074 38.1672 56.8074 38.221C56.8074 38.2614 56.8612 38.3287 56.9824 38.396C57.1035 38.4634 57.2516 38.5307 57.4131 38.571C57.0631 38.8807 56.6728 39.2307 56.2555 39.621C55.8516 40.0114 55.4208 40.3883 54.9901 40.7787C54.5862 41.1422 54.1285 41.546 53.617 41.9768C53.1055 42.4345 52.6209 42.8383 52.1497 43.2152C51.6786 43.5922 51.2613 43.9018 50.9113 44.1441C50.5613 44.3999 50.3593 44.5345 50.2786 44.5345C50.2113 44.5345 50.1709 44.4133 50.1709 44.171C50.1709 43.7806 50.3728 43.2287 50.7497 42.5018C51.1401 41.7883 51.6786 40.9672 52.3786 40.0518C52.917 39.3518 53.4959 38.6518 54.1285 37.9653C54.7478 37.2653 55.367 36.6461 55.9728 36.1076C56.5785 35.5557 57.117 35.1249 57.6016 34.7884C58.0862 34.4518 58.4497 34.2768 58.692 34.2768C58.9074 34.2768 59.0151 34.3845 59.0151 34.5999ZM35.969 34.5999C35.969 34.6941 35.8883 34.9095 35.7267 35.2191C35.5517 35.5288 35.3633 35.8653 35.1613 36.2153C34.9594 36.5653 34.7575 36.8749 34.5556 37.1845C34.3671 37.4807 34.246 37.6557 34.1921 37.7095C34.0979 37.8307 34.0037 37.9249 33.9094 38.0191C33.8152 38.0999 33.7613 38.1672 33.7613 38.221C33.7613 38.2614 33.8287 38.3287 33.9498 38.396C34.071 38.4634 34.2056 38.5307 34.3806 38.571C34.0171 38.8807 33.6267 39.2307 33.2229 39.621C32.8056 40.0114 32.3883 40.3883 31.9575 40.7787C31.5402 41.1422 31.0825 41.546 30.571 41.9768C30.0729 42.4345 29.5748 42.8383 29.1037 43.2152C28.6325 43.5922 28.2287 43.9018 27.8787 44.1441C27.5287 44.3999 27.3133 44.5345 27.246 44.5345C27.1652 44.5345 27.1383 44.4133 27.1383 44.171C27.1383 43.7806 27.3268 43.2287 27.7172 42.5018C28.0941 41.7883 28.646 40.9672 29.346 40.0518C29.871 39.3518 30.4498 38.6518 31.0825 37.9653C31.7152 37.2653 32.321 36.6461 32.9267 36.1076C33.5325 35.5557 34.0844 35.1249 34.5556 34.7884C35.0402 34.4518 35.4036 34.2768 35.646 34.2768C35.8613 34.2768 35.969 34.3845 35.969 34.5999ZM19.1287 45.5037C18.5768 46.3248 17.9172 47.2268 17.1768 48.1825C16.423 49.1518 15.6018 50.121 14.7134 51.1037C13.8115 52.0863 12.8692 53.0152 11.8595 53.9171C10.8634 54.8056 9.84033 55.5998 8.79034 56.2998C7.74034 56.9998 6.69035 57.5652 5.65381 57.969C4.61728 58.3863 3.60767 58.5882 2.65191 58.5882C1.83076 58.5882 1.30576 58.3863 1.06346 58.0094C0.834611 57.619 0.726919 57.2152 0.726919 56.7709C0.726919 55.8286 1.06346 54.8863 1.73653 53.944C2.42306 53.0017 3.29806 52.1133 4.38844 51.2517C5.46535 50.3902 6.70381 49.596 8.06342 48.8825C9.42302 48.1556 10.7826 47.5364 12.1422 47.0114C13.4884 46.4864 14.7941 46.096 16.0326 45.8133C17.2711 45.5441 18.3076 45.4364 19.1287 45.5037ZM32.7114 20.2231C32.7114 19.9135 32.671 19.5769 32.5902 19.2269C32.496 18.8769 32.3344 18.5673 32.0787 18.2846C31.8229 18.0019 31.4594 17.7731 30.9883 17.5981C30.5171 17.4096 29.8844 17.3289 29.0902 17.3289C27.5152 17.3289 25.846 17.6923 24.0691 18.4462C22.2922 19.2 20.5422 20.1827 18.8057 21.3942C17.0691 22.6192 15.3865 24.0057 13.7845 25.5673C12.1826 27.1288 10.7692 28.7038 9.54418 30.3057C8.33265 31.9211 7.34996 33.4826 6.6365 35.0172C5.90958 36.5518 5.54612 37.898 5.54612 39.0557C5.54612 39.7826 5.65381 40.4153 5.88266 40.9403C6.1115 41.4787 6.40766 41.9095 6.77112 42.246C7.13458 42.5826 7.53842 42.8383 7.98265 42.9864C8.44034 43.1479 8.88457 43.2287 9.34226 43.2287C10.648 43.2287 11.9942 43.0268 13.3807 42.6499C14.7807 42.2595 16.1134 41.7883 17.4057 41.2364C18.698 40.6845 19.896 40.0922 20.9999 39.473C22.0903 38.8672 22.9922 38.3287 23.6922 37.871C23.5306 38.221 23.2749 38.7191 22.9383 39.3249C22.5883 39.9441 22.2249 40.5903 21.821 41.2499C21.4306 41.9095 21.0403 42.5556 20.6499 43.1883C20.2595 43.821 19.9364 44.3191 19.6672 44.6691C18.8057 44.5479 17.7153 44.6018 16.4095 44.8441C15.1038 45.0729 13.7307 45.4364 12.2634 45.9614C10.7961 46.4864 9.34226 47.1191 7.87496 47.8595C6.42112 48.6133 5.11536 49.4344 3.94421 50.3498C2.78652 51.2517 1.84422 52.2344 1.10384 53.2844C0.363459 54.3344 0 55.3979 0 56.4882C0 56.9863 0.0942302 57.4171 0.296152 57.7671C0.484613 58.1171 0.726919 58.4132 1.00961 58.6421C1.30576 58.8709 1.61538 59.0325 1.95191 59.1267C2.30191 59.2209 2.62499 59.2748 2.9346 59.2748C4.7519 59.2748 6.52881 58.8709 8.29226 58.0632C10.0557 57.2556 11.7519 56.1921 13.3672 54.8863C14.9826 53.5806 16.4903 52.1133 17.8634 50.4844C19.2364 48.8556 20.448 47.2402 21.4845 45.6114C21.7941 45.7325 22.0364 45.9075 22.2114 46.1229C22.373 46.3383 22.521 46.5402 22.6422 46.7422C22.7903 46.7825 22.9249 46.7691 23.046 46.6883C23.1672 46.6075 23.221 46.4998 23.221 46.3787C23.0999 46.1364 22.9383 45.8806 22.7499 45.6114C22.5614 45.3556 22.2787 45.1268 21.9153 44.9249C22.2518 44.4402 22.6422 43.8749 23.0595 43.2018C23.4768 42.5422 23.8941 41.8422 24.3114 41.1018C24.7152 40.3749 25.1191 39.6345 25.5095 38.8941C25.8864 38.1537 26.2229 37.4807 26.5191 36.848C26.5729 36.7537 26.6537 36.673 26.7749 36.5922C26.896 36.5249 27.0172 36.4441 27.1518 36.3364C27.2864 36.2422 27.3941 36.1345 27.5018 36.0134C27.596 35.8922 27.6364 35.7441 27.6364 35.5422C27.6364 35.4211 27.4614 35.2999 27.0979 35.1788C26.7345 35.0576 26.2095 35.0038 25.5095 35.0038C25.3076 35.0038 25.146 35.0441 25.0114 35.1518C24.8768 35.2461 24.7556 35.3672 24.6345 35.5153C24.5133 35.6499 24.3922 35.8114 24.271 35.9864C24.1499 36.148 24.0018 36.2961 23.8403 36.4172C23.5306 36.6595 22.8845 37.0903 21.9153 37.723C20.946 38.3422 19.8153 38.9883 18.496 39.6345C17.1768 40.2941 15.7768 40.8595 14.2692 41.3576C12.7749 41.8556 11.3346 42.0979 9.9211 42.0979C8.88457 42.0979 8.14419 41.8018 7.6865 41.2095C7.22881 40.6172 6.9865 39.8903 6.9865 39.0287C6.9865 38.0864 7.37688 36.9287 8.15765 35.5826C8.92495 34.223 9.94802 32.8095 11.2134 31.3019C12.4788 29.8076 13.9326 28.3269 15.5615 26.8461C17.1903 25.3788 18.873 24.0461 20.6095 22.8615C22.3595 21.6769 24.0691 20.7211 25.7518 19.9808C27.4479 19.2538 28.996 18.8769 30.396 18.8769C31.4864 18.8769 32.0248 19.2538 32.0248 20.0077C32.0248 20.5058 31.8094 21.0711 31.3787 21.6769C30.9344 22.2692 30.4498 22.8481 29.9114 23.3731C29.3595 23.9115 28.8479 24.3557 28.3633 24.7192C27.8787 25.0827 27.596 25.2577 27.5018 25.2577C27.3941 25.2577 27.3268 25.2442 27.2864 25.2038C27.2325 25.1634 27.1787 25.123 27.1383 25.0557C27.0845 25.0019 27.0306 24.948 26.9499 24.9077C26.8825 24.8807 26.7749 24.8538 26.6268 24.8538C26.4518 24.8538 26.1287 25.0154 25.6441 25.3115C25.1729 25.6077 24.621 25.998 24.0018 26.4557C23.3826 26.9134 22.7364 27.425 22.0633 27.9903C21.3903 28.5557 20.771 29.1076 20.1922 29.6461C19.6268 30.1711 19.1691 30.6557 18.8057 31.073C18.4422 31.4903 18.2537 31.7865 18.2537 31.9615C18.2537 32.298 18.3749 32.5672 18.6037 32.7692C18.8326 32.9845 19.0749 33.0788 19.3441 33.0788C19.5595 33.0788 20.0441 32.8499 20.798 32.3788C21.5383 31.9076 22.4133 31.3019 23.4095 30.548C24.3922 29.7942 25.4422 28.9461 26.5325 28.0173C27.6364 27.075 28.6325 26.1192 29.5479 25.1634C30.4498 24.2077 31.2037 23.3057 31.8094 22.4308C32.4152 21.5692 32.7114 20.8288 32.7114 20.2231Z" fill="url(#paint0_linear)"/>
<path d="M112.687 9.51725V29.4806C112.687 29.7902 112.431 30.046 112.122 30.046H95.564C95.2678 30.046 95.0121 29.7902 95.0121 29.4806L94.9852 11.873C94.9717 11.6172 95.1332 11.3749 95.389 11.2942C98.0678 10.5269 100.841 9.94802 103.668 9.54417C106.441 9.16725 109.254 8.96533 112.122 8.96533C112.431 8.96533 112.687 9.20764 112.687 9.51725Z" fill="black"/>
<path fill-rule="evenodd" clip-rule="evenodd" d="M100.922 24.7424C101.299 24.6347 101.407 24.4732 102.08 24.4866L101.447 23.7866C101.393 23.7328 101.353 23.6789 101.299 23.6116C101.232 23.5443 101.178 23.5039 101.124 23.4366C101.016 23.3155 100.922 23.2212 100.801 23.0866C100.734 23.3828 100.68 23.7059 100.626 24.002C100.572 24.3385 100.518 24.2847 100.922 24.7424ZM107.693 23.0732C106.791 23.3155 107.155 24.5943 108.016 24.3924C108.326 24.3116 108.609 23.9616 108.501 23.5578C108.42 23.2482 108.084 22.9789 107.693 23.0732ZM101.811 26.102C100.922 26.3578 101.326 27.6366 102.161 27.4078C102.484 27.327 102.766 26.977 102.645 26.5597C102.551 26.2501 102.214 25.9943 101.811 26.102ZM102.793 19.627C101.716 19.8693 102.08 21.4578 103.143 21.2424C103.534 21.1482 103.884 20.7578 103.776 20.2597C103.682 19.8559 103.291 19.5059 102.793 19.627ZM109.686 18.429C108.582 18.577 108.811 20.1924 109.888 20.0713C110.964 19.9366 110.749 18.2809 109.686 18.429ZM109.363 16.4905H104.92C104.974 16.8674 105.27 17.1905 105.647 17.2444C105.741 17.2578 107.68 17.2847 107.841 17.2444C107.936 17.2309 108.07 17.0694 108.272 16.9347C108.528 16.7732 108.757 16.6655 109.039 16.5847L109.363 16.4905ZM101.851 25.6308C100.33 25.8462 100.68 28.0808 102.161 27.8654C102.713 27.7981 103.211 27.2597 103.116 26.5866C103.022 26.0347 102.511 25.5366 101.851 25.6308ZM109.591 17.9847C108.945 18.0924 108.393 18.6713 108.514 19.452C108.609 20.0847 109.228 20.6232 109.982 20.502C110.614 20.4078 111.166 19.8155 111.045 19.0482C110.951 18.4155 110.345 17.8636 109.591 17.9847ZM102.699 19.1828C102.093 19.3174 101.541 19.9097 101.716 20.7039C101.851 21.3097 102.457 21.8482 103.224 21.6732C103.83 21.552 104.382 20.9597 104.22 20.1655C104.086 19.5597 103.48 19.0078 102.699 19.1828ZM102.699 18.7655C101.864 18.9001 101.124 19.6809 101.299 20.7039C101.434 21.5251 102.214 22.252 103.224 22.1039C104.072 21.9693 104.786 21.1886 104.638 20.1655C104.503 19.3309 103.709 18.604 102.699 18.7655ZM101.73 24.9578C100.815 25.1058 100.034 25.927 100.195 27.0308C100.33 27.9193 101.205 28.7135 102.268 28.5385C103.17 28.4039 103.938 27.5558 103.789 26.4924C103.641 25.5905 102.807 24.7962 101.73 24.9578ZM101.138 17.1501C101.084 17.0694 100.99 17.0155 100.963 16.8809C101.016 16.7732 101.138 16.7328 101.205 16.6251C101.178 16.5713 100.815 16.1809 100.734 16.127C100.29 16.1674 98.6876 17.702 98.6068 18.079C98.6203 18.1463 99.0241 18.5636 99.078 18.604C99.253 18.4828 99.3741 18.1867 99.6164 18.6174L98.7684 19.4251C98.1895 19.9366 97.8126 20.3674 98.2703 21.3232C98.4318 21.6866 99.6164 23.127 99.9664 23.5443C100.047 23.652 100.128 23.7732 100.222 23.8539L100.438 22.6559C100.33 22.5751 100.276 22.5212 100.209 22.427C99.6972 21.8078 98.8222 21.2424 99.1049 20.3539C99.2395 19.8963 99.7645 19.5732 100.101 19.2501L101.716 17.8232C102.107 17.4463 102.659 16.9213 103.305 17.0963C103.749 17.204 104.059 17.6751 104.328 17.9309L105.243 18.9136H107.034C107.074 18.6713 107.114 18.4693 107.195 18.2674C107.303 17.9982 107.438 17.8097 107.478 17.7155L105.486 17.702L104.113 16.2078C103.749 15.8578 103.278 15.6155 102.739 15.8309C102.188 16.0463 101.434 17.029 101.138 17.1501ZM100.545 22.1039L100.815 20.5155C100.882 19.802 100.949 19.5866 101.286 19.102C101.541 18.752 101.999 18.4693 102.416 18.3617C103.103 18.1867 103.749 18.3347 104.261 18.7251C104.853 19.1693 105.216 20.0982 105.539 20.7443L106.805 23.2616C106.859 23.2078 106.886 23.127 106.939 23.0597C107.693 22.1039 109.107 22.7635 108.972 23.8674C108.945 24.0693 108.878 24.2174 108.784 24.3655C108.73 24.4328 108.689 24.4732 108.636 24.5405C108.541 24.6347 108.501 24.6347 108.434 24.702C108.663 24.8097 108.918 24.8905 109.161 24.9712C109.538 25.1193 109.645 25.2135 109.928 25.1328C110.211 25.0385 111.261 24.7693 111.449 24.6616C111.382 24.5135 110.951 24.1366 111.288 23.5174C111.382 23.3693 111.436 23.3559 111.53 23.2347C111.409 23.127 108.609 21.8078 108.407 21.6597C108.326 21.6059 108.353 21.6059 108.259 21.552C107.666 21.1616 107.236 20.5289 107.074 19.829C107.047 19.6809 107.047 19.4924 107.007 19.3578H105.028C104.88 19.129 104.301 18.577 104.072 18.3213C103.493 17.7155 103.17 17.1367 102.363 17.8636C102.214 17.9982 102.08 18.1059 101.932 18.2405C101.434 18.6443 100.707 19.3713 100.222 19.7616C100.061 19.8828 99.926 20.0174 99.778 20.152C99.428 20.4482 99.4011 20.8924 99.7376 21.2559L100.424 21.9962C100.478 22.0636 100.465 22.0501 100.545 22.1039ZM101.097 21.4847L100.895 22.5078C101.003 22.6424 101.07 22.7097 101.191 22.8309L102.645 24.4193C102.726 24.5135 102.807 24.6347 102.955 24.702C103.372 24.9174 103.668 25.1462 103.924 25.577C104.22 26.0751 104.018 25.9808 104.516 26.4655L104.826 26.7885C104.947 26.9366 105.445 27.5289 105.566 27.5962C105.836 27.0712 106.495 26.5193 106.993 26.1962C107.909 25.577 108.689 25.577 109.039 25.3885L108.851 25.2943C108.797 25.2808 108.743 25.2539 108.663 25.227C108.528 25.1866 108.407 25.1328 108.272 25.0924C107.007 24.6347 107.074 24.7558 106.522 23.6251C106.064 22.6828 105.566 21.7405 105.082 20.8116C104.839 21.7001 104.341 22.3328 103.399 22.5212C102.659 22.6828 101.972 22.427 101.474 21.9559C101.313 21.8212 101.232 21.6597 101.097 21.4847ZM102.632 28.9289H103.763C103.668 28.7943 103.574 28.6731 103.534 28.5654L103.561 28.552C103.668 28.4712 103.749 28.4443 103.789 28.2962C103.789 28.3097 103.803 28.3097 103.803 28.3097L103.924 28.4443C103.964 28.5116 103.991 28.552 104.045 28.6193L104.274 28.9289H104.934C104.961 28.8616 104.974 28.8077 104.988 28.7539L105.297 28.0001C105.203 27.8924 105.163 27.8385 105.041 27.7174C104.893 27.5693 104.341 26.9097 104.247 26.8693C104.22 27.5424 103.857 28.1347 103.52 28.4174C103.143 28.7404 102.888 28.8616 102.632 28.9289ZM99.4684 28.9289H101.07L100.895 28.7539C100.532 28.4847 100.316 28.3501 100.061 27.9462C99.4549 26.977 99.8453 26.3174 99.9664 25.2539C99.3472 25.2943 99.4684 25.9539 99.4684 26.5193C99.4684 27.1116 99.4684 27.7039 99.4684 28.2827C99.4684 28.4981 99.4549 28.727 99.4684 28.9289ZM111.57 13.8117V12.1425H111.449H108.043C107.168 12.1425 105.984 12.304 105.203 12.6675C105.001 12.7617 104.786 12.8694 104.691 13.0175C104.597 13.179 104.597 13.5828 104.638 13.7982L111.57 13.8117ZM111.57 16.0328V14.2424H104.907V16.0328H111.57ZM111.57 17.0963V16.4905H110.17C110.211 16.5174 110.87 16.652 111.301 16.9213C111.368 16.9617 111.436 17.002 111.489 17.0424C111.516 17.0559 111.543 17.0828 111.57 17.0963ZM111.57 20.7039V17.7828C111.126 17.2444 110.413 16.8944 109.618 16.9482C108.393 17.029 107.384 18.0924 107.478 19.4251C107.572 20.6366 108.636 21.6462 109.968 21.552C110.601 21.4982 111.18 21.1886 111.57 20.7039ZM111.57 22.7232V21.3501C111.409 21.4712 111.234 21.6059 111.072 21.6866C110.803 21.8347 110.439 21.9559 110.089 21.9962C110.197 22.0905 111.301 22.602 111.57 22.7232ZM111.57 25.8058V25.1193C111.113 25.2539 110.641 25.3885 110.439 25.4424C110.534 25.4962 111.126 25.6308 111.449 25.7655C111.489 25.7789 111.53 25.7924 111.57 25.8058ZM111.57 27.2731V26.3039C110.816 25.9539 109.928 25.7924 109.147 25.9001C108.474 25.9808 107.976 26.1424 107.464 26.4251C106.482 26.977 105.755 27.8789 105.418 28.9289H106.307C106.832 27.6904 108.003 26.8424 109.363 26.7212C110.184 26.6539 110.951 26.8693 111.57 27.2731ZM111.57 28.9289V27.8251C110.951 27.3404 110.157 27.0712 109.255 27.1924C108.151 27.3404 107.263 28.0001 106.805 28.9289H111.57Z" fill="#FEFEFE"/>
<path fill-rule="evenodd" clip-rule="evenodd" d="M98.2554 28.9287C98.2419 28.5248 98.2554 28.1075 98.2554 27.6902C98.2554 27.0575 98.215 26.2499 98.2689 25.6441C98.3227 24.971 98.6189 24.6883 99.0227 24.3249L98.1073 23.1403C97.9458 22.9383 97.7977 22.7633 97.6362 22.548C96.8285 21.5114 96.5189 20.2191 97.3804 19.1018C97.5285 18.9134 97.5285 18.9672 97.6227 18.8326C97.515 18.6576 97.5285 18.7384 97.4612 18.4557C97.34 17.9711 97.4073 17.6345 97.69 17.2172C97.9054 16.9076 98.4304 16.3422 98.6996 16.0999C99.1977 15.6691 99.9515 14.9153 100.705 14.9153C101.002 14.9153 101.378 15.0095 101.513 15.1711C101.836 15.023 102.132 14.498 103.411 14.5518C103.425 13.7711 103.29 12.9095 103.694 12.3442C104.367 11.3884 106.077 11.0923 107.261 10.9442C107.49 10.9173 110.29 10.9173 111.569 10.9307V10.0826C108.93 10.1096 106.346 10.298 103.815 10.6615C101.19 11.0249 98.6189 11.5634 96.1016 12.2634L96.1285 28.9287H98.2554Z" fill="#013874"/>
<path d="M113.766 29.4806V9.51725C113.766 9.20764 114.008 8.96533 114.318 8.96533C117.185 8.96533 120.012 9.16725 122.785 9.54417C125.612 9.94802 128.371 10.5269 131.05 11.2942C131.319 11.3749 131.481 11.6172 131.454 11.873L131.441 29.4806C131.441 29.7902 131.185 30.046 130.875 30.046H114.318C114.008 30.046 113.766 29.7902 113.766 29.4806Z" fill="black"/>
<path d="M113.766 54.2496V31.6748C113.766 31.3651 114.008 31.1094 114.318 31.1094H130.875C131.185 31.1094 131.441 31.3651 131.441 31.6748C131.441 31.6882 131.441 31.7017 131.441 31.7286V32.1863C131.441 39.7786 129.664 44.7997 126.648 48.2593C123.633 51.7189 119.393 53.5631 114.452 54.7881C114.156 54.8689 113.846 54.6804 113.779 54.3842C113.766 54.3439 113.766 54.29 113.766 54.2496Z" fill="black"/>
<path d="M112.687 31.6748V54.2496C112.687 54.29 112.687 54.3439 112.673 54.3842C112.592 54.6804 112.296 54.8689 112 54.7881C107.046 53.5631 102.819 51.7189 99.7905 48.2593C96.7752 44.7997 95.0117 39.7786 95.0117 32.1863V31.7286C95.0117 31.7017 95.0117 31.6882 95.0117 31.6748C95.0117 31.3651 95.254 31.1094 95.5636 31.1094H112.121C112.431 31.1094 112.687 31.3651 112.687 31.6748Z" fill="black"/>
<path d="M96.9639 6.09804C96.6543 6.17881 96.3582 6.00381 96.2774 5.70766C96.1966 5.39805 96.3716 5.1019 96.6678 5.02113C99.4947 4.26728 102.281 3.68844 105.041 3.29806L105.202 3.27114C105.283 2.70575 105.391 2.18076 105.485 1.72307C102.927 2.11345 100.356 2.67883 97.7447 3.40575C97.4486 3.48652 97.1389 3.32498 97.0582 3.01537C96.9774 2.71922 97.1524 2.42306 97.4486 2.32883C100.141 1.57499 102.806 0.996148 105.418 0.605766C108.056 0.215383 110.654 0 113.225 0C115.797 0 118.395 0.215383 121.02 0.605766C123.645 0.996148 126.296 1.57499 128.989 2.32883C129.298 2.42306 129.473 2.71922 129.379 3.01537C129.298 3.32498 128.989 3.48652 128.693 3.40575C126.095 2.67883 123.51 2.11345 120.966 1.72307C121.06 2.18076 121.154 2.70575 121.248 3.27114L121.41 3.29806C124.156 3.68844 126.956 4.26728 129.77 5.02113C130.066 5.1019 130.254 5.39805 130.173 5.70766C130.093 6.00381 129.783 6.17881 129.487 6.09804C126.768 5.37112 124.075 4.80574 121.41 4.42882C121.477 4.95382 121.531 5.47882 121.558 5.94997L121.814 5.97689C124.708 6.38073 127.629 6.95958 130.591 7.69996C130.887 7.78073 131.075 8.09034 130.995 8.38649C130.914 8.68264 130.618 8.87111 130.321 8.79034C127.387 8.04996 124.506 7.47111 121.652 7.09419C118.866 6.70381 116.039 6.50189 113.225 6.50189C110.412 6.50189 107.572 6.70381 104.785 7.09419C101.945 7.47111 99.0505 8.04996 96.1293 8.79034C95.8332 8.87111 95.5236 8.68264 95.4563 8.38649C95.3755 8.09034 95.564 7.78073 95.8601 7.69996C98.8082 6.95958 101.743 6.38073 104.637 5.97689L104.893 5.94997C104.92 5.47882 104.974 4.95382 105.041 4.42882C102.375 4.80574 99.6832 5.37112 96.9639 6.09804ZM119.768 1.56153C117.573 1.26538 115.379 1.1173 113.225 1.1173C111.058 1.1173 108.877 1.26538 106.67 1.56153C106.562 1.96537 106.454 2.50383 106.36 3.12306C108.675 2.84037 110.964 2.69229 113.225 2.69229C115.487 2.69229 117.775 2.84037 120.091 3.12306C119.983 2.50383 119.875 1.96537 119.768 1.56153ZM120.266 4.26728C117.897 3.97113 115.541 3.80959 113.225 3.80959C110.897 3.80959 108.554 3.97113 106.185 4.26728C106.118 4.80574 106.05 5.33074 106.01 5.80189C108.447 5.5192 110.856 5.38459 113.225 5.38459C115.595 5.38459 118.004 5.5192 120.427 5.80189C120.387 5.33074 120.333 4.80574 120.266 4.26728Z" fill="black"/>
<path fill-rule="evenodd" clip-rule="evenodd" d="M124.021 34.5421L123.954 34.6363C124.048 34.744 127.077 36.9517 127.185 36.992C127.265 36.9113 127.306 36.8574 127.306 36.7632C127.292 36.669 127.252 36.642 127.158 36.5613L124.331 34.5017C124.21 34.4209 124.102 34.4209 124.021 34.5421ZM123.227 35.5382C122.998 35.8209 123.025 35.7536 123.725 36.2651C124.317 36.6959 124.91 37.1267 125.502 37.5574C125.758 37.7459 126.148 38.0959 126.404 38.1632L126.552 37.9613C126.458 37.7863 126.39 37.7728 126.202 37.6382L124.075 36.0901C123.873 35.942 123.415 35.5382 123.227 35.5382ZM123.644 35.0132C123.456 35.269 123.442 35.1747 124.156 35.6997C124.573 35.9959 126.646 37.544 126.794 37.5709C127.077 37.2747 126.821 37.2074 126.363 36.8709C126 36.6017 124.115 35.2017 123.846 35.0401C123.765 34.9863 123.725 35.0132 123.644 35.0132ZM122.433 46.2939C122.5 46.2805 122.581 46.1458 122.635 46.0651L116.725 41.7439C116.442 42.0805 116.469 41.9728 116.994 42.3766C118.165 43.292 119.646 44.3285 120.871 45.2305C121.073 45.3651 122.312 46.2939 122.433 46.2939ZM122.339 43.3997C122.487 43.5612 122.904 43.8305 123.106 43.9651C123.281 44.0997 123.617 44.1266 123.819 44.1805C123.981 43.9785 124.573 43.2785 124.654 43.1035L123.281 42.1074L122.339 43.3997ZM118.139 40.0478C118.273 40.2228 118.381 40.5324 118.569 40.667C118.744 40.8016 119.175 41.1382 119.364 41.2324L120.09 40.2363C120.387 39.819 120.508 40.1016 118.906 38.9305C118.785 39.0382 118.273 39.8459 118.139 40.0478ZM124.667 33.7478L124.438 34.1113C124.533 34.219 126.996 35.9824 127.373 36.2651C127.4 36.2786 127.481 36.3459 127.494 36.3594C127.562 36.3863 127.548 36.4536 127.683 36.1305C127.737 35.9555 127.642 35.8209 127.521 35.5382C127.467 35.4171 127.44 35.269 127.333 35.1747C127.131 34.9997 125.69 33.9363 125.529 33.8824C125.394 33.8555 124.762 33.7209 124.667 33.7478ZM119.35 38.7959C120.979 40.0074 122.769 41.2863 124.412 42.4843L124.64 42.6459C124.627 42.5651 124.613 42.4439 124.587 42.3632C124.56 42.2555 124.546 42.1612 124.519 42.0536C124.438 41.7305 124.546 41.8382 124.062 41.4882C123.523 41.0978 120.589 38.917 120.265 38.7286C120.144 38.6613 119.498 38.7555 119.35 38.7959ZM119.673 41.4612L122.029 43.1709L122.944 41.9055L120.602 40.1824L119.673 41.4612ZM117.277 40.5863C117.183 40.7209 116.819 41.2189 116.819 41.3266C116.833 41.3805 116.765 41.3132 116.873 41.3939L119.889 43.6016C120.925 44.3555 121.962 45.0958 122.985 45.8631L123.564 45.1766C123.402 44.9882 123.254 44.7324 123.106 44.5035C122.931 44.2612 122.594 44.0593 122.339 43.8709L118.919 41.3805C118.65 41.1786 118.367 40.9093 118.071 40.8286C117.802 40.7478 117.533 40.6805 117.277 40.5863ZM120.965 38.769L124.169 41.1113C124.331 40.9093 124.533 40.6132 124.694 40.3978C124.869 40.1555 125.044 39.9132 125.219 39.6709L126.013 38.6209C126.108 38.4728 126.04 38.4055 125.919 38.3113L123.052 36.2247C122.823 36.0632 122.769 36.2517 122.5 36.642L120.965 38.769ZM128.383 32.2267H127.265C126.835 32.6575 127.252 32.4825 126.848 33.0344C126.727 33.2228 126.754 33.1824 126.579 33.2498C126.444 33.2901 126.417 33.2632 126.31 33.4248C126.229 33.5459 126.135 33.6536 126.054 33.7748L127.36 34.7305C127.615 34.394 127.683 34.3671 127.683 34.0844C127.683 33.9498 127.683 33.9363 127.79 33.7882C127.898 33.6267 127.912 33.5863 128.06 33.5055C128.356 33.344 128.315 33.3844 128.477 33.0613C128.544 32.9267 128.598 32.5632 128.612 32.4421C128.571 32.4017 128.49 32.3209 128.383 32.2267ZM114.881 46.7112V46.8593L115.917 47.6401L115.675 48.0843L115.998 48.4478L115.85 48.6766L116.294 48.9997L116.469 48.7843C116.604 48.8516 116.792 48.9727 116.927 48.9862L117.25 48.6227L117.815 49.0131C116.819 50.3458 116.267 49.5381 115.554 49.0535L115.352 49.4574C116.065 49.9824 116.442 50.44 117.196 50.3189C117.775 50.2247 118.273 49.5785 118.717 49.0266L119.148 49.067L121.342 46.0381C121.235 45.917 117.29 43.0497 117.142 42.9824L114.908 45.9843L115.083 46.3881L114.881 46.7112Z" fill="#FEFEFE"/>
<path fill-rule="evenodd" clip-rule="evenodd" d="M114.881 50.3324L115.487 50.7766C115.985 51.14 116.321 51.3016 116.833 51.3285C117.64 51.3689 118.448 50.9516 119.162 50.0497L119.633 50.09L121.8 47.0881L122.675 47.6804L123.012 47.2228L123.119 47.2901L124.788 45.217C124.721 45.1362 124.573 44.9612 124.546 44.8535L125.785 43.2785C125.785 43.2247 125.758 43.0766 125.744 43.0228C125.717 42.9151 125.704 42.8747 125.69 42.7535L125.381 41.3266C125.354 41.2459 125.327 41.2459 125.34 41.1786C125.34 41.1786 126.727 39.267 126.821 39.1997C126.888 39.1593 126.848 39.2266 126.942 39.1055C127.09 38.917 127.548 38.2843 127.615 38.1497C127.683 38.0017 128.1 37.4093 128.248 37.2209C128.477 36.8978 128.329 37.0728 128.396 36.9247C128.45 36.7901 128.76 36.4132 128.867 36.2651C128.827 36.2247 128.356 35.0671 128.383 34.9997C128.463 34.9055 128.638 34.6901 128.665 34.5824C128.692 34.4478 128.598 34.3401 128.76 34.2459C129.177 34.0036 129.083 34.0709 129.312 33.5998C129.527 33.1421 129.473 33.2767 129.554 32.7786C129.581 32.6036 129.608 32.4151 129.648 32.2267H130.321C130.308 39.4959 128.638 44.2747 125.812 47.5324C123.106 50.6285 119.323 52.3516 114.881 53.5362V50.3324ZM114.881 32.2267V44.3689L115.998 42.8478L115.164 42.2016L115.5 41.7439L115.406 41.6632C115.581 41.3805 116.752 39.5228 116.86 39.442L117.277 39.5632L118.408 37.8805L120.265 37.692C120.427 37.6786 120.494 37.719 120.535 37.6786L121.894 35.794C121.989 35.6594 121.962 35.6728 121.975 35.619C121.975 35.6055 121.962 35.6324 122.002 35.5517L123.55 33.519C123.617 33.4786 123.59 33.5324 123.671 33.4517C123.806 33.3036 123.994 32.994 124.129 32.819C124.277 32.8459 124.91 32.8594 125.138 32.8728C125.246 32.8728 125.394 32.8728 125.475 32.8863C125.556 32.7786 125.677 32.5901 125.758 32.5094C125.838 32.4286 125.973 32.4151 126.081 32.3613C126.094 32.3075 126.108 32.2671 126.121 32.2267H114.881Z" fill="#003772"/>
<path d="M124.708 24.3518C124.425 24.5807 124.748 25.0518 125.058 24.7961C125.34 24.5941 125.004 24.1095 124.708 24.3518ZM125.65 25.4422C125.354 25.698 125.744 26.1287 126.027 25.873C126.283 25.6441 125.946 25.1864 125.65 25.4422ZM126.175 26.8826C125.906 27.1384 126.296 27.5691 126.579 27.2864C126.835 27.0441 126.458 26.5999 126.175 26.8826ZM123.644 27.2864C123.362 27.5557 123.739 27.973 124.035 27.7172C124.304 27.4749 123.927 27.0307 123.644 27.2864ZM117.439 18.6172C117.169 18.9134 117.614 19.2903 117.869 19.0076C118.098 18.7384 117.708 18.3346 117.439 18.6172ZM118.152 17.3249C117.856 17.5807 118.233 18.0115 118.529 17.7692C118.812 17.5134 118.435 17.0692 118.152 17.3249ZM116.577 21.9288C116.2 22.2518 116.685 22.8038 117.062 22.4941C117.412 22.2115 116.967 21.5922 116.577 21.9288ZM122.123 24.123C122.029 24.2038 122.002 24.2576 121.975 24.3653C121.908 24.6749 122.285 24.9576 122.581 24.7153C122.931 24.4326 122.514 23.8134 122.123 24.123ZM116.321 25.6576C115.958 26.0211 116.51 26.5191 116.846 26.1826C117.169 25.8595 116.685 25.2807 116.321 25.6576ZM120.131 21.0403C119.767 21.3903 120.292 21.9018 120.642 21.5653C120.992 21.2288 120.481 20.6769 120.131 21.0403ZM119.781 26.923C119.364 27.2191 119.808 27.8384 120.225 27.5287C120.589 27.2595 120.185 26.6403 119.781 26.923ZM123.469 26.9634C123.779 26.7345 124.183 26.8557 124.358 27.1114C124.6 27.4345 124.479 27.8518 124.237 28.0268C123.537 28.5383 122.729 27.5018 123.469 26.9634ZM124.533 24.0288C124.856 23.8134 125.246 23.948 125.421 24.2038C125.65 24.5403 125.515 24.9441 125.246 25.1191C124.533 25.5903 123.792 24.5268 124.533 24.0288ZM125.973 26.573C126.296 26.3172 126.713 26.4384 126.902 26.6941C127.144 27.0037 127.023 27.4076 126.794 27.596C126.108 28.1345 125.287 27.1114 125.973 26.573ZM117.25 18.3076C117.56 18.0384 117.964 18.1596 118.152 18.3884C118.421 18.7249 118.3 19.1288 118.071 19.3172C117.425 19.8557 116.55 18.8865 117.25 18.3076ZM125.488 25.1057C125.812 24.8903 126.215 25.0249 126.39 25.3076C126.606 25.6576 126.458 26.048 126.175 26.223C125.462 26.6672 124.748 25.5903 125.488 25.1057ZM118.004 16.9884C117.708 17.1634 117.573 17.5269 117.762 17.8769C118.192 18.6307 119.35 17.9711 118.892 17.2038C118.731 16.9211 118.327 16.773 118.004 16.9884ZM119.539 26.6537C120.306 26.0345 121.208 27.2057 120.454 27.8114C120.09 28.0941 119.633 27.973 119.417 27.7037C119.121 27.3268 119.242 26.8826 119.539 26.6537ZM119.942 20.7172C120.306 20.4211 120.764 20.5692 120.979 20.8518C121.248 21.2153 121.114 21.673 120.844 21.8749C120.09 22.4807 119.148 21.3499 119.942 20.7172ZM116.133 25.3345C116.496 25.0384 116.954 25.1864 117.169 25.4691C117.452 25.8326 117.317 26.2903 117.035 26.5057C116.281 27.098 115.352 25.9672 116.133 25.3345ZM116.402 21.5922C116.765 21.3365 117.223 21.4845 117.425 21.7807C117.694 22.1576 117.546 22.6018 117.25 22.8172C116.456 23.3691 115.581 22.1845 116.402 21.5922ZM121.894 23.8403C122.271 23.5441 122.729 23.6922 122.944 24.0018C123.523 24.7961 122.298 25.6441 121.733 24.8499C121.477 24.4864 121.625 24.0422 121.894 23.8403ZM122.635 16.3153C122.796 16.1538 123.106 16.3019 123.214 16.4096C123.402 16.5846 123.523 16.7999 123.375 16.9884C123.119 17.3249 122.85 17.6346 122.581 17.9711C122.514 18.0653 122.446 18.1596 122.312 18.1326C122.285 18.1192 122.069 18.0249 122.056 17.998C121.948 17.9038 121.854 17.4326 121.854 17.3115C121.867 17.2038 122.554 16.3961 122.635 16.3153ZM125.542 18.6576C125.704 18.523 126 18.6846 126.108 18.7788C126.188 18.8461 126.283 18.9807 126.31 19.0884C126.363 19.223 126.323 19.2769 126.242 19.3711C126.094 19.5461 125.973 19.6942 125.838 19.8692C125.61 20.1519 125.569 20.273 125.367 20.273C125.165 20.2865 124.856 20.3134 124.748 20.2057C124.465 19.9499 124.519 19.8692 124.708 19.6403C124.856 19.4653 125.408 18.7653 125.542 18.6576ZM118.246 24.0018L118.583 24.9845C118.664 25.0114 119.552 25.1864 119.592 25.173C119.66 25.173 120.212 24.4999 120.292 24.3922L119.942 23.3961C119.754 23.3961 119.027 23.2076 118.933 23.2345C118.865 23.248 118.354 23.8941 118.246 24.0018ZM117.842 23.9345C118.004 23.7999 118.717 22.8711 118.812 22.8576C118.852 22.8441 120.104 23.073 120.198 23.1134L120.683 24.473C120.535 24.6211 119.808 25.5364 119.727 25.5499C119.646 25.5634 118.529 25.3076 118.34 25.3076L117.842 23.9345ZM118.394 22.9384C117.775 23.3826 117.452 24.2845 118.004 25.0922C118.421 25.698 119.35 26.0076 120.131 25.4826C120.75 25.0653 121.073 24.123 120.535 23.3422C120.104 22.723 119.175 22.3865 118.394 22.9384ZM118.287 22.5749C119.256 21.9826 120.4 22.3999 120.898 23.2345C121.49 24.2038 121.073 25.348 120.252 25.8326C119.269 26.4384 118.125 26.0211 117.627 25.1864C117.035 24.2038 117.452 23.0865 118.287 22.5749ZM120.925 17.2038C121.006 17.3519 120.965 17.3653 120.912 17.648C120.885 17.8096 120.858 17.9442 120.831 18.1057C120.75 18.5499 120.629 18.7653 120.898 19.0076C120.979 19.0749 121.181 19.2769 121.262 19.3172C121.625 19.5326 121.8 19.5057 122.419 19.9903C123.281 20.6499 123.59 21.2557 123.765 21.3768C124.304 21.7672 124.156 21.7268 125.219 21.3095C125.462 21.2018 125.529 21.1615 125.758 21.148C125.933 21.6057 125.798 21.4711 126.162 21.7538C126.404 21.9422 127.737 23.0595 127.79 23.073C127.952 23.1134 128.194 22.7365 128.288 22.6153C128.598 22.2249 128.962 21.8884 128.935 21.4442C128.935 21.1211 128.733 21.0807 128.531 20.8788C128.181 21.0134 128.14 20.8788 128.046 20.9192C127.992 20.9461 127.831 21.2288 127.763 21.2961L126.7 20.6095C126.337 20.8788 126.713 20.8384 125.973 20.9192C125.583 20.973 125.165 20.9999 124.775 20.9595C124.6 20.9461 124.56 20.9192 124.438 20.8384C123.927 20.5557 123.617 20.0307 123.887 19.4653C123.94 19.3711 124.721 18.4288 124.856 18.2538C125.138 17.9038 124.829 17.4999 124.412 17.3519C124.035 17.2307 123.86 17.6076 123.537 18.0115C123.362 18.2134 123.214 18.4019 123.039 18.6172C122.864 18.8326 122.487 18.9134 122.231 18.873C121.989 18.8326 121.8 18.7384 121.585 18.5365C121.315 18.2672 121.289 18.1192 121.221 17.7423C121.167 17.4596 121.14 17.1769 121.114 16.9076C121.033 16.1673 121.154 16.5038 121.262 16.1807L120.4 15.2653C120.467 15.1307 120.629 15.023 120.71 14.8884C120.508 14.4711 120.831 14.2153 120.521 14.1615C119.673 14 119.498 14.3903 118.933 15.0903C118.515 15.6019 118.502 15.4807 119.081 15.9519C119.269 16.1134 119.485 16.275 119.66 16.4365L120.548 17.1499C120.642 17.1903 120.817 17.2173 120.925 17.2038ZM120.898 15.2384L121.76 16.1673C121.45 16.5307 121.437 16.5307 121.464 16.7999C121.49 17.0557 121.517 17.3249 121.571 17.5942C121.639 17.9576 121.639 18.1057 121.921 18.3346C122.096 18.4826 122.339 18.6038 122.635 18.4557C122.796 18.3884 123.456 17.5269 123.604 17.3384C123.779 17.123 123.954 16.948 124.29 16.9615C124.829 16.9884 125.313 17.4865 125.34 17.9576C125.354 18.2269 125.233 18.3884 125.058 18.6038L124.358 19.4519C124.237 19.6134 124.21 19.5999 124.169 19.7749C124.115 20.0576 124.277 20.2865 124.492 20.448C124.748 20.6365 124.842 20.6095 125.179 20.6095C125.435 20.6095 125.717 20.5826 125.96 20.5557C126.471 20.5019 126.215 20.5153 126.606 20.1519L126.74 20.2192C126.956 20.3538 127.521 20.6769 127.656 20.798C127.871 20.623 127.723 20.623 128.073 20.5557C128.248 20.5153 128.437 20.5019 128.598 20.448C128.558 20.1922 128.625 20.2326 128.49 19.7615C128.288 19.048 127.831 18.3615 127.387 17.7961C126.027 16.1 123.321 14.1077 121.154 14.2288C121.127 14.3365 121.154 14.6461 121.154 14.7807C121.167 14.9423 121.019 15.1442 120.898 15.2384ZM123.779 28.9287H124.358C124.344 28.7133 124.088 28.5114 123.887 28.7133C123.819 28.7672 123.792 28.8076 123.779 28.8883C123.779 28.9018 123.779 28.9153 123.779 28.9287ZM114.881 27.2864V27.6768C115.002 27.5691 114.975 27.3941 114.881 27.2864ZM114.881 26.1826V26.8422C115.002 26.8826 115.11 26.9634 115.177 27.0576C115.446 27.3941 115.325 27.7845 115.083 27.9864C115.015 28.0403 114.948 28.0807 114.881 28.0941V28.9287H117.142C117.317 28.848 117.506 28.848 117.667 28.9287H118.354C118.031 28.8614 117.694 28.7672 117.358 28.6326C117.048 28.5114 116.523 28.1749 116.254 27.9595C115.769 27.5557 115.365 27.1114 115.015 26.4653C114.975 26.371 114.921 26.2768 114.881 26.1826ZM114.881 23.5172V24.9172C114.948 25.3884 115.11 25.873 115.365 26.3307C116.469 28.3633 119.094 29.346 121.369 28.121C123.402 27.0307 124.412 24.3788 123.173 22.1038C122.015 19.9769 119.323 19.1153 117.142 20.3134C115.877 20.9999 115.083 22.2115 114.881 23.5172ZM114.881 20.4345V21.0134C114.935 20.9999 114.989 20.9865 115.029 20.9326C115.244 20.7576 115.083 20.4615 114.881 20.4345ZM114.881 19.0884V19.4922C115.002 19.3711 114.975 19.1961 114.881 19.0884ZM114.881 17.5673V18.0519C114.989 18.1192 115.137 18.1192 115.258 17.998C115.473 17.7557 115.137 17.3788 114.881 17.5673ZM114.881 17.0019V17.1634C115.137 17.0961 115.419 17.2307 115.554 17.4192C115.796 17.7423 115.675 18.1326 115.446 18.3211C115.258 18.4692 115.056 18.4961 114.881 18.4557V18.6711C115.015 18.7115 115.123 18.8057 115.204 18.9134C115.433 19.2365 115.312 19.6538 115.056 19.8288C114.989 19.8692 114.935 19.8961 114.881 19.923V20.0711C115.069 20.0845 115.244 20.1788 115.352 20.3134C115.608 20.623 115.5 21.0268 115.258 21.2288C115.137 21.323 115.002 21.3768 114.881 21.3768V22.2653C115.312 21.2826 115.944 20.5557 116.994 19.9769C117.614 19.6269 118.381 19.4384 119.027 19.4115C120.871 19.3172 122.608 20.2865 123.496 21.9422C124.183 23.1941 124.196 24.4595 123.833 25.7114C123.792 25.8461 123.725 25.9807 123.671 26.1018C123.55 26.4518 123.267 26.9095 123.025 27.2057C122.258 28.1345 121.289 28.7133 120.252 28.9287H123.402C123.402 28.7268 123.496 28.5114 123.725 28.3633C124.048 28.1614 124.452 28.296 124.627 28.5787C124.694 28.6864 124.721 28.8076 124.721 28.9287H126.242C126.431 28.646 126.592 28.3633 126.754 28.0672L127.023 27.5153C127.413 26.6807 127.656 25.4287 127.683 24.4999L127.669 23.5172C127.656 23.3961 127.548 23.3691 127.454 23.2884L125.717 21.8749C125.583 21.7538 125.583 21.7942 125.515 21.5788C124.331 22.0634 124.317 22.2249 123.564 21.6865C123.133 21.3903 122.971 20.6095 121.45 19.8153C121.369 19.7749 121.342 19.748 121.262 19.7211C120.965 19.6134 120.952 19.5461 120.696 19.3172C120.346 19.0076 120.333 18.7922 120.4 18.4019C120.454 18.1192 120.508 17.823 120.562 17.5269C120.333 17.473 120.481 17.5807 120.198 17.3519C120.077 17.2576 119.969 17.1634 119.875 17.0692C119.606 17.2173 119.323 17.2576 119.081 17.0557C118.785 16.8269 118.798 16.5442 118.865 16.2615C118.825 16.2211 118.408 15.8711 118.381 15.8576C118.314 15.8173 118.3 15.8307 118.219 15.8442C116.967 16.0326 115.877 16.3961 114.881 17.0019Z" fill="#FEFEFE"/>
<path d="M114.881 10.0826V15.8845C115.514 15.5615 116.187 15.2922 116.927 15.1038C117.021 15.0768 117.412 15.0095 117.452 14.9692C117.492 14.9422 117.546 14.8076 117.573 14.7672C117.614 14.6999 117.667 14.6461 117.708 14.5922C118.044 14.1615 118.529 13.5019 119.054 13.1922C119.404 12.9903 119.767 12.9095 120.117 12.8961C121.033 12.8692 120.481 13.0172 121.06 13.0038C122.998 12.9634 124.587 13.7845 126.121 14.9018C127.05 15.6018 128.127 16.598 128.867 17.7288C129.823 19.1961 129.823 20.273 129.904 20.4345C129.971 20.5557 129.998 20.4749 130.052 20.6633C130.16 21.1076 130.24 21.4576 130.16 21.9018C130.012 22.6826 129.473 23.1941 128.935 23.8537C128.706 24.1364 128.665 24.0153 128.665 24.2172C128.679 25.846 128.221 27.4883 127.4 28.9287H130.321L130.335 12.2634C127.831 11.5634 125.26 11.0249 122.635 10.6615C120.104 10.298 117.506 10.1096 114.881 10.0826Z" fill="#00B0BC"/>
<path fill-rule="evenodd" clip-rule="evenodd" d="M106.509 32.5498L100.788 35.269C100.963 35.2555 101.34 35.1209 101.542 35.0671C101.811 34.9863 102.067 34.919 102.336 34.8382C102.847 34.6901 103.372 34.5421 103.884 34.3805C104.072 34.3267 105.513 33.2767 105.863 33.0209C106.051 32.8998 106.388 32.6844 106.509 32.5498ZM106.603 46.9266L109.349 52.8766C109.08 52.7823 108.811 52.7016 108.555 52.6073L106.051 47.1824L106.603 46.9266ZM111.57 53.5362V50.9785L109.134 45.7285L108.017 46.2535L111.355 53.4689L111.57 53.5362ZM111.57 50.2112V46.267L110.924 44.8805L109.43 45.5805L111.57 50.2112ZM111.57 43.4401V41.9997C111.342 41.9593 111.247 42.0536 110.978 42.1343C110.534 42.2689 110.076 42.3901 109.632 42.5247C108.757 42.7805 107.815 43.0228 106.94 43.3055V43.292L106.953 43.2785C106.94 43.1978 106.994 43.292 106.94 43.2516C106.051 43.5343 105.149 43.7766 104.261 44.0324C103.817 44.167 103.345 44.2882 102.915 44.4228C102.147 44.6785 102.296 45.6747 102.955 45.8362C103.197 45.8901 103.332 45.8362 103.601 45.7555L110.305 43.8035C110.722 43.6824 111.153 43.5612 111.57 43.4401ZM106.347 32.2267H103.103L99.2936 34.044C99.0378 34.1651 98.1628 34.5421 98.0013 34.6767C97.6244 34.9728 97.6378 35.794 98.3244 35.9017C98.5532 35.9286 98.6744 35.8882 98.9167 35.767C99.3205 35.5786 104.988 32.8998 106.347 32.2267ZM109.78 53.0112C110.157 53.1323 110.547 53.2535 110.938 53.3612L107.72 46.3881L106.899 46.792L109.78 53.0112ZM105.661 40.5459C105.594 40.5055 105.647 40.5997 105.647 40.5324C105.647 40.4651 105.701 40.5459 105.661 40.5055C105.203 40.6132 104.759 40.7613 104.301 40.8959C103.48 41.1382 102.43 41.4209 101.622 41.6766C100.869 41.9189 100.936 42.8747 101.649 43.0766C101.851 43.1439 102.026 43.0901 102.282 43.0093L106.307 41.8382C107.599 41.4612 109.04 41.0574 110.332 40.667C111.072 40.4382 111.086 39.4959 110.332 39.294C110.117 39.2401 109.942 39.3074 109.686 39.3747C109.242 39.5093 108.797 39.644 108.353 39.7651L106.32 40.3574C106.132 40.4113 105.849 40.5189 105.661 40.5459ZM104.288 37.8132L104.355 37.7593C103.453 38.0017 102.565 38.2709 101.663 38.5266C101.219 38.6613 100.761 38.7824 100.33 38.917C99.5763 39.1593 99.6032 40.1151 100.357 40.3305C100.572 40.3978 100.734 40.3305 100.99 40.2632C101.434 40.1286 101.878 39.9939 102.336 39.8728L107.72 38.2978C108.151 38.1767 108.622 38.0555 109.053 37.9074C109.78 37.6786 109.767 36.6959 108.986 36.5344C108.77 36.494 108.582 36.5747 108.34 36.642L105.647 37.4228C105.23 37.544 104.719 37.7324 104.288 37.8132ZM103.022 35.0536L103.009 35.0401V35.0267V35.0132C102.592 35.1074 102.094 35.2824 101.663 35.4036C101.219 35.5382 100.774 35.6594 100.33 35.794C99.8859 35.9151 99.4147 36.0363 98.984 36.1844C98.3109 36.4132 98.284 37.342 99.0378 37.5843C99.2397 37.6517 99.4282 37.5843 99.6705 37.517L103.709 36.3324C104.611 36.0767 105.499 35.8074 106.401 35.5517C106.832 35.4305 107.303 35.3094 107.734 35.1613C108.515 34.919 108.407 33.9363 107.707 33.8017C107.465 33.7478 107.33 33.8151 107.061 33.8824C105.769 34.2728 104.301 34.7171 103.022 35.0536ZM104.113 47.0478C105.997 46.1458 107.936 45.2574 109.807 44.342C109.74 44.3285 109.659 44.3689 109.592 44.3824C109.524 44.4093 109.444 44.4228 109.376 44.4497L103.857 46.0516C103.709 46.092 103.574 46.1458 103.426 46.1728C103.251 46.2266 103.157 46.1997 103.022 46.2131C102.995 46.4824 102.982 46.7785 103.292 47.0074C103.507 47.1689 103.776 47.2093 104.113 47.0478ZM103.655 43.8305C103.776 43.8305 106.603 42.9824 106.98 42.8747C108.003 42.5786 107.68 42.7535 108.542 42.1478C108.851 41.9324 109.686 41.3132 109.942 41.1651C109.82 41.1786 108.501 41.5689 108.272 41.6362L105.782 42.3632C105.54 42.4305 105.257 42.6862 105.055 42.8209C104.813 42.9824 103.749 43.6959 103.655 43.8305ZM102.309 41.0978C102.417 41.0843 103.736 40.6805 103.965 40.6132C104.517 40.4651 105.069 40.3036 105.634 40.1286C106.644 39.8459 106.401 39.9939 107.195 39.4286C107.397 39.294 108.528 38.5132 108.582 38.4324C108.474 38.4324 105.634 39.2805 105.257 39.3882C104.247 39.6843 104.544 39.5093 103.695 40.1016C103.238 40.4382 102.767 40.7613 102.309 41.0978ZM101.003 38.3517C101.192 38.3247 104.692 37.2747 105.163 37.1401C105.392 37.0728 105.674 36.8305 105.89 36.6824C106.347 36.3594 106.832 36.0228 107.29 35.6863L105.62 36.1574C104.867 36.3728 103.844 36.642 103.117 36.8844C102.942 36.9382 101.919 37.692 101.69 37.8536C101.474 38.0151 101.205 38.1767 101.003 38.3517Z" fill="#FEFEFE"/>
<path fill-rule="evenodd" clip-rule="evenodd" d="M111.569 39.0516V32.2267H107.935C107.854 32.5632 107.692 32.7651 107.665 32.8325C108.675 32.8325 109.846 34.1517 108.958 35.5651C109.133 35.6055 109.133 35.5786 109.375 35.6594C109.523 35.7132 109.604 35.7401 109.765 35.8344C110.331 36.1844 110.654 36.8709 110.56 37.5305C110.519 37.867 110.452 38.0151 110.263 38.3113C110.371 38.3517 110.681 38.3382 111.058 38.5805C111.26 38.7151 111.435 38.8766 111.569 39.0516ZM100.881 32.2267H96.1289C96.1424 39.4959 97.7981 44.2747 100.638 47.5324C102.402 49.5516 104.637 51.0054 107.221 52.0823L105.135 47.6266C104.758 47.8016 104.313 48.0574 103.937 48.0977C102.981 48.2054 102.133 47.5054 102.052 46.5766C102.025 46.3074 101.998 46.4689 101.769 46.1324C101.527 45.7958 101.419 45.3785 101.433 45.0285C101.46 44.5439 101.581 44.4362 101.715 44.1535L101.729 44.1266C101.729 44.1132 101.729 44.1132 101.729 44.1132C101.487 44.0324 101.338 44.0997 100.935 43.8305C100.369 43.4805 100.06 42.8074 100.14 42.1478C100.194 41.717 100.329 41.6093 100.437 41.367C100.167 41.2863 99.952 41.2997 99.6289 41.0843C98.8616 40.5728 98.6058 39.5766 99.0231 38.7959C99.0635 38.7286 99.1039 38.6747 99.1308 38.6209L98.9962 38.594C98.2962 38.4863 97.7174 37.9478 97.5558 37.2209C97.4616 36.8036 97.6366 37.019 97.3539 36.7497C96.9231 36.3459 96.6808 35.6594 96.7212 35.1209C96.7347 34.7978 96.8827 34.4613 97.1116 34.1921C97.3943 33.8555 97.7577 33.7209 98.175 33.519L100.881 32.2267Z" fill="#00B0BC"/>
<path d="M42.1099 18.2538L39.3907 9.46342C39.283 9.15381 39.1618 8.99227 38.6907 8.99227H35.5811C35.258 8.99227 35.1907 9.20766 35.258 9.4365L40.7906 25.7787C41.208 26.9768 41.706 27.1787 42.7156 27.1787H44.3175C45.3137 27.1518 45.7983 27.0306 46.1887 25.8056L51.7752 9.4365C51.8156 9.24804 51.8156 8.99227 51.479 8.99227H48.3156C47.9252 8.99227 47.7233 9.04612 47.6156 9.38266L44.8425 18.3076L43.6176 22.8441H43.4426L42.1099 18.2538ZM64.3213 26.7749C64.429 27.1383 64.6847 27.1787 65.0751 27.1787H68.1713C68.5347 27.1787 68.5886 26.8691 68.5078 26.6672L63.1097 10.4192C62.6924 9.15381 62.2482 8.99227 61.0905 8.99227H59.529C58.4655 9.0192 57.9944 9.22112 57.6309 10.4192L52.2329 26.6672C52.1521 26.9229 52.2329 27.1787 52.5963 27.1787H55.6386C56.1233 27.1787 56.2579 27.0306 56.3656 26.6941L57.3752 23.396H63.3117L64.3213 26.7749ZM59.3002 16.8942L60.2828 13.1922H60.4309L61.4001 16.8942L62.3828 20.1787H58.304L59.3002 16.8942ZM79.3577 23.921C75.9789 23.921 74.9693 21.6326 74.9693 18.1999C74.9693 14.8345 76.3154 12.3711 79.3847 12.3711C80.7039 12.3711 81.7943 12.573 83.0327 13.0173C83.5308 13.1922 83.6385 13.1249 83.8135 12.6269L84.6212 10.7826C84.8769 10.2173 84.8231 10.0827 84.4327 9.88073C82.8308 8.99227 81.0135 8.76343 79.2231 8.76343C73.7981 8.76343 70.8097 12.5192 70.8097 18.1865C70.8097 23.9614 73.327 27.4749 78.9943 27.4749C80.1789 27.4749 83.1942 27.3402 85.2673 26.1153C85.8192 25.7787 85.8865 25.3614 85.8865 24.9037V19.4518C85.8865 17.8903 85.6846 16.8807 84.1769 16.5442C83.6116 16.4095 82.8039 16.3692 81.9154 16.3692C80.2866 16.3692 78.4962 16.8268 77.2981 17.4057C76.9347 17.5807 76.9347 17.7691 77.0424 18.0518L77.7154 20.1518C77.877 20.5422 78.025 20.4884 78.4962 20.3134C79.6404 19.8422 80.8789 19.6268 82.0769 19.6807L82.05 23.5307C81.1212 23.8672 80.0039 23.921 79.3577 23.921Z" fill="black"/>
<defs>
<linearGradient id="paint0_linear" x1="62.5" y1="0.499758" x2="29.5" y2="69.4998" gradientUnits="userSpaceOnUse">
<stop stop-color="#00B0BC"/>
<stop offset="1" stop-color="#003772"/>
</linearGradient>
</defs>
</svg>
