<svg width="112" height="112" viewBox="0 0 112 112" fill="none" xmlns="http://www.w3.org/2000/svg">
<path fill-rule="evenodd" clip-rule="evenodd" d="M56 112C25.0724 112 0 86.927 0 56C0 25.0724 25.0724 0 56 0C86.9283 0 112 25.0724 112 56C112 86.927 86.9283 112 56 112Z" fill="black"/>
<path fill-rule="evenodd" clip-rule="evenodd" d="M56.0106 64.4852L9.64702 83.6721C19.4157 100.084 37.1179 110.098 56.2081 109.999C75.2497 109.95 92.9025 99.835 102.572 83.3752L56.0106 64.4852ZM47.9796 50.9344L55.3679 2C36.3264 2.24756 18.773 12.5106 9.25256 29.0204C-0.31727 45.5303 -0.4167 65.8575 8.95557 82.4668L47.9796 50.9344ZM63.7953 51.5835L103.265 82.1237C112.439 65.5151 112.24 45.336 102.671 28.9256C97.9927 20.8568 91.3047 14.1365 83.2581 9.41878C75.2114 4.70103 66.0803 2.14652 56.7534 2.0039L63.7953 51.5835Z" fill="white"/>
</svg>
