<svg width="27" height="27" viewBox="0 0 27 27" fill="none" xmlns="http://www.w3.org/2000/svg">
<path d="M26 13.4224C26 6.5741 20.4257 1 13.5772 1M21.5629 13.4224C21.5629 9.02102 17.9787 5.43695 13.5772 5.43695M1.68231 11.605C1.24063 10.412 0.920793 9.19363 1.01725 7.8991C1.07817 7.10207 1.3777 6.42181 1.96153 5.86338C2.59612 5.26434 3.19518 4.63484 3.81962 4.02565C4.63191 3.22355 5.65234 3.22863 6.46462 4.02565C6.96722 4.51808 7.46474 5.02067 7.96226 5.52325C8.44455 6.00553 8.93192 6.4878 9.41422 6.97516C10.262 7.8331 10.2671 8.83319 9.41929 9.68606C8.81008 10.2953 8.20595 10.9095 7.58658 11.5086C7.42413 11.6659 7.40889 11.7979 7.4952 11.9959C7.90134 12.9706 8.49025 13.8387 9.15022 14.651C10.4803 16.2856 11.9831 17.7375 13.7752 18.8595C14.161 19.0981 14.5824 19.2758 14.9834 19.494C15.1916 19.6057 15.3286 19.5702 15.4962 19.3976C16.1003 18.7732 16.7197 18.1589 17.339 17.5446C18.1513 16.7425 19.1667 16.7375 19.979 17.5446C20.974 18.5295 21.964 19.5194 22.9489 20.5144C23.7764 21.347 23.7713 22.3674 22.9387 23.205C22.3752 23.7736 21.7812 24.3117 21.2532 24.9057C20.4816 25.7687 19.5068 26.053 18.4001 25.9921C16.7857 25.9058 15.2982 25.3677 13.8615 24.6722C10.6733 23.1238 7.95211 20.9764 5.67264 18.2655C3.98716 16.2552 2.59612 14.0722 1.68231 11.605Z" stroke="black"/>
</svg>
