<svg width="218" height="181" viewBox="0 0 218 181" fill="none" xmlns="http://www.w3.org/2000/svg">
<path d="M76.5538 91.6886L144.501 165.381C149.583 170.893 158.22 171.098 163.558 165.834V165.834C168.835 160.63 168.82 152.11 163.526 146.923L91.6878 76.5557" stroke="white" stroke-width="2"/>
<path d="M131.677 89.2943L118.356 104.432" stroke="white" stroke-width="2"/>
<path d="M103.826 119.57L70.5219 155.294" stroke="white" stroke-width="2"/>
<path d="M201.195 56.3566C209.229 47.8871 208.813 34.4911 200.27 26.5357L189.255 16.2793C180.661 8.27595 167.173 8.87679 159.324 17.6127L111.906 70.3874L152.534 107.656L201.195 56.3566Z" stroke="white" stroke-width="2"/>
<path d="M54.7525 158.308C50.8838 162.326 51.0436 168.731 55.1077 172.552C59.2034 176.402 65.6651 176.128 69.4204 171.945L79.6121 160.593L65.3295 147.322L54.7525 158.308Z" stroke="white" stroke-width="2"/>
<mask id="path-6-inside-1" fill="white">
<path fill-rule="evenodd" clip-rule="evenodd" d="M18.7949 40.9646C12.4957 55.9627 15.3839 73.9246 27.5193 86.2297C43.6255 102.561 69.9213 102.744 86.2527 86.6375C102.584 70.5313 102.767 44.2355 86.6605 27.9041C73.9459 15.0118 54.8813 12.1832 39.3816 19.4871L62.3601 42.7868C65.4625 45.9326 65.4273 50.9978 62.2815 54.1003L52.4995 63.7474C49.3537 66.8498 44.2885 66.8147 41.1861 63.6688L18.7949 40.9646Z"/>
</mask>
<path d="M18.7949 40.9646L20.2189 39.5603L18.1126 37.4244L16.951 40.1902L18.7949 40.9646ZM39.3816 19.4871L38.5291 17.6779L35.9752 18.8813L37.9576 20.8914L39.3816 19.4871ZM41.1861 63.6688L42.6101 62.2645L41.1861 63.6688ZM28.9433 84.8254C17.3945 73.1151 14.6414 56.0187 20.6389 41.7391L16.951 40.1902C10.3501 55.9066 13.3733 74.7342 26.0953 87.6341L28.9433 84.8254ZM84.8483 85.2135C69.3034 100.544 44.2739 100.37 28.9433 84.8254L26.0953 87.6341C42.9771 104.752 70.5392 104.943 87.6571 88.0615L84.8483 85.2135ZM85.2365 29.3085C100.567 44.8534 100.393 69.883 84.8483 85.2135L87.6571 88.0615C104.775 71.1797 104.966 43.6176 88.0845 26.4998L85.2365 29.3085ZM40.2342 21.2963C54.99 14.3429 73.1364 17.0392 85.2365 29.3085L88.0845 26.4998C74.7555 12.9844 54.7726 10.0234 38.5291 17.6779L40.2342 21.2963ZM37.9576 20.8914L60.9361 44.1912L63.7841 41.3825L40.8056 18.0827L37.9576 20.8914ZM60.9361 44.1912C63.2629 46.5506 63.2365 50.3494 60.8772 52.6763L63.6859 55.5243C67.6181 51.6462 67.6621 45.3147 63.7841 41.3825L60.9361 44.1912ZM60.8772 52.6763L51.0951 62.3234L53.9039 65.1714L63.6859 55.5243L60.8772 52.6763ZM51.0951 62.3234C48.7358 64.6502 44.9369 64.6238 42.6101 62.2645L39.7621 65.0732C43.6401 69.0055 49.9716 69.0494 53.9039 65.1714L51.0951 62.3234ZM42.6101 62.2645L20.2189 39.5603L17.3709 42.369L39.7621 65.0732L42.6101 62.2645Z" fill="white" mask="url(#path-6-inside-1)"/>
</svg>
