<svg width="25" height="15" viewBox="0 0 25 15" fill="none" xmlns="http://www.w3.org/2000/svg">
<path fill-rule="evenodd" clip-rule="evenodd" d="M24.4244 1.00658C24.6002 0.414473 24.4244 0 23.6037 0H20.8682C20.1648 0 19.8521 0.375 19.6763 0.789474C19.6763 0.789474 18.289 4.22368 16.3155 6.43421C15.6707 7.08553 15.3971 7.2829 15.0454 7.2829C14.8696 7.2829 14.6156 7.08553 14.6156 6.49342V1.00658C14.6156 0.296052 14.4202 0 13.834 0H9.53528C9.10541 0 8.83186 0.335526 8.83186 0.631578C8.83186 1.30263 9.80884 1.46053 9.92607 3.31579V7.38158C9.92607 8.26974 9.76976 8.42763 9.41805 8.42763C8.49969 8.42763 6.2331 4.99342 4.90442 1.04605C4.63086 0.31579 4.37685 0 3.67343 0H0.937897C0.156316 0 0 0.375 0 0.789474C0 1.51974 0.918357 5.15132 4.31823 9.94737C6.58482 13.2237 9.76976 15 12.6616 15C14.4006 15 14.6156 14.6053 14.6156 13.9342V11.4474C14.6156 10.6579 14.7719 10.5 15.3385 10.5C15.7488 10.5 16.4327 10.6974 18.0545 12.2763C19.9108 14.1513 20.2234 15 21.259 15H23.9945C24.7761 15 25.1669 14.6053 24.9324 13.8355C24.6784 13.0658 23.7991 11.9408 22.6268 10.5987C21.982 9.82895 21.0245 9.01974 20.751 8.60526C20.3406 8.07237 20.4579 7.83553 20.751 7.38158C20.751 7.36184 24.0922 2.625 24.4244 1.00658Z" fill="black"/>
</svg>
