<svg width="23" height="24" viewBox="0 0 23 24" fill="none" xmlns="http://www.w3.org/2000/svg">
<path d="M10.5769 12.627C9.99043 12.096 9.33877 11.3512 9.05663 10.6927C9.01293 10.608 8.9263 10.395 9.05663 10.2255C9.3173 9.885 9.361 9.864 9.64313 9.54525C9.83863 9.31125 9.99043 9.099 9.92527 8.907L8.94777 6.42C8.86037 6.24975 8.60047 6.22875 8.2961 6.207C8.03543 6.207 7.7533 6.207 7.5578 6.24975C7.12387 6.399 6.233 7.5465 6.1249 8.376C5.8857 10.1827 7.5578 12.585 9.23067 14.073C10.9035 15.5828 13.488 17.007 15.3119 16.6027C16.159 16.4115 17.2454 15.4552 17.332 15.0082C17.3757 14.817 17.3535 14.541 17.3106 14.2853C17.2891 13.9883 17.2239 13.7752 17.0491 13.6905L14.8342 12.6908C14.638 12.5842 14.4432 12.6698 14.2477 12.9037C14.0093 13.2225 13.8997 13.35 13.6175 13.6905C13.4657 13.8818 13.3569 14.0093 13.1836 14.0303C12.9873 14.073 12.7274 13.9665 12.6837 13.9665C11.9884 13.7325 11.1849 13.1588 10.5769 12.627ZM3.2798 20.2582L4.53943 17.133C3.14947 15.5603 2.3023 13.4978 2.3023 11.2448C2.3023 6.27075 6.4285 2.253 11.5115 2.253C16.5937 2.253 20.6985 6.27075 20.6985 11.2448C20.6985 16.2195 16.5937 20.2582 11.5115 20.2582C9.46987 20.2582 7.6015 19.62 6.08197 18.5153L3.2798 20.2582ZM1.73727 17.1975L0 24L6.21153 21.2362C7.797 22.044 9.59943 22.512 11.5115 22.512C17.8518 22.512 23 17.4735 23 11.2455C23 5.0385 17.8518 0 11.5107 0C5.1474 0 0 5.0385 0 11.2448C0 13.4347 0.651667 15.4755 1.73727 17.1975Z" fill="url(#paint0_linear)"/>
<defs>
<linearGradient id="paint0_linear" x1="11.5" y1="24" x2="11.5" y2="0" gradientUnits="userSpaceOnUse">
<stop stop-color="#030303"/>
<stop offset="1"/>
</linearGradient>
</defs>
</svg>
